<?xml version="1.0" encoding="UTF-8"?>
<svg width="52px" height="52px" viewBox="0 0 52 52" version="1.1" xmlns="http://www.w3.org/2000/svg" xmlns:xlink="http://www.w3.org/1999/xlink">
    <title>编组 11@1x</title>
    <g id="页面-1" stroke="none" stroke-width="1" fill="none" fill-rule="evenodd">
        <g id="1首页" transform="translate(-658.000000, -2532.000000)">
            <g id="编组-11" transform="translate(658.000000, 2532.000000)">
                <rect id="矩形" stroke="#12022F" stroke-width="2" x="1" y="1" width="50" height="50" rx="5"></rect>
                <path d="M26,16 C27.1045695,16 28,16.8954305 28,18 L27.9991458,28.828 L30.2426407,26.5857864 C31.0236893,25.8047379 32.2900192,25.8047379 33.0710678,26.5857864 C33.8521164,27.366835 33.8521164,28.633165 33.0710678,29.4142136 L27.4142136,35.0710678 C26.633165,35.8521164 25.366835,35.8521164 24.5857864,35.0710678 L18.9289322,29.4142136 C18.1478836,28.633165 18.1478836,27.366835 18.9289322,26.5857864 C19.7099808,25.8047379 20.9763107,25.8047379 21.7573593,26.5857864 L23.9991458,28.828 L24,18 C24,16.8954305 24.8954305,16 26,16 Z" id="形状结合" fill="#12022F" transform="translate(26.000000, 25.828427) rotate(-90.000000) translate(-26.000000, -25.828427) "></path>
            </g>
        </g>
    </g>
</svg>