<?xml version="1.0" encoding="UTF-8"?>
<svg width="48px" height="48px" viewBox="0 0 48 48" version="1.1" xmlns="http://www.w3.org/2000/svg" xmlns:xlink="http://www.w3.org/1999/xlink">
    <title>编组 4@1x</title>
    <g id="页面-1" stroke="none" stroke-width="1" fill="none" fill-rule="evenodd">
        <g id="我的NFT" transform="translate(-374.000000, -855.000000)">
            <g id="编组-4" transform="translate(375.000000, 856.000000)">
                <rect id="矩形备份-5" stroke="#DCDCDC" x="0" y="0" width="46" height="46" rx="23"></rect>
                <path d="M30.7928932,21.5 C31.8974627,21.5 32.7928932,22.3954305 32.7928932,23.5 L32.7928932,33.5 C32.7928932,34.6045695 31.8974627,35.5 30.7928932,35.5 C29.6883237,35.5 28.7928932,34.6045695 28.7928932,33.5 L28.7928932,25.5 L20.7928932,25.5 C19.6883237,25.5 18.7928932,24.6045695 18.7928932,23.5 C18.7928932,22.3954305 19.6883237,21.5 20.7928932,21.5 L30.7928932,21.5 L30.7928932,21.5 Z" id="形状结合" fill="#D8D8D8" transform="translate(25.792893, 28.500000) rotate(-225.000000) translate(-25.792893, -28.500000) "></path>
                <path d="M14,12.0625061 L22,12.0625061 C24.209139,12.0625061 26,13.8533671 26,16.0625061 L26,26.0625061 L26,26.0625061" id="路径-18" stroke="#979797" stroke-width="4" stroke-linecap="round" stroke-linejoin="round"></path>
            </g>
        </g>
    </g>
</svg>