<?xml version="1.0" encoding="UTF-8"?>
<svg width="24px" height="24px" viewBox="0 0 24 24" version="1.1" xmlns="http://www.w3.org/2000/svg" xmlns:xlink="http://www.w3.org/1999/xlink">
    <title>编组@1x</title>
    <g id="页面-1" stroke="none" stroke-width="1" fill="none" fill-rule="evenodd">
        <g id="活动-失败" transform="translate(-879.000000, -177.000000)" fill-rule="nonzero">
            <g id="编组" transform="translate(879.000000, 177.000000)">
                <path d="M11.9975932,0 C8.81499868,-0.00207244044 5.76215879,1.26128945 3.51172412,3.51172409 C1.26128946,5.76215874 -0.00207244046,8.81499861 0,11.9975931 L0,11.9998259 C0,16.8534029 2.92378649,21.2290446 7.40795024,23.0863238 C11.892114,24.943603 17.0535395,23.9167444 20.4853772,20.4845875 C23.9172148,17.0524306 24.9435932,11.8909096 23.0858968,7.40691869 C21.2282003,2.92292779 16.8522867,-0.00044899084 11.9987096,0 L11.9953605,0 L11.9987096,0 L11.9975932,0 Z" id="路径" fill="#237CFA"></path>
                <path d="M17.1942792,12.7957952 L11.9998259,12.7957952 L11.9998259,7.60134192 C11.9993436,7.38247925 11.8256092,7.20331562 11.6068649,7.19610089 L10.8086629,7.19610089 C10.5889859,7.19916386 10.4132189,7.37942491 10.4156759,7.59910919 L10.4156759,13.9970055 C10.4156759,14.2180461 10.5876223,14.3899665 10.8086629,14.4022465 L17.2065592,14.4022465 C17.4296091,14.4004256 17.6099794,14.2200553 17.6118003,13.9970055 L17.6118003,13.1988035 C17.6028845,12.9740301 17.4192185,12.7957661 17.1942792,12.7935624 C17.2065592,12.7935624 17.1942792,12.7935624 17.1942792,12.7935624 L17.1942792,12.7957952 L17.1942792,12.7957952 Z" id="路径" fill="#FFFFFF"></path>
            </g>
        </g>
    </g>
</svg>