<?xml version="1.0" encoding="UTF-8"?>
<svg width="46px" height="46px" viewBox="0 0 46 46" version="1.1" xmlns="http://www.w3.org/2000/svg" xmlns:xlink="http://www.w3.org/1999/xlink">
    <title>编组@1x</title>
    <g id="页面-1" stroke="none" stroke-width="1" fill="none" fill-rule="evenodd">
        <g id="活动-发起人结算" transform="translate(-908.000000, -738.000000)" fill="#EBBC00" fill-rule="nonzero">
            <g id="编组" transform="translate(908.000000, 738.000000)">
                <path d="M45.5572286,18.3612019 C45.2554566,16.8791722 44.8066329,15.4309365 44.2174214,14.0379969 C43.6527271,12.6660692 42.9513755,11.3544709 42.1239726,10.1230365 C41.7195877,9.46988106 40.989979,9.0906749 40.2230877,9.1350724 C39.4561965,9.17946991 38.7752168,9.64033904 38.4488986,10.3357969 C38.1225803,11.0312548 38.2033436,11.8495826 38.6593149,12.4678256 C39.3331402,13.459371 39.9147561,14.5105409 40.3968774,15.6081683 C40.8600584,16.7506763 41.2106285,17.935667 41.4436017,19.1462876 C42.2207718,22.876296 41.8560077,26.7539475 40.3968774,30.2735682 C39.9199359,31.3936657 39.3381593,32.4661552 38.6593149,33.4767177 C37.3040747,35.4882736 35.5732145,37.2192272 33.561767,38.5745405 C27.2023489,42.8817567 18.8610904,42.8817567 12.5016722,38.5745405 C9.46687547,36.5430013 7.08268048,33.6789052 5.63516016,30.3259072 C5.1719791,29.1833992 4.82140907,27.9984085 4.58843578,26.7877879 C3.81342312,23.0611279 4.17815629,19.1874527 5.63516016,15.6709751 C6.11210161,14.5508776 6.69387821,13.4783882 7.37272264,12.4678256 C8.72796286,10.4562697 10.4588231,8.72531611 12.4702705,7.37000277 C18.8296886,3.06278661 27.1709472,3.06278661 33.5303653,7.37000277 C34.148575,7.8259987 34.9668586,7.90676627 35.662279,7.58043043 C36.3576994,7.25409458 36.8185436,6.57307816 36.8629387,5.80614554 C36.9073339,5.03921293 36.5281482,4.3095648 35.875028,3.90515811 C34.6423665,3.07986407 33.3310598,2.37859269 31.9602787,1.81159636 C30.5674143,1.2223531 29.1192567,0.773505214 27.637307,0.471716876 C24.577969,-0.157238959 21.4226668,-0.157238959 18.3633288,0.471716876 C16.8813791,0.773505214 15.4332215,1.2223531 14.0403571,1.81159636 C12.669576,2.37859269 11.3582693,3.07986407 10.1256078,3.90515811 C7.66806742,5.55320447 5.55602235,7.66536349 3.90806491,10.1230365 C3.08066207,11.3544709 2.37931043,12.6660692 1.8146161,14.0379969 C-0.604872034,19.7666098 -0.604872034,26.2302726 1.8146161,31.9588854 C2.37931043,33.3308132 3.08066207,34.6424115 3.90806491,35.8738459 C5.55602235,38.3315189 7.66806742,40.4436779 10.1256078,42.0917242 C11.3582693,42.9170183 12.669576,43.6182897 14.0403571,44.185286 C19.7686609,46.6049047 26.2319749,46.6049047 31.9602787,44.185286 C33.3310598,43.6182897 34.6423665,42.9170183 35.875028,42.0917242 C38.3325684,40.4436779 40.4446134,38.3315189 42.0925709,35.8738459 C42.9199737,34.6424115 43.6213254,33.3308132 44.1860197,31.9588854 C46,27.663104 46.467186,22.9178235 45.5258269,18.3507341 L45.5572286,18.3612019 Z" id="路径"></path>
                <path d="M23.0003179,22.9984412 L23.0003179,10.4370707 C23.0001409,9.28095369 22.0629238,8.34382949 20.9068691,8.34382949 C19.7508144,8.34382949 18.8134203,9.28095369 18.8134203,10.4370707 L18.8134203,25.0920029 C18.8134203,26.2482451 19.7506893,27.1855646 20.9068691,27.1855646 L35.5610106,27.1855646 C36.7170653,27.1855646 37.654139,26.24812 37.654139,25.0920029 C37.654139,23.9358858 36.7170653,22.9986182 35.5610106,22.9984412 L23.0003179,22.9984412 Z" id="路径"></path>
            </g>
        </g>
    </g>
</svg>