<?xml version="1.0" encoding="UTF-8"?>
<svg width="48px" height="48px" viewBox="0 0 48 48" version="1.1" xmlns="http://www.w3.org/2000/svg" xmlns:xlink="http://www.w3.org/1999/xlink">
    <title>编组 8@1x</title>
    <g id="页面-1" stroke="none" stroke-width="1" fill="none" fill-rule="evenodd">
        <g id="4购买NFT-POOL" transform="translate(-1277.000000, -65.000000)">
            <g id="编组-22" transform="translate(565.000000, 37.000000)">
                <g id="编组-8" transform="translate(712.000000, 28.000000)">
                    <circle id="椭圆形" fill="#EBEBEB" cx="24" cy="24" r="24"></circle>
                    <path d="M24,14 C25.1045695,14 26,14.8954305 26,16 L25.999,22 L32,22 C33.1045695,22 34,22.8954305 34,24 C34,25.1045695 33.1045695,26 32,26 L25.999,26 L26,32 C26,33.1045695 25.1045695,34 24,34 C22.8954305,34 22,33.1045695 22,32 L21.999,26 L16,26 C14.8954305,26 14,25.1045695 14,24 C14,22.8954305 14.8954305,22 16,22 L21.999,22 L22,16 C22,14.8954305 22.8954305,14 24,14 Z" id="形状结合" fill="#000000" transform="translate(24.000000, 24.000000) rotate(-315.000000) translate(-24.000000, -24.000000) "></path>
                </g>
            </g>
        </g>
    </g>
</svg>