<?xml version="1.0" encoding="UTF-8"?>
<svg width="24px" height="24px" viewBox="0 0 24 24" version="1.1" xmlns="http://www.w3.org/2000/svg" xmlns:xlink="http://www.w3.org/1999/xlink">
    <title>Dribbble@1x</title>
    <g id="页面-1" stroke="none" stroke-width="1" fill="none" fill-rule="evenodd">
        <g id="我的NFT" transform="translate(-1404.000000, -2090.000000)" fill-rule="nonzero">
            <g id="编组-19" transform="translate(0.000000, 1952.000000)">
                <g id="Follow-Us" transform="translate(1260.000000, 80.000000)">
                    <g id="Social" transform="translate(0.000000, 58.000000)">
                        <g id="Dribbble" transform="translate(144.000000, 0.000000)">
                            <path d="M12,0 C18.615,0 24,5.383 24,12 C24,18.615 18.615,24 12,24 C5.383,24 0,18.615 0,12 C0,5.383 5.383,0 12,0 Z" id="Path" fill="#C2185B"></path>
                            <g id="Group" transform="translate(1.703125, 1.703125)" fill="#EC407A">
                                <path d="M16.858875,2.377875 L16.858875,2.376875 C14.419875,0.352875 11.237875,-0.403125 8.194875,0.226875 C9.442875,1.995875 10.576875,3.836875 11.573875,5.745875 C13.461875,4.865875 15.237875,3.730875 16.858875,2.377875 Z" id="Path"></path>
                                <path d="M13.571875,10.127875 L13.571875,10.126875 C15.848875,9.659875 18.217875,9.615875 20.565875,10.005875 C20.496875,7.554875 19.574875,5.318875 18.079875,3.587875 C16.314875,5.074875 14.374875,6.306875 12.313875,7.269875 C12.765875,8.208875 13.183875,9.160875 13.571875,10.127875 L13.571875,10.127875 Z" id="Path"></path>
                                <path d="M9.974875,6.393875 C8.943875,4.438875 7.776875,2.552875 6.473875,0.752875 C3.385875,1.990875 1.045875,4.678875 0.282875,7.977875 C3.611875,8.119875 6.906875,7.565875 9.974875,6.393875 Z" id="Path"></path>
                                <path d="M11.901875,10.553875 C11.543875,9.672875 11.156875,8.804875 10.742875,7.946875 C7.382875,9.255875 3.842875,9.887875 0.041875,9.682875 C-0.115125,12.492875 0.794875,14.977875 2.434875,16.922875 C4.904875,13.855875 8.225875,11.657875 11.901875,10.553875 Z" id="Path"></path>
                                <path d="M14.201875,11.749875 L14.201875,11.750875 C15.018875,14.030875 15.659875,16.374875 16.130875,18.763875 C18.448875,17.164875 20.066875,14.638875 20.472875,11.721875 C18.370875,11.349875 16.246875,11.365875 14.201875,11.749875 L14.201875,11.749875 Z" id="Path"></path>
                                <path d="M3.650875,18.141875 L3.651875,18.141875 C6.696875,20.724875 10.926875,21.310875 14.558875,19.648875 C14.087875,17.087875 13.401875,14.581875 12.516875,12.147875 C9.061875,13.157875 5.939875,15.231875 3.650875,18.141875 Z" id="Path"></path>
                            </g>
                        </g>
                    </g>
                </g>
            </g>
        </g>
    </g>
</svg>