<?xml version="1.0" encoding="UTF-8"?>
<svg width="24px" height="24px" viewBox="0 0 24 24" version="1.1" xmlns="http://www.w3.org/2000/svg" xmlns:xlink="http://www.w3.org/1999/xlink">
    <title>Icons/Heart备份@1x</title>
    <g id="Icons/Heart备份" stroke="none" stroke-width="1" fill="none" fill-rule="evenodd">
        <path d="M6.56769462,3.29829399 C2.83095847,4.42802097 1.14905792,8.293704 2.40749998,11.964644 C3.03620871,13.6667511 4.05277658,15.1874774 5.38613749,16.4331334 C5.75763268,16.7719474 6.20290921,17.1429134 6.72288608,17.5469938 L7.2677971,17.962148 C7.36277697,18.0331919 7.45984035,18.1051646 7.55899151,18.1780705 L8.17898579,18.6267403 L8.84929084,19.0980212 L9.57011089,19.5921271 L10.3416502,20.109272 C11.346667,20.7760352 12.65326,20.7761155 13.6583589,20.1094759 L14.0456674,19.8512882 C14.3033176,19.6786484 14.552449,19.5098989 14.7930859,19.345013 L15.4895376,18.8619201 C15.6013738,18.7833276 15.7110926,18.7056944 15.8186969,18.6290172 L16.438974,18.1803997 C16.5381328,18.1075332 16.6351833,18.0356162 16.7301286,17.9646452 L17.2745617,17.5501454 L17.7686158,17.1581923 C18.0812248,16.9043704 18.3603458,16.6654737 18.6061747,16.4412903 C19.9483831,15.1874309 20.9649855,13.6666982 21.5857317,11.9870028 C22.8514043,8.29558049 21.1626931,4.42833943 17.4251507,3.29836559 L17.1574037,3.22348979 C15.4557298,2.78395764 13.6479346,3.00231905 12.1216099,3.81870976 L11.996,3.888 L11.8716455,3.81853054 C10.2649101,2.95799526 8.3455006,2.76128888 6.56769462,3.29829399 Z" id="🔹Primary" fill="#E52755"></path>
    </g>
</svg>