<?xml version="1.0" encoding="UTF-8"?>
<svg width="42px" height="42px" viewBox="0 0 42 42" version="1.1" xmlns="http://www.w3.org/2000/svg" xmlns:xlink="http://www.w3.org/1999/xlink">
    <title>icon-k-gray</title>
    <g id="icon-k-gray" stroke="none" stroke-width="1" fill="none" fill-rule="evenodd">
        <rect id="矩形" opacity="0.663619995" x="0" y="0" width="42" height="42" rx="11"></rect>
        <g id="编组备份" transform="translate(21.500000, 20.500000) scale(-1, -1) rotate(-180.000000) translate(-21.500000, -20.500000) translate(8.000000, 7.000000)" fill-rule="nonzero">
            <path d="M24.8023217,15.4439247 L23.0467043,15.4439247 C19.6113009,15.4439247 17.7844477,18.1411736 17.7844477,20.9826725 L17.7844477,24.0416915 C17.7844477,24.1882314 17.7844477,24.4080411 17.708616,24.5522913 C17.4225529,26.1591058 15.8872022,27.2335773 14.2732127,26.9564604 L13.8366063,26.8831905 C12.386996,26.670435 11.1459294,25.7367179 10.5436745,24.4057514 C9.95490903,23.1833424 9.75142268,21.8119432 9.96000065,20.4720728 L10.2518376,18.2144435 L10.2518376,18.1411735 C10.2518376,17.9213638 10.1047701,17.7748239 9.88416901,17.7748239 L2.20908734,17.7748239 C0.818840492,17.5573039 -0.130204037,16.3185843 0.0145654671,14.8623448 L2.57445798,2.1866491 C2.72152542,0.947929557 3.81763739,0 5.13435049,0 L24.21635,0 C25.3882936,0 26.3373381,0.947929557 26.4108718,2.11337917 L26.9945457,13.1862954 C27.0367917,13.7714625 26.8322123,14.3476746 26.4300652,14.7761936 C26.0279182,15.2047126 25.4646403,15.4467122 24.8758555,15.4439247 L24.8023217,15.4439247 Z" id="形状" fill="#9E9E9E"></path>
            <path d="M19.7560705,2.1866491 L5.13435049,2.1866491 C4.98728306,2.1866491 4.76668192,2.33089925 4.76668192,2.47743909 L2.21138527,15.0798648 C2.21138527,15.2996745 2.35845271,15.4462144 2.50322221,15.5171946 L9.88876484,15.5171946 C11.2767138,15.5171946 12.4486574,16.6849339 12.4486574,18.0679036 L12.4486574,18.4319635 L12.1545225,20.6895928 C12.009753,21.6375224 12.1545225,22.5854519 12.5934269,23.3868417 C12.8852638,24.1149615 13.5447693,24.5522913 14.2755106,24.6965414 L14.7121171,24.7698114 C15.1150142,24.8448007 15.5047992,24.5872284 15.5922238,24.1882314 L15.5922238,21.0536528 C15.5922238,17.9213638 17.2743075,14.7890748 20.5626434,13.6968951 L19.7583684,2.1866491 L19.7560705,2.1866491 Z" id="路径" fill="#E5E5E5"></path>
            <path d="M23.3408391,13.3328352 L24.0715805,13.3328352 C24.5081869,13.3328352 24.8023217,12.9664856 24.8023217,12.6047154 L24.5104848,2.91476888 C24.5104848,2.5484193 24.1428162,2.1866491 23.7774456,2.1866491 L22.6813336,2.1866491 C22.2447272,2.1866491 21.9505923,2.47743909 21.9505923,2.91476888 L21.9505923,2.98803882 L22.6077999,12.6047154 C22.6813336,12.9687753 22.9754685,13.3328352 23.3385412,13.3328352 L23.3408391,13.3328352 Z" id="路径" fill="#B6B6B6"></path>
        </g>
    </g>
</svg>