<?xml version="1.0" encoding="UTF-8"?>
<svg width="24px" height="24px" viewBox="0 0 24 24" version="1.1" xmlns="http://www.w3.org/2000/svg" xmlns:xlink="http://www.w3.org/1999/xlink">
    <title>Linkedin@1x</title>
    <g id="页面-1" stroke="none" stroke-width="1" fill="none" fill-rule="evenodd">
        <g id="我的NFT" transform="translate(-1260.000000, -2090.000000)" fill-rule="nonzero">
            <g id="编组-19" transform="translate(0.000000, 1952.000000)">
                <g id="Follow-Us" transform="translate(1260.000000, 80.000000)">
                    <g id="Linkedin" transform="translate(0.000000, 58.000000)">
                        <circle id="Oval" fill="#007AB9" cx="11.9146195" cy="11.9144071" r="11.9146195"></circle>
                        <path d="M19.0334867,12.8731327 L19.0334867,17.7852743 L16.1855575,17.7852743 L16.1855575,13.2023363 C16.1855575,12.0516106 15.7743717,11.2657699 14.7432212,11.2657699 C13.9563186,11.2657699 13.4888496,11.7948319 13.2824071,12.307115 C13.2074336,12.4901947 13.1881062,12.7444248 13.1881062,13.0012035 L13.1881062,17.7850619 L10.3399646,17.7850619 C10.3399646,17.7850619 10.3781947,10.0230796 10.3399646,9.21961062 L13.1883186,9.21961062 L13.1883186,10.4334159 C13.1825841,10.4429735 13.1745133,10.4523186 13.1694159,10.4614513 L13.1883186,10.4614513 L13.1883186,10.4334159 C13.5667965,9.85104425 14.2417699,9.01847788 15.7550442,9.01847788 C17.6287434,9.01847788 19.0334867,10.2426903 19.0334867,12.8731327 L19.0334867,12.8731327 Z M7.36056637,5.09076106 C6.38633628,5.09076106 5.74895575,5.73026549 5.74895575,6.57047788 C5.74895575,7.39284956 6.36785841,8.05083186 7.32318584,8.05083186 L7.34166372,8.05083186 C8.33500885,8.05083186 8.95263717,7.39284956 8.95263717,6.57047788 C8.93373451,5.73026549 8.33500885,5.09076106 7.36056637,5.09076106 L7.36056637,5.09076106 Z M5.91823009,17.7852743 L8.76530973,17.7852743 L8.76530973,9.21961062 L5.91823009,9.21961062 L5.91823009,17.7852743 Z" id="Shape" fill="#F1F2F2"></path>
                    </g>
                </g>
            </g>
        </g>
    </g>
</svg>