<?xml version="1.0" encoding="UTF-8"?>
<svg width="208px" height="54px" viewBox="0 0 208 54" version="1.1" xmlns="http://www.w3.org/2000/svg" xmlns:xlink="http://www.w3.org/1999/xlink">
    <title>logo-m</title>
    <defs>
        <polygon id="path-1" points="0 64 203 64 203 0 0 0"></polygon>
        <path d="M0,3.3794257 C1.94054488,4.37684648 3.68503471,6.6097885 3.68503471,8.945774 L3.68503471,8.945774 C3.68503471,9.8621606 3.47897686,10.7295265 3.11487462,11.5048536 L3.11487462,11.5048536 C3.12687799,11.5198599 3.1418822,11.5348663 3.15388557,11.5488722 L3.15388557,11.5488722 C5.09042933,13.6697669 7.87921239,14.9993278 10.9810834,14.9993278 L10.9810834,14.9993278 C16.193547,14.9993278 20.5257634,11.2397418 21.411012,6.28265049 L21.411012,6.28265049 C19.80156,7.97336376 10.3889171,11.4458287 8.47137866,5.8294593 L8.47137866,5.8294593 C7.90121857,4.15775405 8.98352247,2.78317415 9.36162863,2.78317415 L9.36162863,2.78317415 L9.36162863,2.77917246 C9.24459577,2.77917246 9.12656263,2.78317415 9.01053005,2.78317415 L9.01053005,2.78317415 C8.14628738,2.78317415 7.30105005,2.69813828 6.48182002,2.5360699 L6.48182002,2.5360699 C5.27948242,2.2999703 4.13316054,1.89479937 3.0738631,1.35056977 L3.0738631,1.35056977 C2.43268307,1.02143092 1.4063949,0.428180639 0.833233962,0 L0.833233962,0 C0.379106449,1.05044316 0.090025278,2.18792303 0,3.3794257" id="path-3"></path>
        <linearGradient x1="10.0205321%" y1="35.9723058%" x2="99.4575487%" y2="67.3554896%" id="linearGradient-5">
            <stop stop-color="#D852F9" offset="0%"></stop>
            <stop stop-color="#2A52DD" offset="100%"></stop>
        </linearGradient>
        <path d="M0,3.50560666 C1.94154516,4.50402787 3.86447853,6.68636013 3.86447853,9.02234563 C3.86447853,9.93873223 3.76670048,10.7291731 3.40259824,11.5045002 C3.41460161,11.5195065 3.19854095,12.0340769 3.20954404,12.0490832 C5.14808836,14.1689775 8.20794753,15.0973692 11.3098185,15.0973692 C16.5222821,15.0973692 20.8544985,11.3377831 21.7397471,6.38069185 C21.7397471,6.38069185 16.5372863,14.8462633 8.47502252,11.0176481 C2.72040669,8.28549544 5.23411251,1.71272255 5.23411251,1.71272255 C5.23411251,1.71272255 3.54763897,1.52364279 3.40259824,1.44861113 C2.76141821,1.11947228 1.53407358,0.428180639 0.960912648,0 C0.507785415,1.05044316 0.218704245,2.31310358 0.127678686,3.50560666 L0,3.50560666 Z" id="path-6"></path>
        <linearGradient x1="50.0006998%" y1="74.1154675%" x2="53.6394184%" y2="42.0477315%" id="linearGradient-8">
            <stop stop-color="#D852F9" offset="0%"></stop>
            <stop stop-color="#2A67DD" offset="100%"></stop>
        </linearGradient>
        <path d="M1.36838423,1.58166727 C4.03413274,4.41686336 7.35506522,6.63079737 11.0841123,7.98736967 L11.0841123,7.98736967 C12.5315187,8.51359167 14.0419428,8.9097588 15.5973796,9.16186516 L15.5973796,9.16186516 C16.9247523,9.38195801 18.2871348,9.49500571 19.6755247,9.49500571 L19.6755247,9.49500571 C20.1936701,9.49500571 20.7108154,9.47999937 21.2199583,9.4449846 L21.2199583,9.4449846 C22.4292979,9.3769559 23.6126301,9.21588795 24.7689548,8.97678708 L24.7689548,8.97678708 C26.0883253,8.70767355 27.3726859,8.33251528 28.6090331,7.85931565 L28.6090331,7.85931565 C28.6370409,7.84731058 28.6700502,7.83830679 28.6980581,7.8253013 L28.6980581,7.8253013 C28.9411263,7.73226205 29.1811937,7.63722195 29.4202609,7.53617933 L29.4202609,7.53617933 C29.303228,7.54018101 29.1841946,7.54218186 29.0651612,7.54218186 L29.0651612,7.54218186 C27.7928039,7.54218186 26.5634587,7.36410673 25.3951307,7.0359683 L25.3951307,7.0359683 C23.9977383,6.64180201 22.6893709,6.02954371 21.5150412,5.23620903 L21.5150412,5.23620903 C20.6247912,4.63195411 19.8125631,3.92565614 19.0913606,3.13532271 L19.0913606,3.13532271 C17.5839374,3.73157426 15.9844883,4.1417473 14.3160198,4.33082707 L14.3160198,4.33082707 C14.3160198,4.33082707 14.3160198,4.33382833 14.3120186,4.33082707 L14.3120186,4.33082707 C14.2319962,4.34283213 14.1509734,4.35083551 14.0699507,4.35583762 L14.0699507,4.35583762 C13.440774,4.42386632 12.8025948,4.4548794 12.1544128,4.4548794 L12.1544128,4.4548794 C11.9113446,4.4548794 11.6692766,4.44987729 11.4292092,4.44087349 L11.4292092,4.44087349 C10.4619376,4.40585872 9.51367133,4.2958123 8.59041209,4.11773717 L8.59041209,4.11773717 C6.10271357,3.6425367 3.79006421,2.67612899 1.75449264,1.32155753 L1.75449264,1.32155753 C1.14532159,0.917387023 0.558156724,0.477201319 0,0 L0,0 C0.433121615,0.546230441 0.890249972,1.07545371 1.36838423,1.58166727" id="path-9"></path>
        <linearGradient x1="75.7400503%" y1="64.3896556%" x2="24.7844682%" y2="35.9016274%" id="linearGradient-11">
            <stop stop-color="#D852F9" offset="0%"></stop>
            <stop stop-color="#2A67DD" offset="100%"></stop>
        </linearGradient>
        <path d="M0.0760213459,0.0920388289 C0.764214582,0.905381958 6.24175261,6.97794382 16.4926309,6.9639621 L16.4926309,6.9639621 C18.5041958,6.96093665 20.6087867,6.53575727 22.6283538,5.90849265 L22.6283538,5.90849265 C22.2452462,5.70140528 21.874142,5.47831116 21.5150412,5.23620903 L21.5150412,5.23620903 C20.6247912,4.63195411 19.8125631,3.92565614 19.0913606,3.13532271 L19.0913606,3.13532271 C17.5839374,3.73157426 15.9844883,4.1417473 14.3160198,4.33082707 L14.3160198,4.33082707 C14.3160198,4.33082707 14.3160198,4.33382833 14.3120186,4.33082707 L14.3120186,4.33082707 C14.2319962,4.34283213 14.1509734,4.35083551 14.0699507,4.35583762 L14.0699507,4.35583762 C13.440774,4.42386632 12.8025948,4.4548794 12.1544128,4.4548794 L12.1544128,4.4548794 C11.9113446,4.4548794 11.6692766,4.44987729 11.4292092,4.44087349 L11.4292092,4.44087349 C10.4619376,4.40585872 9.51367133,4.2958123 8.59041209,4.11773717 L8.59041209,4.11773717 C6.10271357,3.6425367 3.79006421,2.67612899 1.75449264,1.32155753 L1.75449264,1.32155753 C1.14532159,0.917387023 0.558156724,0.477201319 4.4421394e-16,0 L4.4421394e-16,0 C0.0250070217,0.0310130836 0.0510143242,0.0600253232 0.0760213459,0.0920388289" id="path-12"></path>
        <linearGradient x1="9.95492441%" y1="47.991104%" x2="111.515379%" y2="53.1093293%" id="linearGradient-14">
            <stop stop-color="#D852F9" offset="0%"></stop>
            <stop stop-color="#2A52DD" offset="100%"></stop>
        </linearGradient>
        <path d="M5.29648719,0.59925281 C3.23990973,1.26153221 1.41939855,2.4540353 0,4.01269285 C0.804225817,3.83361731 1.63946034,3.74157848 2.49570076,3.74157848 C3.3669454,3.74157848 4.21518357,3.83561815 5.02841192,4.01769497 C6.32877705,4.30781736 7.54511858,4.81703219 8.63942585,5.50232129 C10.1478494,6.44772013 11.4232075,7.73126163 12.3604707,9.24590061 C13.1176833,8.89975458 13.9629206,8.70467228 14.8541709,8.70467228 C15.8464495,8.70467228 16.5446455,8.79471027 17.368877,9.21988964 C17.4599025,8.02638613 17.7489837,6.8909071 18.2021109,5.84046395 C16.5446455,4.60094102 15.5604433,3.13221865 14.5536083,1.25853094 C12.9171488,0.45319119 11.0380994,0 9.0915528,0 C8.55240141,0 8.02125227,0.0350147719 7.50110622,0.103043471 C6.74289332,0.199083989 6.00468604,0.367154893 5.29648719,0.59925281 Z" id="path-15"></path>
        <linearGradient x1="-0.000137385283%" y1="50.0021164%" x2="100.003125%" y2="50.0021164%" id="linearGradient-17">
            <stop stop-color="#D852F9" offset="0%"></stop>
            <stop stop-color="#2A52DD" offset="100%"></stop>
        </linearGradient>
        <path d="M2.7657766,4.626952 C3.48497854,5.41528457 4.29920717,6.12158254 5.1914577,6.72483704 L5.1914577,6.72483704 C6.36478716,7.51817173 7.67215425,8.13143045 9.06954662,8.52559674 L9.06954662,8.52559674 C10.2378747,8.85573601 11.4662196,9.03181029 12.7395771,9.03181029 L12.7395771,9.03181029 C12.8586105,9.03181029 12.977644,9.02880903 13.0946768,9.02580776 L13.0946768,9.02580776 C13.3377451,9.01980523 13.5788128,9.00880059 13.8148791,8.98779172 L13.8148791,8.98779172 C14.0209369,8.96778328 14.2299956,8.95677864 14.4370538,8.95677864 L14.4370538,8.95677864 C17.7959969,8.95677864 20.51376,11.6779266 20.51376,15.0373439 L20.51376,15.0373439 C20.51376,16.1198005 20.2326811,17.1352289 19.7365418,18.0145999 L19.7365418,18.0145999 C18.8002789,19.6833039 17.0958003,20.8648023 15.1032408,21.0778922 L15.1032408,21.0778922 C14.883179,21.1039032 14.6621169,21.1169087 14.4370538,21.1169087 L14.4370538,21.1169087 C14.0909566,21.1169087 13.7488605,21.086896 13.4167673,21.029872 L13.4167673,21.029872 L13.4137664,21.029872 C12.4995097,20.875807 11.6522718,20.5136542 10.9260679,19.996436 L10.9260679,19.996436 C10.3479056,19.6783018 9.80075194,19.3101465 9.28760785,18.9029747 L9.28760785,18.9029747 C9.3266188,18.9860097 9.3636292,19.0710456 9.40664127,19.1520798 L9.40664127,19.1520798 C10.3188974,21.0268707 11.6692766,22.646554 13.326742,23.8850765 L13.326742,23.8850765 C13.8999029,24.3122567 14.5100743,24.6954184 15.1522546,25.0255577 L15.1522546,25.0255577 C16.2105517,25.5697873 17.3568736,25.9739578 18.5592112,26.2100574 L18.5592112,26.2100574 C19.3784412,26.3721257 20.2226783,26.4571616 21.0889215,26.4571616 L21.0889215,26.4571616 C21.2039538,26.4571616 21.3229872,26.4541603 21.4380195,26.4541603 L21.4380195,26.4541603 C25.4561478,26.3461148 29.0201485,24.4132994 31.3307973,21.4600535 L31.3307973,21.4600535 C32.213045,20.3295765 32.9162425,19.0510372 33.3883751,17.6624513 L33.3883751,17.6624513 C33.8385015,16.3458959 34.0815697,14.9333 34.0815697,13.46368 L34.0815697,13.46368 C34.0815697,7.66623419 30.2835032,2.75616276 25.0420315,1.08545793 L25.0420315,1.08545793 C25.0420315,1.08545793 25.0420315,1.08545793 25.0410312,1.08545793 L25.0410312,1.08545793 C25.0420315,1.08545793 25.0410312,1.08545793 25.0420315,1.08545793 L25.0420315,1.08545793 C24.937002,1.04944273 24.8329728,1.01742923 24.726943,0.986416144 L24.726943,0.986416144 C24.3628408,0.882372251 23.9917366,0.791333844 23.6166313,0.718303034 L23.6166313,0.718303034 C22.7974012,0.555234239 21.9531642,0.472199209 21.0889215,0.472199209 L21.0889215,0.472199209 C19.7425435,0.472199209 18.4431786,0.67728573 17.2268371,1.05444484 L17.2268371,1.05444484 C17.2108326,1.05844653 17.1968287,1.06444906 17.1858256,1.0704516 L17.1858256,1.0704516 C16.9977728,1.13547903 16.80972,1.20050646 16.6226674,1.26053179 L16.6226674,1.26053179 C14.4870678,1.96082722 12.2044269,2.33998718 9.83576177,2.33998718 L9.83576177,2.33998718 C9.02853511,2.33998718 8.23331182,2.29696903 7.45209246,2.20893189 L7.45209246,2.20893189 C7.34406213,2.19792725 7.23803235,2.18692261 7.13000202,2.17191628 L7.13000202,2.17191628 C4.5902889,1.8597846 2.18961482,1.10746721 0,0 L0,0 C0.608170767,1.72872931 1.55443647,3.29739109 2.7657766,4.626952" id="path-18"></path>
        <linearGradient x1="15.1013187%" y1="50.0000015%" x2="94.6044429%" y2="50.0000015%" id="linearGradient-20">
            <stop stop-color="#D852F9" offset="0%"></stop>
            <stop stop-color="#2A67DD" offset="100%"></stop>
        </linearGradient>
        <path d="M0,0 L0.00500140434,0.00800337642 C0.0620174138,0.124052335 0.752211212,2.75616276 4.39623441,4.38985197 L4.39623441,4.38985197 C7.988243,5.99853063 10.7070064,5.73541963 13.5948173,5.47230863 L13.5948173,5.47230863 C15.2402793,5.32224532 16.9397565,5.17218201 18.8893039,5.36726431 L18.8893039,5.36726431 C29.0671617,6.39069607 30.5365743,19.9484157 21.9841729,22.6355494 L21.9841729,22.6355494 C12.9416339,25.4777484 9.40664127,19.1520798 9.40664127,19.1520798 L9.40664127,19.1520798 C10.3188974,21.0268707 11.6692766,22.646554 13.326742,23.8850765 L13.326742,23.8850765 C13.8999029,24.3122567 14.5100743,24.6954184 15.1522546,25.0255577 L15.1522546,25.0255577 C16.2105517,25.5697873 17.3568736,25.9739578 18.5592112,26.2100574 L18.5592112,26.2100574 C19.3784412,26.3721257 20.2226783,26.4571616 21.0889215,26.4571616 L21.0889215,26.4571616 C21.2039538,26.4571616 21.3229872,26.4541603 21.4380195,26.4541603 L21.4380195,26.4541603 C25.4561478,26.3461148 29.0201485,24.4132994 31.3307973,21.4600535 L31.3307973,21.4600535 C32.213045,20.3295765 32.9162425,19.0510372 33.3883751,17.6624513 L33.3883751,17.6624513 C33.8385015,16.3458959 34.0815697,14.9333 34.0815697,13.46368 L34.0815697,13.46368 C34.0815697,7.66623419 30.2835032,2.75616276 25.0420315,1.08545793 L25.0420315,1.08545793 C25.0420315,1.08545793 25.0420315,1.08545793 25.0410312,1.08545793 L25.0410312,1.08545793 C25.0420315,1.08545793 25.0410312,1.08545793 25.0420315,1.08545793 L25.0420315,1.08545793 C24.937002,1.04944273 24.8329728,1.01742923 24.726943,0.986416144 L24.726943,0.986416144 C24.3628408,0.882372251 23.9917366,0.791333844 23.6166313,0.718303034 L23.6166313,0.718303034 C22.7974012,0.555234239 21.9531642,0.472199209 21.0889215,0.472199209 L21.0889215,0.472199209 C19.7425435,0.472199209 18.4431786,0.67728573 17.2268371,1.05444484 L17.2268371,1.05444484 C17.2108326,1.05844653 17.1968287,1.06444906 17.1858256,1.0704516 L17.1858256,1.0704516 C16.9977728,1.13547903 16.80972,1.20050646 16.6226674,1.26053179 L16.6226674,1.26053179 C14.4870678,1.96182765 12.2044269,2.33998718 9.83576177,2.33998718 L9.83576177,2.33998718 C9.02853511,2.33998718 8.23331182,2.29696903 7.45209246,2.20893189 L7.45209246,2.20893189 C7.34406213,2.19792725 7.23803235,2.18692261 7.13000202,2.17191628 L7.13000202,2.17191628 C4.5902889,1.8597846 2.18961482,1.10846763 0.00100028087,0 L0.00100028087,0 L0,0 Z" id="path-21"></path>
        <linearGradient x1="18.7509591%" y1="26.0927474%" x2="89.9397353%" y2="80.5545939%" id="linearGradient-23">
            <stop stop-color="#D852F9" offset="0%"></stop>
            <stop stop-color="#2A52DD" offset="100%"></stop>
        </linearGradient>
        <path d="M0.0770216268,1.21951448 C0.0520146051,1.2475263 0.0250070217,1.27253685 0,1.29954825 L0,1.29954825 C0.804225817,1.1204727 1.63946034,1.02843387 2.49570076,1.02843387 L2.49570076,1.02843387 C3.3669454,1.02843387 4.21518357,1.12247354 5.02841192,1.30455036 L5.02841192,1.30455036 C6.32877705,1.59467275 7.54511858,2.10388758 8.63942585,2.78917668 L8.63942585,2.78917668 C10.1478494,3.73457552 11.5292373,5.23620903 12.4665004,6.75084801 L12.4665004,6.75084801 C13.2247133,6.40470198 13.9629206,5.99152768 14.8541709,5.99152768 L14.8541709,5.99152768 C15.2202737,5.99152768 15.5793745,6.02554203 15.9274722,6.08956904 L15.9274722,6.08956904 L15.9484781,6.03154456 C15.9484781,6.03154456 13.3937608,1.07745455 7.97323879,0.216091163 L7.97323879,0.216091163 C7.01196888,0.0620261673 6.12572003,0 5.32149421,0 L5.32149421,0 C2.27263813,0 0.406114032,0.903381114 0.0770216268,1.21951448" id="path-24"></path>
        <linearGradient x1="5.08080281%" y1="50.0011203%" x2="97.1681968%" y2="50.0011203%" id="linearGradient-26">
            <stop stop-color="#2A67DD" offset="0%"></stop>
            <stop stop-color="#D852F9" offset="100%"></stop>
        </linearGradient>
        <path d="M0.0770216268,1.21951448 C0.0520146051,1.2475263 0.0250070217,1.27253685 0,1.29954825 L0,1.29954825 C0.804225817,1.1204727 1.63946034,1.02843387 2.49570076,1.02843387 L2.49570076,1.02843387 C3.3669454,1.02843387 4.21518357,1.12247354 5.02841192,1.30455036 L5.02841192,1.30455036 C6.32877705,1.59467275 7.54511858,2.10388758 8.63942585,2.78917668 L8.63942585,2.78917668 C10.1478494,3.73457552 11.5292373,5.23620903 12.4665004,6.75084801 L12.4665004,6.75084801 C13.2247133,6.40470198 13.9629206,5.99152768 14.8541709,5.99152768 L14.8541709,5.99152768 C15.2202737,5.99152768 15.5793745,6.02554203 15.9274722,6.08956904 L15.9274722,6.08956904 L15.9484781,6.03154456 C15.9484781,6.03154456 13.3937608,1.07745455 7.97323879,0.216091163 L7.97323879,0.216091163 C7.01196888,0.0620261673 6.12572003,0 5.32149421,0 L5.32149421,0 C2.27263813,0 0.406114032,0.903381114 0.0770216268,1.21951448" id="path-27"></path>
        <linearGradient x1="4.97106184%" y1="42.0613806%" x2="97.2825847%" y2="58.3359404%" id="linearGradient-29">
            <stop stop-color="#D852F9" offset="0%"></stop>
            <stop stop-color="#2A67DD" offset="100%"></stop>
        </linearGradient>
        <path d="M3.52298921,0.540227909 C1.44240501,1.48562675 0,3.58751348 0,6.02154034 L0,6.02154034 C0,6.04154878 0,6.05855595 0.00200056173,6.07756397 L0.00200056173,6.07756397 C1.21534125,4.85304738 2.90081451,4.09072577 4.76133693,4.09072577 L4.76133693,4.09072577 C4.82935603,4.09072577 4.89837541,4.09072577 4.96539422,4.09672831 L4.96539422,4.09672831 C7.15901017,4.1597549 9.08555112,5.27522549 10.2578803,6.95793538 L10.2578803,6.95793538 C10.2628817,6.96393791 10.2648823,6.96994044 10.2678831,6.97494255 L10.2678831,6.97494255 C10.3689115,7.11400122 10.4619376,7.25906242 10.5469615,7.40712488 L10.5469615,7.40712488 L10.5479617,7.41012615 C10.8440449,7.91033717 11.0741095,8.45356635 11.2311536,9.02680818 L11.2311536,9.02680818 C11.3151772,8.88074656 11.3931991,8.73468495 11.4652193,8.58061995 L11.4652193,8.58061995 C11.8293215,7.80529286 12.0353794,6.93792694 12.0353794,6.02154034 L12.0353794,6.02154034 C12.0353794,3.68555484 10.7080067,1.66370187 8.76646152,0.666281087 L8.76646152,0.666281087 C7.94223008,0.240101293 7.00896804,0 6.01668942,0 L6.01668942,0 C5.12543916,0 4.28120211,0.194081878 3.52298921,0.540227909" id="path-30"></path>
        <linearGradient x1="78.7377178%" y1="87.3362265%" x2="21.2641572%" y2="12.6630784%" id="linearGradient-32">
            <stop stop-color="#D852F9" offset="0%"></stop>
            <stop stop-color="#2A52DD" offset="100%"></stop>
        </linearGradient>
        <path d="M0,3.84462195 C1.21334069,2.62010536 2.89881395,1.85778375 4.75933637,1.85778375 L4.75933637,1.85778375 C4.82735546,1.85778375 4.89637484,1.85778375 4.96339366,1.86378628 L4.96339366,1.86378628 C7.1570096,1.92681287 9.08355055,3.04228346 10.2558797,4.72499336 L10.2558797,4.72499336 C10.2608811,4.73099589 10.2628817,4.73699842 10.2658825,4.74200053 L10.2658825,4.74200053 C10.3669109,4.8810592 10.459937,5.02612039 10.5449609,5.17418286 L10.5449609,5.17418286 L10.5459612,5.17718412 C10.8420443,5.67739515 11.0721089,6.22062433 11.229153,6.79386616 L11.229153,6.79386616 C11.229153,6.79386616 11.6952839,0 5.61457651,0 L5.61457651,0 C1.10931148,0 0,3.84462195 0,3.84462195" id="path-33"></path>
        <linearGradient x1="0.000259919792%" y1="50.0011618%" x2="100.018774%" y2="50.0011618%" id="linearGradient-35">
            <stop stop-color="#D852F9" offset="0%"></stop>
            <stop stop-color="#2A67DD" offset="100%"></stop>
        </linearGradient>
        <path d="M0,0 C0.582163465,3.21235521 2.8858103,5.94350742 6.0907102,6.98694762 L6.0907102,6.98694762 C6.44580991,7.10199615 6.8119127,7.19703625 7.18901859,7.27006706 L7.18901859,7.27006706 C9.87277216,7.78528442 12.5045111,7.05697716 14.4920692,5.49131665 L14.4920692,5.49131665 L14.4940698,5.49431792 C15.5083546,4.72199209 16.80972,4.33983087 18.1540975,4.5139043 L18.1540975,4.5139043 C17.8019986,3.87163335 17.3388685,3.29238898 16.7887141,2.80418301 L16.7887141,2.80418301 C15.9484781,2.05686774 14.9051852,1.52464321 13.7268543,1.2975474 L13.7268543,1.2975474 C12.258442,1.01542838 10.809035,1.25552968 9.57468846,1.88979726 L9.57468846,1.88979726 L9.56968705,1.87979304 C8.06026323,2.65912182 6.28676525,2.95524674 4.48725997,2.61010114 L4.48725997,2.61010114 C2.66874935,2.26095384 1.11531317,1.30955247 0,0 Z" id="path-36"></path>
        <linearGradient x1="0%" y1="52.3651312%" x2="99.9997592%" y2="52.3651312%" id="linearGradient-38">
            <stop stop-color="#D852F9" offset="0%"></stop>
            <stop stop-color="#2A52DD" offset="100%"></stop>
        </linearGradient>
        <path d="M0,0 C0.582163465,3.21235521 2.99684148,6.93792694 7.19001887,7.59520423 L7.19001887,7.59520423 C10.3058938,8.08441061 12.5045111,7.05697716 14.4920692,5.49131665 L14.4920692,5.49131665 L14.4940698,5.49431792 C15.5083546,4.72199209 16.80972,4.33983087 18.1540975,4.5139043 L18.1540975,4.5139043 C18.1540975,4.5139043 15.4153284,2.65512013 12.7265735,3.30839573 L12.7265735,3.30839573 C9.86777075,4.00168821 9.07854915,5.36426305 6.86392731,5.34525503 L6.86392731,5.34525503 C1.85252017,5.30423773 0,0 0,0 Z" id="path-39"></path>
        <linearGradient x1="0%" y1="52.3800096%" x2="99.9997592%" y2="52.3800096%" id="linearGradient-41">
            <stop stop-color="#D852F9" offset="0%"></stop>
            <stop stop-color="#2A67DD" offset="100%"></stop>
        </linearGradient>
        <path d="M1.11069442,5.95351164 C1.24873318,6.13158676 1.40077587,6.30465978 1.56482193,6.468729 L1.56482193,6.468729 C2.7691601,7.66923546 4.40461931,8.17344817 5.97205943,7.98336798 L5.97205943,7.98336798 L5.97305971,7.99637347 C6.70326475,7.89232958 7.46747933,8.05940006 8.09665599,8.50458787 L8.09665599,8.50458787 C8.15467229,8.09041314 8.14566976,7.67323715 8.06864813,7.26406453 L8.06864813,7.26406453 C7.93160965,6.53575727 7.58051107,5.84046395 7.01635266,5.27922717 L7.01635266,5.27922717 C6.39317768,4.65696466 5.6079572,4.29681272 4.79372857,4.19877136 L4.79372857,4.19877136 L4.79572913,4.1917684 C3.80144995,4.07571944 2.8371792,3.63453332 2.07396489,2.87221171 L2.07396489,2.87221171 C1.27073936,2.07087365 0.823613811,1.04944273 0.732588252,0 L0.732588252,0 C-0.356717612,1.85278164 -0.231682504,4.22078064 1.11069442,5.95351164" id="path-42"></path>
        <linearGradient x1="0.0565601711%" y1="50.0017798%" x2="100.065126%" y2="50.0017798%" id="linearGradient-44">
            <stop stop-color="#D852F9" offset="0%"></stop>
            <stop stop-color="#2A52DD" offset="100%"></stop>
        </linearGradient>
        <path d="M0.194284174,1.27553812 C-0.243838846,2.85620496 0.0582459762,4.59894018 1.10854089,5.95351164 L1.10854089,5.95351164 C1.24657965,6.13158676 1.39862234,6.30465978 1.5626684,6.468729 L1.5626684,6.468729 C2.76700656,7.66923546 4.40246578,8.17344817 5.9699059,7.98336798 L5.9699059,7.98336798 L5.97090618,7.99637347 C6.70111121,7.89232958 7.4653258,8.05940006 8.09450246,8.50458787 L8.09450246,8.50458787 C8.09450246,8.50458787 6.88716346,6.93092398 5.65381715,6.3056602 L5.65381715,6.3056602 C4.20841129,5.57235084 2.76200516,6.04154878 1.31759959,4.55492161 L1.31759959,4.55492161 C-0.172818904,3.02427587 0.730434719,0 0.730434719,0 L0.730434719,0 C0.730434719,0 0.511373209,0.518218623 0.194284174,1.27553812" id="path-45"></path>
        <linearGradient x1="0.0162442428%" y1="50.0017798%" x2="99.9959059%" y2="50.0017798%" id="linearGradient-47">
            <stop stop-color="#D852F9" offset="0%"></stop>
            <stop stop-color="#2A67DD" offset="100%"></stop>
        </linearGradient>
    </defs>
    <g id="logo-m" stroke="none" stroke-width="1" fill="none" fill-rule="evenodd">
        <g id="编组备份-5" transform="translate(2.000000, -5.000000)">
            <g id="编组">
                <path d="M69.5793371,29.5694746 L69.5793371,35.1708377 L71.6139083,35.1708377 C72.5841808,35.1708377 73.3654001,34.8877183 73.9555658,34.3224798 C74.5457316,33.7582418 74.8408144,33.0529442 74.8408144,32.2065872 C74.8408144,30.4488456 73.7905195,29.5694746 71.6889294,29.5694746 L69.5793371,29.5694746 Z M81.4836797,45.8703516 L76.7113396,45.8703516 L73.660483,40.8092164 C73.0323066,39.7627749 72.5181622,39.0894909 72.1160493,38.7873634 C71.7139364,38.4862364 71.2868165,38.3351727 70.8346895,38.3351727 L69.5793371,38.3351727 L69.5793371,45.8703516 L65.4351734,45.8703516 L65.4351734,26.4171447 L72.2540881,26.4171447 C76.8833879,26.4171447 79.1980379,28.1758867 79.1980379,31.6923702 C79.1980379,33.0149282 78.8109292,34.1494068 78.0367118,35.095806 C77.2624944,36.0412049 76.1971953,36.707486 74.8408144,37.0926485 L74.8408144,37.1426696 C75.7360658,37.4437966 76.7283444,38.4322136 77.81665,40.1059197 L81.4836797,45.8703516 Z" id="Fill-1" fill="#FFFFFF"></path>
                <path d="M91.6442326,37.5317337 C91.6442326,35.4558579 90.8029964,34.4174198 89.120524,34.4174198 C88.4253288,34.4174198 87.8101561,34.7015397 87.2740055,35.2707799 C86.7388552,35.8410204 86.4037612,36.5943382 86.2697235,37.5317337 L91.6442326,37.5317337 Z M95.424294,40.068804 L86.2827272,40.068804 C86.4247671,42.2207119 87.7221313,43.2961656 90.17482,43.2961656 C91.7072503,43.2961656 93.0586298,42.9190065 94.2309589,42.1656886 L94.2309589,45.1419443 C92.9666039,45.8542448 91.3091385,46.2093946 89.2585627,46.2093946 C87.0489423,46.2093946 85.3304598,45.5861316 84.1041154,44.3386053 C82.8777711,43.091079 82.2645989,41.3543464 82.2645989,39.1264065 C82.2645989,36.9084708 82.9177823,35.1057102 84.2231489,33.7201257 C85.5295157,32.3345411 87.1699763,31.6412487 89.145531,31.6412487 C91.1130835,31.6412487 92.6515155,32.2385006 93.7608269,33.4310037 C94.8691381,34.6245072 95.424294,36.2631985 95.424294,38.3480781 L95.424294,40.068804 Z" id="Fill-3" fill="#FFFFFF"></path>
                <path d="M110.878033,31.9807919 L105.66657,45.8706517 L101.083283,45.8706517 L96.1238905,31.9807919 L100.46811,31.9807919 L103.017826,40.7214794 C103.293904,41.675882 103.447947,42.4762197 103.481957,43.1204915 L103.544974,43.1204915 C103.611993,42.4592125 103.775039,41.6848858 104.034112,40.7975115 L106.633842,31.9807919 L110.878033,31.9807919 Z" id="Fill-5" fill="#FFFFFF"></path>
                <path d="M116.026479,38.9383271 C116.026479,41.7094962 117.156796,43.0950807 119.416431,43.0950807 C121.58504,43.0950807 122.669344,41.6724806 122.669344,38.8252794 C122.669344,36.1131352 121.577037,34.7565629 119.391424,34.7565629 C118.328125,34.7565629 117.501893,35.1207166 116.911727,35.8490238 C116.321562,36.5773311 116.026479,37.6067654 116.026479,38.9383271 M111.920326,38.9883482 C111.920326,36.7033842 112.604518,34.9066262 113.972902,33.6010755 C115.342287,32.2945243 117.181803,31.6412487 119.492452,31.6412487 C121.72708,31.6412487 123.501578,32.28452 124.815947,33.5690619 C126.130316,34.8546043 126.7875,36.5813327 126.7875,38.7502478 C126.7875,41.0272084 126.113311,42.8399731 124.765933,44.1875416 C123.418554,45.5361105 121.593042,46.2093946 119.291396,46.2093946 C117.030761,46.2093946 115.237257,45.5631219 113.910885,44.2695762 C112.583512,42.9760305 111.920326,41.2152877 111.920326,38.9883482" id="Fill-7" fill="#FFFFFF"></path>
                <mask id="mask-2" fill="white">
                    <use xlink:href="#path-1"></use>
                </mask>
                <g id="Clip-10"></g>
                <polygon id="Fill-9" fill="#FFFFFF" mask="url(#mask-2)" points="129.690416 45.8703516 133.733551 45.8703516 133.733551 25.3116784 129.690416 25.3116784"></polygon>
                <path d="M150.475452,45.8707517 L146.44532,45.8707517 L146.44532,43.7478561 L146.382302,43.7478561 C145.344011,45.3895487 143.924612,46.2098948 142.125107,46.2098948 C138.8942,46.2098948 137.277746,44.2590718 137.277746,40.3574258 L137.277746,31.9808919 L141.333885,31.9808919 L141.333885,39.9802667 C141.333885,42.0571429 142.146113,43.0955809 143.770569,43.0955809 C144.581797,43.0955809 145.230979,42.8104607 145.716115,42.2412205 C146.202252,41.6719804 146.44532,40.9016554 146.44532,39.9302456 L146.44532,31.9808919 L150.475452,31.9808919 L150.475452,45.8707517 Z" id="Fill-11" fill="#FFFFFF" mask="url(#mask-2)"></path>
                <path d="M162.458016,45.7074828 C161.846845,46.0426242 160.921585,46.2096947 159.683237,46.2096947 C156.73641,46.2096947 155.262996,44.6610414 155.262996,41.5627343 L155.262996,35.0069686 L152.977354,35.0069686 L152.977354,31.9806919 L155.262996,31.9806919 L155.262996,28.9294046 L159.293128,27.7739171 L159.293128,31.9806919 L162.458016,31.9806919 L162.458016,35.0069686 L159.293128,35.0069686 L159.293128,40.8594376 C159.293128,42.3420631 159.879292,43.0823754 161.051621,43.0823754 C161.503748,43.0823754 161.97288,42.9493192 162.458016,42.6812061 L162.458016,45.7074828 Z" id="Fill-12" fill="#FFFFFF" mask="url(#mask-2)"></path>
                <path d="M164.997329,45.8703516 L169.040465,45.8703516 L169.040465,31.9804918 L164.997329,31.9804918 L164.997329,45.8703516 Z M164.696245,27.4976006 C164.696245,26.8773389 164.916307,26.3731262 165.35543,25.983962 C165.794553,25.5947978 166.357711,25.3997155 167.043904,25.3997155 C167.747101,25.3997155 168.316261,25.5987995 168.752384,25.9969675 C169.187506,26.394135 169.405567,26.8943461 169.405567,27.4976006 C169.405567,28.1088584 169.183505,28.6170728 168.73938,29.0232442 C168.295255,29.4294155 167.731097,29.6325012 167.043904,29.6325012 C166.365714,29.6325012 165.805556,29.4274147 165.361432,29.0172416 C164.917307,28.6070686 164.696245,28.0998546 164.696245,27.4976006 L164.696245,27.4976006 Z" id="Fill-13" fill="#FFFFFF" mask="url(#mask-2)"></path>
                <path d="M176.07574,38.9383271 C176.07574,41.7094962 177.206057,43.0950807 179.465692,43.0950807 C181.634301,43.0950807 182.718605,41.6724806 182.718605,38.8252794 C182.718605,36.1131352 181.626299,34.7565629 179.440685,34.7565629 C178.377386,34.7565629 177.551154,35.1207166 176.960989,35.8490238 C176.370823,36.5773311 176.07574,37.6067654 176.07574,38.9383271 M171.969587,38.9883482 C171.969587,36.7033842 172.653779,34.9066262 174.022163,33.6010755 C175.391548,32.2945243 177.231064,31.6412487 179.541713,31.6412487 C181.776341,31.6412487 183.550839,32.28452 184.865208,33.5690619 C186.179577,34.8546043 186.836762,36.5813327 186.836762,38.7502478 C186.836762,41.0272084 186.162572,42.8399731 184.815194,44.1875416 C183.467816,45.5361105 181.642303,46.2093946 179.340657,46.2093946 C177.080022,46.2093946 175.286518,45.5631219 173.960146,44.2695762 C172.632773,42.9760305 171.969587,41.2152877 171.969587,38.9883482" id="Fill-14" fill="#FFFFFF" mask="url(#mask-2)"></path>
                <path d="M203.0005,45.8707517 L198.969368,45.8707517 L198.969368,38.1224829 C198.969368,35.8785363 198.161141,34.7560627 196.545688,34.7560627 C195.775471,34.7560627 195.135292,35.0561893 194.625148,35.6544417 C194.114005,36.2526941 193.858933,37.0170166 193.858933,37.9464086 L193.858933,45.8707517 L189.802794,45.8707517 L189.802794,31.9808919 L193.858933,31.9808919 L193.858933,34.1908243 L193.908947,34.1908243 C194.922232,32.4911072 196.41165,31.6417489 198.379203,31.6417489 C201.460068,31.6417489 203.0005,33.5505541 203.0005,37.3681647 L203.0005,45.8707517 Z" id="Fill-15" fill="#FFFFFF" mask="url(#mask-2)"></path>
            </g>
            <g id="编组" transform="translate(31.846942, 40.426055)">
                <mask id="mask-4" fill="white">
                    <use xlink:href="#path-3"></use>
                </mask>
                <g id="Clip-17"></g>
                <path d="M0,3.3794257 C1.94054488,4.37684648 3.68503471,6.6097885 3.68503471,8.945774 L3.68503471,8.945774 C3.68503471,9.8621606 3.47897686,10.7295265 3.11487462,11.5048536 L3.11487462,11.5048536 C3.12687799,11.5198599 3.1418822,11.5348663 3.15388557,11.5488722 L3.15388557,11.5488722 C5.09042933,13.6697669 7.87921239,14.9993278 10.9810834,14.9993278 L10.9810834,14.9993278 C16.193547,14.9993278 20.5257634,11.2397418 21.411012,6.28265049 L21.411012,6.28265049 C19.80156,7.97336376 10.3889171,11.4458287 8.47137866,5.8294593 L8.47137866,5.8294593 C7.90121857,4.15775405 8.98352247,2.78317415 9.36162863,2.78317415 L9.36162863,2.78317415 L9.36162863,2.77917246 C9.24459577,2.77917246 9.12656263,2.78317415 9.01053005,2.78317415 L9.01053005,2.78317415 C8.14628738,2.78317415 7.30105005,2.69813828 6.48182002,2.5360699 L6.48182002,2.5360699 C5.27948242,2.2999703 4.13316054,1.89479937 3.0738631,1.35056977 L3.0738631,1.35056977 C2.43268307,1.02143092 1.4063949,0.428180639 0.833233962,0 L0.833233962,0 C0.379106449,1.05044316 0.090025278,2.18792303 0,3.3794257" id="Fill-16" fill="url(#linearGradient-5)" mask="url(#mask-4)"></path>
            </g>
            <g id="编组" transform="translate(31.518207, 40.328013)">
                <mask id="mask-7" fill="white">
                    <use xlink:href="#path-6"></use>
                </mask>
                <g id="Clip-19"></g>
                <path d="M0.127678686,3.50560666 C2.06922385,4.50402787 3.96225659,6.97335749 3.86447853,9.02234563 C3.76670048,11.0713338 3.76670048,10.6684647 3.40259824,11.4437918 C3.41460161,11.4587981 3.19854095,12.0340769 3.20954404,12.0490832 C5.14808836,14.1689775 8.20794753,15.0973692 11.3098185,15.0973692 C16.5222821,15.0973692 20.8544985,11.3377831 21.7397471,6.38069185 C21.7397471,6.38069185 16.5372863,14.8462633 8.47502252,11.0176481 C2.72040669,8.28549544 5.23411251,1.71272255 5.23411251,1.71272255 C5.23411251,1.71272255 3.54763897,1.52364279 3.40259824,1.44861113 C2.76141821,1.11947228 1.53407358,0.428180639 0.960912648,0 C0.507785415,1.05044316 0.0910255589,2.31310358 0,3.50560666 L0.127678686,3.50560666 Z" id="Fill-18" fill="url(#linearGradient-8)" mask="url(#mask-7)"></path>
            </g>
            <g id="编组" transform="translate(3.443967, 18.241696)">
                <mask id="mask-10" fill="white">
                    <use xlink:href="#path-9"></use>
                </mask>
                <g id="Clip-25"></g>
                <path d="M1.36838423,1.58166727 C4.03413274,4.41686336 7.35506522,6.63079737 11.0841123,7.98736967 L11.0841123,7.98736967 C12.5315187,8.51359167 14.0419428,8.9097588 15.5973796,9.16186516 L15.5973796,9.16186516 C16.9247523,9.38195801 18.2871348,9.49500571 19.6755247,9.49500571 L19.6755247,9.49500571 C20.1936701,9.49500571 20.7108154,9.47999937 21.2199583,9.4449846 L21.2199583,9.4449846 C22.4292979,9.3769559 23.6126301,9.21588795 24.7689548,8.97678708 L24.7689548,8.97678708 C26.0883253,8.70767355 27.3726859,8.33251528 28.6090331,7.85931565 L28.6090331,7.85931565 C28.6370409,7.84731058 28.6700502,7.83830679 28.6980581,7.8253013 L28.6980581,7.8253013 C28.9411263,7.73226205 29.1811937,7.63722195 29.4202609,7.53617933 L29.4202609,7.53617933 C29.303228,7.54018101 29.1841946,7.54218186 29.0651612,7.54218186 L29.0651612,7.54218186 C27.7928039,7.54218186 26.5634587,7.36410673 25.3951307,7.0359683 L25.3951307,7.0359683 C23.9977383,6.64180201 22.6893709,6.02954371 21.5150412,5.23620903 L21.5150412,5.23620903 C20.6247912,4.63195411 19.8125631,3.92565614 19.0913606,3.13532271 L19.0913606,3.13532271 C17.5839374,3.73157426 15.9844883,4.1417473 14.3160198,4.33082707 L14.3160198,4.33082707 C14.3160198,4.33082707 14.3160198,4.33382833 14.3120186,4.33082707 L14.3120186,4.33082707 C14.2319962,4.34283213 14.1509734,4.35083551 14.0699507,4.35583762 L14.0699507,4.35583762 C13.440774,4.42386632 12.8025948,4.4548794 12.1544128,4.4548794 L12.1544128,4.4548794 C11.9113446,4.4548794 11.6692766,4.44987729 11.4292092,4.44087349 L11.4292092,4.44087349 C10.4619376,4.40585872 9.51367133,4.2958123 8.59041209,4.11773717 L8.59041209,4.11773717 C6.10271357,3.6425367 3.79006421,2.67612899 1.75449264,1.32155753 L1.75449264,1.32155753 C1.14532159,0.917387023 0.558156724,0.477201319 0,0 L0,0 C0.433121615,0.546230441 0.890249972,1.07545371 1.36838423,1.58166727" id="Fill-24" fill="url(#linearGradient-11)" mask="url(#mask-10)"></path>
            </g>
            <g id="编组" transform="translate(3.443967, 18.241696)">
                <mask id="mask-13" fill="white">
                    <use xlink:href="#path-12"></use>
                </mask>
                <g id="Clip-29"></g>
                <path d="M0.0760213459,0.0920388289 C0.764214582,0.905381958 6.24175261,6.97794382 16.4926309,6.9639621 L16.4926309,6.9639621 C18.5041958,6.96093665 20.6087867,6.53575727 22.6283538,5.90849265 L22.6283538,5.90849265 C22.2452462,5.70140528 21.874142,5.47831116 21.5150412,5.23620903 L21.5150412,5.23620903 C20.6247912,4.63195411 19.8125631,3.92565614 19.0913606,3.13532271 L19.0913606,3.13532271 C17.5839374,3.73157426 15.9844883,4.1417473 14.3160198,4.33082707 L14.3160198,4.33082707 C14.3160198,4.33082707 14.3160198,4.33382833 14.3120186,4.33082707 L14.3120186,4.33082707 C14.2319962,4.34283213 14.1509734,4.35083551 14.0699507,4.35583762 L14.0699507,4.35583762 C13.440774,4.42386632 12.8025948,4.4548794 12.1544128,4.4548794 L12.1544128,4.4548794 C11.9113446,4.4548794 11.6692766,4.44987729 11.4292092,4.44087349 L11.4292092,4.44087349 C10.4619376,4.40585872 9.51367133,4.2958123 8.59041209,4.11773717 L8.59041209,4.11773717 C6.10271357,3.6425367 3.79006421,2.67612899 1.75449264,1.32155753 L1.75449264,1.32155753 C1.14532159,0.917387023 0.558156724,0.477201319 4.4421394e-16,0 L4.4421394e-16,0 C0.0250070217,0.0310130836 0.0510143242,0.0600253232 0.0760213459,0.0920388289" id="Fill-28" fill="url(#linearGradient-14)" mask="url(#mask-13)"></path>
            </g>
            <g id="编组" transform="translate(14.277009, 34.753662)">
                <mask id="mask-16" fill="white">
                    <use xlink:href="#path-15"></use>
                </mask>
                <g id="Clip-31"></g>
                <path d="M5.29648719,0.59925281 C3.23990973,1.26153221 1.41939855,2.4540353 0,4.01269285 C0.804225817,3.83361731 1.63946034,3.74157848 2.49570076,3.74157848 C3.3669454,3.74157848 4.21518357,3.83561815 5.02841192,4.01769497 C6.32877705,4.30781736 7.54511858,4.81703219 8.63942585,5.50232129 C10.1478494,6.44772013 11.4232075,7.73126163 12.3604707,9.24590061 C13.1176833,8.89975458 13.9629206,8.70467228 14.8541709,8.70467228 C15.8464495,8.70467228 16.5446455,8.79471027 17.368877,9.21988964 C17.4599025,8.02638613 17.7489837,6.8909071 18.2021109,5.84046395 C16.5446455,4.60094102 15.4658644,3.13332187 14.5536083,1.25853094 C12.9171488,0.45319119 11.0380994,0 9.0915528,0 C8.55240141,0 8.02125227,0.0350147719 7.50110622,0.103043471 C6.74289332,0.199083989 6.00468604,0.367154893 5.29648719,0.59925281 Z" id="Fill-30" fill="url(#linearGradient-17)" mask="url(#mask-16)"></path>
            </g>
            <g id="编组" transform="translate(19.480470, 17.041189)">
                <mask id="mask-19" fill="white">
                    <use xlink:href="#path-18"></use>
                </mask>
                <g id="Clip-33"></g>
                <path d="M2.7657766,4.626952 C3.48497854,5.41528457 4.29920717,6.12158254 5.1914577,6.72483704 L5.1914577,6.72483704 C6.36478716,7.51817173 7.67215425,8.13143045 9.06954662,8.52559674 L9.06954662,8.52559674 C10.2378747,8.85573601 11.4662196,9.03181029 12.7395771,9.03181029 L12.7395771,9.03181029 C12.8586105,9.03181029 12.977644,9.02880903 13.0946768,9.02580776 L13.0946768,9.02580776 C13.3377451,9.01980523 13.5788128,9.00880059 13.8148791,8.98779172 L13.8148791,8.98779172 C14.0209369,8.96778328 14.2299956,8.95677864 14.4370538,8.95677864 L14.4370538,8.95677864 C17.7959969,8.95677864 20.51376,11.6779266 20.51376,15.0373439 L20.51376,15.0373439 C20.51376,16.1198005 20.2326811,17.1352289 19.7365418,18.0145999 L19.7365418,18.0145999 C18.8002789,19.6833039 17.0958003,20.8648023 15.1032408,21.0778922 L15.1032408,21.0778922 C14.883179,21.1039032 14.6621169,21.1169087 14.4370538,21.1169087 L14.4370538,21.1169087 C14.0909566,21.1169087 13.7488605,21.086896 13.4167673,21.029872 L13.4167673,21.029872 L13.4137664,21.029872 C12.4995097,20.875807 11.6522718,20.5136542 10.9260679,19.996436 L10.9260679,19.996436 C10.3479056,19.6783018 9.80075194,19.3101465 9.28760785,18.9029747 L9.28760785,18.9029747 C9.3266188,18.9860097 9.3636292,19.0710456 9.40664127,19.1520798 L9.40664127,19.1520798 C10.3188974,21.0268707 11.6692766,22.646554 13.326742,23.8850765 L13.326742,23.8850765 C13.8999029,24.3122567 14.5100743,24.6954184 15.1522546,25.0255577 L15.1522546,25.0255577 C16.2105517,25.5697873 17.3568736,25.9739578 18.5592112,26.2100574 L18.5592112,26.2100574 C19.3784412,26.3721257 20.2226783,26.4571616 21.0889215,26.4571616 L21.0889215,26.4571616 C21.2039538,26.4571616 21.3229872,26.4541603 21.4380195,26.4541603 L21.4380195,26.4541603 C25.4561478,26.3461148 29.0201485,24.4132994 31.3307973,21.4600535 L31.3307973,21.4600535 C32.213045,20.3295765 32.9162425,19.0510372 33.3883751,17.6624513 L33.3883751,17.6624513 C33.8385015,16.3458959 34.0815697,14.9333 34.0815697,13.46368 L34.0815697,13.46368 C34.0815697,7.66623419 30.2835032,2.75616276 25.0420315,1.08545793 L25.0420315,1.08545793 C25.0420315,1.08545793 25.0420315,1.08545793 25.0410312,1.08545793 L25.0410312,1.08545793 C25.0420315,1.08545793 25.0410312,1.08545793 25.0420315,1.08545793 L25.0420315,1.08545793 C24.937002,1.04944273 24.8329728,1.01742923 24.726943,0.986416144 L24.726943,0.986416144 C24.3628408,0.882372251 23.9917366,0.791333844 23.6166313,0.718303034 L23.6166313,0.718303034 C22.7974012,0.555234239 21.9531642,0.472199209 21.0889215,0.472199209 L21.0889215,0.472199209 C19.7425435,0.472199209 18.4431786,0.67728573 17.2268371,1.05444484 L17.2268371,1.05444484 C17.2108326,1.05844653 17.1968287,1.06444906 17.1858256,1.0704516 L17.1858256,1.0704516 C16.9977728,1.13547903 16.80972,1.20050646 16.6226674,1.26053179 L16.6226674,1.26053179 C14.4870678,1.96082722 12.2044269,2.33998718 9.83576177,2.33998718 L9.83576177,2.33998718 C9.02853511,2.33998718 8.23331182,2.29696903 7.45209246,2.20893189 L7.45209246,2.20893189 C7.34406213,2.19792725 7.23803235,2.18692261 7.13000202,2.17191628 L7.13000202,2.17191628 C4.5902889,1.8597846 2.18961482,1.10746721 0,0 L0,0 C0.608170767,1.72872931 1.55443647,3.29739109 2.7657766,4.626952" id="Fill-32" fill="url(#linearGradient-20)" mask="url(#mask-19)"></path>
            </g>
            <g id="编组" transform="translate(19.480470, 17.041189)">
                <mask id="mask-22" fill="white">
                    <use xlink:href="#path-21"></use>
                </mask>
                <g id="Clip-37"></g>
                <path d="M0,0 L0.00500140434,0.00800337642 C0.0620174138,0.124052335 0.752211212,2.75616276 4.39623441,4.38985197 L4.39623441,4.38985197 C7.988243,5.99853063 10.7070064,5.73541963 13.5948173,5.47230863 L13.5948173,5.47230863 C15.2402793,5.32224532 16.9397565,5.17218201 18.8893039,5.36726431 L18.8893039,5.36726431 C29.0671617,6.39069607 30.5365743,19.9484157 21.9841729,22.6355494 L21.9841729,22.6355494 C12.9416339,25.4777484 9.40664127,19.1520798 9.40664127,19.1520798 L9.40664127,19.1520798 C10.3188974,21.0268707 11.6692766,22.646554 13.326742,23.8850765 L13.326742,23.8850765 C13.8999029,24.3122567 14.5100743,24.6954184 15.1522546,25.0255577 L15.1522546,25.0255577 C16.2105517,25.5697873 17.3568736,25.9739578 18.5592112,26.2100574 L18.5592112,26.2100574 C19.3784412,26.3721257 20.2226783,26.4571616 21.0889215,26.4571616 L21.0889215,26.4571616 C21.2039538,26.4571616 21.3229872,26.4541603 21.4380195,26.4541603 L21.4380195,26.4541603 C25.4561478,26.3461148 29.0201485,24.4132994 31.3307973,21.4600535 L31.3307973,21.4600535 C32.213045,20.3295765 32.9162425,19.0510372 33.3883751,17.6624513 L33.3883751,17.6624513 C33.8385015,16.3458959 34.0815697,14.9333 34.0815697,13.46368 L34.0815697,13.46368 C34.0815697,7.66623419 30.2835032,2.75616276 25.0420315,1.08545793 L25.0420315,1.08545793 C25.0420315,1.08545793 25.0420315,1.08545793 25.0410312,1.08545793 L25.0410312,1.08545793 C25.0420315,1.08545793 25.0410312,1.08545793 25.0420315,1.08545793 L25.0420315,1.08545793 C24.937002,1.04944273 24.8329728,1.01742923 24.726943,0.986416144 L24.726943,0.986416144 C24.3628408,0.882372251 23.9917366,0.791333844 23.6166313,0.718303034 L23.6166313,0.718303034 C22.7974012,0.555234239 21.9531642,0.472199209 21.0889215,0.472199209 L21.0889215,0.472199209 C19.7425435,0.472199209 18.4431786,0.67728573 17.2268371,1.05444484 L17.2268371,1.05444484 C17.2108326,1.05844653 17.1968287,1.06444906 17.1858256,1.0704516 L17.1858256,1.0704516 C16.9977728,1.13547903 16.80972,1.20050646 16.6226674,1.26053179 L16.6226674,1.26053179 C14.4870678,1.96182765 12.2044269,2.33998718 9.83576177,2.33998718 L9.83576177,2.33998718 C9.02853511,2.33998718 8.23331182,2.29696903 7.45209246,2.20893189 L7.45209246,2.20893189 C7.34406213,2.19792725 7.23803235,2.18692261 7.13000202,2.17191628 L7.13000202,2.17191628 C4.5902889,1.8597846 2.18961482,1.10846763 0.00100028087,0 L0.00100028087,0 L0,0 Z" id="Fill-36" fill="url(#linearGradient-23)" mask="url(#mask-22)"></path>
            </g>
            <g id="编组" transform="translate(14.277009, 37.466806)">
                <mask id="mask-25" fill="white">
                    <use xlink:href="#path-24"></use>
                </mask>
                <g id="Clip-39"></g>
                <path d="M0.0770216268,1.21951448 C0.0520146051,1.2475263 0.0250070217,1.27253685 0,1.29954825 L0,1.29954825 C0.804225817,1.1204727 1.63946034,1.02843387 2.49570076,1.02843387 L2.49570076,1.02843387 C3.3669454,1.02843387 4.21518357,1.12247354 5.02841192,1.30455036 L5.02841192,1.30455036 C6.32877705,1.59467275 7.54511858,2.10388758 8.63942585,2.78917668 L8.63942585,2.78917668 C10.1478494,3.73457552 11.5292373,5.23620903 12.4665004,6.75084801 L12.4665004,6.75084801 C13.2247133,6.40470198 13.9629206,5.99152768 14.8541709,5.99152768 L14.8541709,5.99152768 C15.2202737,5.99152768 15.5793745,6.02554203 15.9274722,6.08956904 L15.9274722,6.08956904 L15.9484781,6.03154456 C15.9484781,6.03154456 13.3937608,1.07745455 7.97323879,0.216091163 L7.97323879,0.216091163 C7.01196888,0.0620261673 6.12572003,0 5.32149421,0 L5.32149421,0 C2.27263813,0 0.406114032,0.903381114 0.0770216268,1.21951448" id="Fill-38" fill="url(#linearGradient-26)" mask="url(#mask-25)"></path>
            </g>
            <g id="编组" transform="translate(14.277009, 37.466806)">
                <mask id="mask-28" fill="white">
                    <use xlink:href="#path-27"></use>
                </mask>
                <g id="Clip-41"></g>
                <path d="M0.0770216268,1.21951448 C0.0520146051,1.2475263 0.0250070217,1.27253685 0,1.29954825 L0,1.29954825 C0.804225817,1.1204727 1.63946034,1.02843387 2.49570076,1.02843387 L2.49570076,1.02843387 C3.3669454,1.02843387 4.21518357,1.12247354 5.02841192,1.30455036 L5.02841192,1.30455036 C6.32877705,1.59467275 7.54511858,2.10388758 8.63942585,2.78917668 L8.63942585,2.78917668 C10.1478494,3.73457552 11.5292373,5.23620903 12.4665004,6.75084801 L12.4665004,6.75084801 C13.2247133,6.40470198 13.9629206,5.99152768 14.8541709,5.99152768 L14.8541709,5.99152768 C15.2202737,5.99152768 15.5793745,6.02554203 15.9274722,6.08956904 L15.9274722,6.08956904 L15.9484781,6.03154456 C15.9484781,6.03154456 13.3937608,1.07745455 7.97323879,0.216091163 L7.97323879,0.216091163 C7.01196888,0.0620261673 6.12572003,0 5.32149421,0 L5.32149421,0 C2.27263813,0 0.406114032,0.903381114 0.0770216268,1.21951448" id="Fill-40" fill="url(#linearGradient-29)" mask="url(#mask-28)"></path>
            </g>
            <g id="编组" transform="translate(23.496598, 43.350288)">
                <mask id="mask-31" fill="white">
                    <use xlink:href="#path-30"></use>
                </mask>
                <g id="Clip-43"></g>
                <path d="M3.52298921,0.540227909 C1.44240501,1.48562675 0,3.58751348 0,6.02154034 L0,6.02154034 C0,6.04154878 0,6.05855595 0.00200056173,6.07756397 L0.00200056173,6.07756397 C1.21534125,4.85304738 2.90081451,4.09072577 4.76133693,4.09072577 L4.76133693,4.09072577 C4.82935603,4.09072577 4.89837541,4.09072577 4.96539422,4.09672831 L4.96539422,4.09672831 C7.15901017,4.1597549 9.08555112,5.27522549 10.2578803,6.95793538 L10.2578803,6.95793538 C10.2628817,6.96393791 10.2648823,6.96994044 10.2678831,6.97494255 L10.2678831,6.97494255 C10.3689115,7.11400122 10.4619376,7.25906242 10.5469615,7.40712488 L10.5469615,7.40712488 L10.5479617,7.41012615 C10.8440449,7.91033717 11.0741095,8.45356635 11.2311536,9.02680818 L11.2311536,9.02680818 C11.3151772,8.88074656 11.3931991,8.73468495 11.4652193,8.58061995 L11.4652193,8.58061995 C11.8293215,7.80529286 12.0353794,6.93792694 12.0353794,6.02154034 L12.0353794,6.02154034 C12.0353794,3.68555484 10.7080067,1.66370187 8.76646152,0.666281087 L8.76646152,0.666281087 C7.94223008,0.240101293 7.00896804,0 6.01668942,0 L6.01668942,0 C5.12543916,0 4.28120211,0.194081878 3.52298921,0.540227909" id="Fill-42" fill="url(#linearGradient-32)" mask="url(#mask-31)"></path>
            </g>
            <g id="编组" transform="translate(23.498598, 45.583230)">
                <mask id="mask-34" fill="white">
                    <use xlink:href="#path-33"></use>
                </mask>
                <g id="Clip-47"></g>
                <path d="M0,3.84462195 C1.21334069,2.62010536 2.89881395,1.85778375 4.75933637,1.85778375 L4.75933637,1.85778375 C4.82735546,1.85778375 4.89637484,1.85778375 4.96339366,1.86378628 L4.96339366,1.86378628 C7.1570096,1.92681287 9.08355055,3.04228346 10.2558797,4.72499336 L10.2558797,4.72499336 C10.2608811,4.73099589 10.2628817,4.73699842 10.2658825,4.74200053 L10.2658825,4.74200053 C10.3669109,4.8810592 10.459937,5.02612039 10.5449609,5.17418286 L10.5449609,5.17418286 L10.5459612,5.17718412 C10.8420443,5.67739515 11.0721089,6.22062433 11.229153,6.79386616 L11.229153,6.79386616 C11.229153,6.79386616 11.6952839,0 5.61457651,0 L5.61457651,0 C1.10931148,0 0,3.84462195 0,3.84462195" id="Fill-46" fill="url(#linearGradient-35)" mask="url(#mask-34)"></path>
            </g>
            <g id="编组" transform="translate(0.000000, 28.945211)">
                <mask id="mask-37" fill="white">
                    <use xlink:href="#path-36"></use>
                </mask>
                <g id="Clip-49"></g>
                <path d="M0,0 C0.582163465,3.21235521 2.8858103,5.94350742 6.0907102,6.98694762 L6.0907102,6.98694762 C6.44580991,7.10199615 6.8119127,7.19703625 7.18901859,7.27006706 L7.18901859,7.27006706 C9.87277216,7.78528442 12.5045111,7.05697716 14.4920692,5.49131665 L14.4920692,5.49131665 L14.4940698,5.49431792 C15.5083546,4.72199209 16.80972,4.33983087 18.1540975,4.5139043 L18.1540975,4.5139043 C17.8019986,3.87163335 17.3388685,3.29238898 16.7887141,2.80418301 L16.7887141,2.80418301 C15.9484781,2.05686774 14.9051852,1.52464321 13.7268543,1.2975474 L13.7268543,1.2975474 C12.258442,1.01542838 10.809035,1.25552968 9.57468846,1.88979726 L9.57468846,1.88979726 L9.56968705,1.87979304 C8.06026323,2.65912182 6.28676525,2.95524674 4.48725997,2.61010114 L4.48725997,2.61010114 C2.66874935,2.26095384 1.11531317,1.30955247 0,0 Z" id="Fill-48" fill="url(#linearGradient-38)" mask="url(#mask-37)"></path>
            </g>
            <g id="编组" transform="translate(0.000000, 28.945211)">
                <mask id="mask-40" fill="white">
                    <use xlink:href="#path-39"></use>
                </mask>
                <g id="Clip-53"></g>
                <path d="M0,0 C0.582163465,3.21235521 2.99684148,6.93792694 7.19001887,7.59520423 L7.19001887,7.59520423 C10.3058938,8.08441061 12.5045111,7.05697716 14.4920692,5.49131665 L14.4920692,5.49131665 L14.4940698,5.49431792 C15.5083546,4.72199209 16.80972,4.33983087 18.1540975,4.5139043 L18.1540975,4.5139043 C18.1540975,4.5139043 15.4153284,2.65512013 12.7265735,3.30839573 L12.7265735,3.30839573 C9.86777075,4.00168821 9.07854915,5.36426305 6.86392731,5.34525503 L6.86392731,5.34525503 C1.85252017,5.30423773 0,0 0,0 Z" id="Fill-52" fill="url(#linearGradient-41)" mask="url(#mask-40)"></path>
            </g>
            <g id="编组" transform="translate(6.623477, 9.958201)">
                <mask id="mask-43" fill="white">
                    <use xlink:href="#path-42"></use>
                </mask>
                <g id="Clip-55"></g>
                <path d="M1.11069442,5.95351164 C1.24873318,6.13158676 1.40077587,6.30465978 1.56482193,6.468729 L1.56482193,6.468729 C2.7691601,7.66923546 4.40461931,8.17344817 5.97205943,7.98336798 L5.97205943,7.98336798 L5.97305971,7.99637347 C6.70326475,7.89232958 7.46747933,8.05940006 8.09665599,8.50458787 L8.09665599,8.50458787 C8.15467229,8.09041314 8.14566976,7.67323715 8.06864813,7.26406453 L8.06864813,7.26406453 C7.93160965,6.53575727 7.58051107,5.84046395 7.01635266,5.27922717 L7.01635266,5.27922717 C6.39317768,4.65696466 5.6079572,4.29681272 4.79372857,4.19877136 L4.79372857,4.19877136 L4.79572913,4.1917684 C3.80144995,4.07571944 2.8371792,3.63453332 2.07396489,2.87221171 L2.07396489,2.87221171 C1.27073936,2.07087365 0.823613811,1.04944273 0.732588252,0 L0.732588252,0 C-0.356717612,1.85278164 -0.231682504,4.22078064 1.11069442,5.95351164" id="Fill-54" fill="url(#linearGradient-44)" mask="url(#mask-43)"></path>
            </g>
            <g id="编组" transform="translate(6.625631, 9.958201)">
                <mask id="mask-46" fill="white">
                    <use xlink:href="#path-45"></use>
                </mask>
                <g id="Clip-59"></g>
                <path d="M0.194284174,1.27553812 C-0.243838846,2.85620496 0.0582459762,4.59894018 1.10854089,5.95351164 L1.10854089,5.95351164 C1.24657965,6.13158676 1.39862234,6.30465978 1.5626684,6.468729 L1.5626684,6.468729 C2.76700656,7.66923546 4.40246578,8.17344817 5.9699059,7.98336798 L5.9699059,7.98336798 L5.97090618,7.99637347 C6.70111121,7.89232958 7.4653258,8.05940006 8.09450246,8.50458787 L8.09450246,8.50458787 C8.09450246,8.50458787 6.88716346,6.93092398 5.65381715,6.3056602 L5.65381715,6.3056602 C4.20841129,5.57235084 2.76200516,6.04154878 1.31759959,4.55492161 L1.31759959,4.55492161 C-0.172818904,3.02427587 0.730434719,0 0.730434719,0 L0.730434719,0 C0.730434719,0 0.511373209,0.518218623 0.194284174,1.27553812" id="Fill-58" fill="url(#linearGradient-47)" mask="url(#mask-46)"></path>
            </g>
        </g>
    </g>
</svg>