<?xml version="1.0" encoding="UTF-8"?>
<svg width="157px" height="49px" viewBox="0 0 157 49" version="1.1" xmlns="http://www.w3.org/2000/svg" xmlns:xlink="http://www.w3.org/1999/xlink">
    <title>logo</title>
    <defs>
        <polygon id="path-1" points="0 49 156 49 156 0 0 0"></polygon>
        <path d="M0,2.5873728 C1.49125617,3.35102309 2.83184934,5.06061932 2.83184934,6.84910822 L2.83184934,6.84910822 C2.83184934,7.55071671 2.67349946,8.21479374 2.39369675,8.80840355 L2.39369675,8.80840355 C2.40292102,8.81989277 2.41445135,8.83138199 2.42367561,8.84210526 L2.42367561,8.84210526 C3.91185702,10.4659153 6.05496125,11.4838604 8.43866504,11.4838604 L8.43866504,11.4838604 C12.4443021,11.4838604 15.773493,8.60542729 16.4537826,4.81015428 L16.4537826,4.81015428 C15.2169624,6.10460663 7.98360131,8.76321261 6.51002498,4.46317978 L6.51002498,4.46317978 C6.0718724,3.18328045 6.90359362,2.13086771 7.19415797,2.13086771 L7.19415797,2.13086771 L7.19415797,2.12780392 C7.10422138,2.12780392 7.01351611,2.13086771 6.92434822,2.13086771 L6.92434822,2.13086771 C6.26020114,2.13086771 5.61065915,2.06576212 4.98110307,1.94167852 L4.98110307,1.94167852 C4.0571392,1.76091476 3.17622189,1.45070577 2.36218051,1.03402998 L2.36218051,1.03402998 C1.86945103,0.782033045 1.08077638,0.327825802 0.640317725,0 L0.640317725,0 C0.291333034,0.804245541 0.0691819871,1.67512857 0,2.5873728" id="path-3"></path>
        <linearGradient x1="10.0205321%" y1="36.0760844%" x2="99.4575487%" y2="67.2270915%" id="linearGradient-5">
            <stop stop-color="#D852F9" offset="0%"></stop>
            <stop stop-color="#2A52DD" offset="100%"></stop>
        </linearGradient>
        <path d="M0,2.6839801 C1.49202485,3.44839634 2.96974705,5.11924448 2.96974705,6.90773337 C2.96974705,7.60934186 2.89460727,8.21452313 2.61480456,8.80813293 C2.62402883,8.81962215 2.45799206,9.21359011 2.46644763,9.22507933 C3.95616642,10.8481234 6.30758529,11.5589233 8.69128909,11.5589233 C12.6969261,11.5589233 16.0261171,8.68049021 16.7064066,4.8852172 C16.7064066,4.8852172 12.7084565,11.3666703 6.51282519,8.4353868 C2.09055884,6.34358245 4.02227365,1.31130321 4.02227365,1.31130321 C4.02227365,1.31130321 2.72626443,1.16653901 2.61480456,1.1090929 C2.12207508,0.857095962 1.17889399,0.327825802 0.738435335,0 C0.390219334,0.804245541 0.168068286,1.77096993 0.0981176106,2.6839801 L0,2.6839801 Z" id="path-6"></path>
        <linearGradient x1="50.0006998%" y1="73.9370582%" x2="53.6394184%" y2="42.1065634%" id="linearGradient-8">
            <stop stop-color="#D852F9" offset="0%"></stop>
            <stop stop-color="#2A67DD" offset="100%"></stop>
        </linearGradient>
        <path d="M1.0515662,1.210964 C3.10012171,3.38166101 5.65216834,5.07670423 8.51783998,6.1153299 L8.51783998,6.1153299 C9.6301326,6.51821862 10.7908526,6.82153408 11.9861636,7.01455301 L11.9861636,7.01455301 C13.0062136,7.1830616 14.0531676,7.26961374 15.1201076,7.26961374 L15.1201076,7.26961374 C15.5182884,7.26961374 15.9157005,7.25812452 16.306963,7.23131634 L16.306963,7.23131634 C17.2363077,7.17923186 18.1456665,7.05591421 19.0342707,6.87285261 L19.0342707,6.87285261 C20.0481712,6.66681256 21.0351675,6.37958201 21.9852668,6.01728854 L21.9852668,6.01728854 C22.0067901,6.00809717 22.0321568,6.00120363 22.0536801,5.99124631 L22.0536801,5.99124631 C22.2404715,5.92001313 22.4249568,5.84724806 22.6086734,5.7698873 L22.6086734,5.7698873 C22.5187368,5.77295109 22.4272628,5.77448299 22.3357889,5.77448299 L22.3357889,5.77448299 C21.3580168,5.77448299 20.4132983,5.63814422 19.5154699,5.38691323 L19.5154699,5.38691323 C18.4416117,5.08512966 17.4361668,4.61636941 16.5337262,4.00897254 L16.5337262,4.00897254 C15.8495932,3.54633986 15.225418,3.00558048 14.6711934,2.40048145 L14.6711934,2.40048145 C13.5127795,2.85698654 12.2836461,3.17102528 11.0014733,3.31578947 L11.0014733,3.31578947 C11.0014733,3.31578947 11.0014733,3.31808732 10.9983986,3.31578947 L10.9983986,3.31578947 C10.9369035,3.32498085 10.8746397,3.33110844 10.8123759,3.33493818 L10.8123759,3.33493818 C10.3288707,3.38702265 9.83844725,3.41076704 9.34033694,3.41076704 L9.34033694,3.41076704 C9.15354558,3.41076704 8.9675229,3.4069373 8.7830376,3.40004377 L8.7830376,3.40004377 C8.03971559,3.37323558 7.31099865,3.28898129 6.60149894,3.15264252 L6.60149894,3.15264252 C4.68977003,2.78881716 2.91256166,2.04891126 1.34828006,1.01181749 L1.34828006,1.01181749 C0.880148613,0.702374439 0.42892832,0.36535726 0,0 L0,0 C0.332842227,0.418207681 0.684132983,0.823394244 1.0515662,1.210964" id="path-9"></path>
        <linearGradient x1="75.7400503%" y1="64.2831992%" x2="24.7844682%" y2="36.0059289%" id="linearGradient-11">
            <stop stop-color="#D852F9" offset="0%"></stop>
            <stop stop-color="#2A67DD" offset="100%"></stop>
        </linearGradient>
        <path d="M0.0584203446,0.0704672284 C0.587278201,0.693183062 4.79661777,5.34248824 12.67414,5.33178348 L12.67414,5.33178348 C14.2199731,5.32946712 15.8372942,5.00393916 17.3892768,4.52368968 L17.3892768,4.52368968 C17.094869,4.36513842 16.8096855,4.19433198 16.5337262,4.00897254 L16.5337262,4.00897254 C15.8495932,3.54633986 15.225418,3.00558048 14.6711934,2.40048145 L14.6711934,2.40048145 C13.5127795,2.85698654 12.2836461,3.17102528 11.0014733,3.31578947 L11.0014733,3.31578947 C11.0014733,3.31578947 11.0014733,3.31808732 10.9983986,3.31578947 L10.9983986,3.31578947 C10.9369035,3.32498085 10.8746397,3.33110844 10.8123759,3.33493818 L10.8123759,3.33493818 C10.3288707,3.38702265 9.83844725,3.41076704 9.34033694,3.41076704 L9.34033694,3.41076704 C9.15354558,3.41076704 8.9675229,3.4069373 8.7830376,3.40004377 L8.7830376,3.40004377 C8.03971559,3.37323558 7.31099865,3.28898129 6.60149894,3.15264252 L6.60149894,3.15264252 C4.68977003,2.78881716 2.91256166,2.04891126 1.34828006,1.01181749 L1.34828006,1.01181749 C0.880148613,0.702374439 0.42892832,0.36535726 3.41366377e-16,0 L3.41366377e-16,0 C0.0192172186,0.0237443922 0.039203126,0.0459568881 0.0584203446,0.0704672284" id="path-12"></path>
        <linearGradient x1="9.95492441%" y1="48.0059661%" x2="111.515379%" y2="53.0863261%" id="linearGradient-14">
            <stop stop-color="#D852F9" offset="0%"></stop>
            <stop stop-color="#2A52DD" offset="100%"></stop>
        </linearGradient>
        <path d="M4.07020691,0.458802932 C2.48978285,0.965860597 1.09076933,1.87887077 0,3.07221797 C0.618025751,2.93511325 1.25988085,2.86464602 1.91787842,2.86464602 C2.58740632,2.86464602 3.23925437,2.93664515 3.86419832,3.07604771 C4.86349369,3.29817267 5.7982192,3.68804027 6.63916469,4.21271474 C7.79834732,4.93653573 8.77842547,5.91924718 9.49868682,7.07889266 C10.0805842,6.8138746 10.7301262,6.66451472 11.4150279,6.66451472 C12.1775671,6.66451472 12.7141118,6.73345005 13.3475114,7.05897801 C13.417462,6.14520188 13.6396131,5.27585075 13.9878291,4.47160521 C12.7141118,3.52259547 11.9577791,2.3981049 11.1840536,0.963562753 C9.92647885,0.346974505 8.4824803,0 6.986612,0 C6.57228877,0 6.16411505,0.0268081847 5.7643969,0.0788926578 C5.18173083,0.152423679 4.61443854,0.281102965 4.07020691,0.458802932 Z" id="path-15"></path>
        <linearGradient x1="-0.000137385283%" y1="50.0021164%" x2="100.003125%" y2="50.0021164%" id="linearGradient-17">
            <stop stop-color="#D852F9" offset="0%"></stop>
            <stop stop-color="#2A52DD" offset="100%"></stop>
        </linearGradient>
        <path d="M2.12542438,3.54251012 C2.67811159,4.14607725 3.30382423,4.68683663 3.98949459,5.14870336 L3.98949459,5.14870336 C4.89116649,5.75610023 5.89584268,6.22562644 6.96970085,6.52741 L6.96970085,6.52741 C7.86752931,6.78017289 8.81147909,6.91497976 9.79001986,6.91497976 L9.79001986,6.91497976 C9.88149382,6.91497976 9.97296778,6.91268191 10.0629044,6.91038407 L10.0629044,6.91038407 C10.2496957,6.90578838 10.4349497,6.89736295 10.6163603,6.88127804 L10.6163603,6.88127804 C10.7747101,6.86595908 10.9353661,6.85753365 11.0944847,6.85753365 L11.0944847,6.85753365 C13.6757415,6.85753365 15.7642688,8.94091257 15.7642688,11.5129664 L15.7642688,11.5129664 C15.7642688,12.3417223 15.5482672,13.1191596 15.1669976,13.7924281 L15.1669976,13.7924281 C14.447505,15.0700295 13.1376593,15.9746143 11.6064314,16.1377612 L11.6064314,16.1377612 C11.4373198,16.1576759 11.2674396,16.1676332 11.0944847,16.1676332 L11.0944847,16.1676332 C10.8285184,16.1676332 10.5656268,16.1446548 10.3104221,16.1009957 L10.3104221,16.1009957 L10.3081161,16.1009957 C9.60553456,15.9830397 8.95445519,15.7057665 8.39638716,15.3097713 L8.39638716,15.3097713 C7.95208507,15.0661998 7.53161232,14.7843309 7.137275,14.47259 L7.137275,14.47259 C7.16725386,14.5361637 7.19569534,14.6012693 7.22874896,14.6633111 L7.22874896,14.6633111 C7.92979309,16.0986979 8.9675229,17.3387679 10.2412402,18.2870117 L10.2412402,18.2870117 C10.6816988,18.6140716 11.1505989,18.9074297 11.6440971,19.1601926 L11.6440971,19.1601926 C12.4573698,19.5768684 13.3382871,19.8863114 14.262251,20.0670752 L14.262251,20.0670752 C14.8918071,20.1911588 15.5405804,20.2562644 16.2062648,20.2562644 L16.2062648,20.2562644 C16.294664,20.2562644 16.386138,20.2539665 16.4745372,20.2539665 L16.4745372,20.2539665 C19.5623599,20.1712441 22.3011979,18.6914323 24.0768689,16.4303534 L24.0768689,16.4303534 C24.7548523,15.564832 25.2952405,14.5859503 25.6580616,13.5228143 L25.6580616,13.5228143 C26.0039716,12.5148266 26.1907629,11.4333078 26.1907629,10.30813 L26.1907629,10.30813 C26.1907629,5.86946055 23.2720518,2.11018711 19.2441227,0.831053726 L19.2441227,0.831053726 C19.2441227,0.831053726 19.2441227,0.831053726 19.243354,0.831053726 L19.243354,0.831053726 C19.2441227,0.831053726 19.243354,0.831053726 19.2441227,0.831053726 L19.2441227,0.831053726 C19.1634104,0.803479593 19.0834668,0.778969253 19.0019858,0.75522486 L19.0019858,0.75522486 C18.7221831,0.675566255 18.4369996,0.605864974 18.1487413,0.54995076 L18.1487413,0.54995076 C17.5191852,0.425101215 16.8704119,0.361527519 16.2062648,0.361527519 L16.2062648,0.361527519 C15.1716098,0.361527519 14.1730831,0.518546887 13.2383576,0.807309334 L13.2383576,0.807309334 C13.2260585,0.810373126 13.2152969,0.814968815 13.2068413,0.819564504 L13.2068413,0.819564504 C13.0623278,0.869351133 12.9178144,0.919137761 12.7740696,0.965094649 L12.7740696,0.965094649 C11.1329191,1.50125834 9.37877138,1.79155269 7.55851643,1.79155269 L7.55851643,1.79155269 C6.93818461,1.79155269 6.32707706,1.75861692 5.72673115,1.69121348 L5.72673115,1.69121348 C5.64371277,1.68278805 5.56223176,1.67436262 5.47921338,1.6628734 L5.47921338,1.6628734 C3.52751265,1.42389758 1.68265966,0.847904585 0,0 L0,0 C0.467362757,1.32355838 1.19454231,2.52456505 2.12542438,3.54251012" id="path-18"></path>
        <linearGradient x1="15.1013187%" y1="50.0000015%" x2="94.6044429%" y2="50.0000015%" id="linearGradient-20">
            <stop stop-color="#D852F9" offset="0%"></stop>
            <stop stop-color="#2A67DD" offset="100%"></stop>
        </linearGradient>
        <path d="M0,0 L0.00384344373,0.00612758507 C0.0476587022,0.0949775687 0.578053936,2.11018711 3.37838703,3.36098041 L3.37838703,3.36098041 C6.13874832,4.59262501 8.22804433,4.39118065 10.4472487,4.18973629 L10.4472487,4.18973629 C11.7117417,4.07484407 13.0177439,3.95995185 14.5159183,4.10931174 L14.5159183,4.10931174 C22.3373262,4.89287668 23.46653,15.2730058 16.8942412,17.3303425 L16.8942412,17.3303425 C9.94529498,19.5064011 7.22874896,14.6633111 7.22874896,14.6633111 L7.22874896,14.6633111 C7.92979309,16.0986979 8.9675229,17.3387679 10.2412402,18.2870117 L10.2412402,18.2870117 C10.6816988,18.6140716 11.1505989,18.9074297 11.6440971,19.1601926 L11.6440971,19.1601926 C12.4573698,19.5768684 13.3382871,19.8863114 14.262251,20.0670752 L14.262251,20.0670752 C14.8918071,20.1911588 15.5405804,20.2562644 16.2062648,20.2562644 L16.2062648,20.2562644 C16.294664,20.2562644 16.386138,20.2539665 16.4745372,20.2539665 L16.4745372,20.2539665 C19.5623599,20.1712441 22.3011979,18.6914323 24.0768689,16.4303534 L24.0768689,16.4303534 C24.7548523,15.564832 25.2952405,14.5859503 25.6580616,13.5228143 L25.6580616,13.5228143 C26.0039716,12.5148266 26.1907629,11.4333078 26.1907629,10.30813 L26.1907629,10.30813 C26.1907629,5.86946055 23.2720518,2.11018711 19.2441227,0.831053726 L19.2441227,0.831053726 C19.2441227,0.831053726 19.2441227,0.831053726 19.243354,0.831053726 L19.243354,0.831053726 C19.2441227,0.831053726 19.243354,0.831053726 19.2441227,0.831053726 L19.2441227,0.831053726 C19.1634104,0.803479593 19.0834668,0.778969253 19.0019858,0.75522486 L19.0019858,0.75522486 C18.7221831,0.675566255 18.4369996,0.605864974 18.1487413,0.54995076 L18.1487413,0.54995076 C17.5191852,0.425101215 16.8704119,0.361527519 16.2062648,0.361527519 L16.2062648,0.361527519 C15.1716098,0.361527519 14.1730831,0.518546887 13.2383576,0.807309334 L13.2383576,0.807309334 C13.2260585,0.810373126 13.2152969,0.814968815 13.2068413,0.819564504 L13.2068413,0.819564504 C13.0623278,0.869351133 12.9178144,0.919137761 12.7740696,0.965094649 L12.7740696,0.965094649 C11.1329191,1.50202429 9.37877138,1.79155269 7.55851643,1.79155269 L7.55851643,1.79155269 C6.93818461,1.79155269 6.32707706,1.75861692 5.72673115,1.69121348 L5.72673115,1.69121348 C5.64371277,1.68278805 5.56223176,1.67436262 5.47921338,1.6628734 L5.47921338,1.6628734 C3.52751265,1.42389758 1.68265966,0.848670533 0.000768688745,0 L0.000768688745,0 L0,0 Z" id="path-21"></path>
        <linearGradient x1="18.7509591%" y1="26.2696162%" x2="89.9397353%" y2="80.3285472%" id="linearGradient-23">
            <stop stop-color="#D852F9" offset="0%"></stop>
            <stop stop-color="#2A52DD" offset="100%"></stop>
        </linearGradient>
        <path d="M0.0591890334,0.933690776 C0.0399718147,0.955137324 0.0192172186,0.974286027 0,0.994966627 L0,0.994966627 C0.618025751,0.85786191 1.25988085,0.787394682 1.91787842,0.787394682 L1.91787842,0.787394682 C2.58740632,0.787394682 3.23925437,0.859393807 3.86419832,0.998796367 L3.86419832,0.998796367 C4.86349369,1.22092133 5.7982192,1.61078893 6.63916469,2.1354634 L6.63916469,2.1354634 C7.79834732,2.85928439 8.85990648,4.00897254 9.58016783,5.16861801 L9.58016783,5.16861801 C10.1628339,4.90359996 10.7301262,4.58726338 11.4150279,4.58726338 L11.4150279,4.58726338 C11.6963679,4.58726338 11.9723272,4.61330561 12.2398309,4.66232629 L12.2398309,4.66232629 L12.2559734,4.6179013 C12.2559734,4.6179013 10.2927423,0.824926141 6.12721799,0.165444797 L6.12721799,0.165444797 C5.3885081,0.0474887843 4.70744988,0 4.08942412,0 L4.08942412,0 C1.74646083,0 0.312087631,0.691651165 0.0591890334,0.933690776" id="path-24"></path>
        <linearGradient x1="5.08080281%" y1="50.0011203%" x2="97.1681968%" y2="50.0011203%" id="linearGradient-26">
            <stop stop-color="#2A67DD" offset="0%"></stop>
            <stop stop-color="#D852F9" offset="100%"></stop>
        </linearGradient>
        <path d="M0.0591890334,0.933690776 C0.0399718147,0.955137324 0.0192172186,0.974286027 0,0.994966627 L0,0.994966627 C0.618025751,0.85786191 1.25988085,0.787394682 1.91787842,0.787394682 L1.91787842,0.787394682 C2.58740632,0.787394682 3.23925437,0.859393807 3.86419832,0.998796367 L3.86419832,0.998796367 C4.86349369,1.22092133 5.7982192,1.61078893 6.63916469,2.1354634 L6.63916469,2.1354634 C7.79834732,2.85928439 8.85990648,4.00897254 9.58016783,5.16861801 L9.58016783,5.16861801 C10.1628339,4.90359996 10.7301262,4.58726338 11.4150279,4.58726338 L11.4150279,4.58726338 C11.6963679,4.58726338 11.9723272,4.61330561 12.2398309,4.66232629 L12.2398309,4.66232629 L12.2559734,4.6179013 C12.2559734,4.6179013 10.2927423,0.824926141 6.12721799,0.165444797 L6.12721799,0.165444797 C5.3885081,0.0474887843 4.70744988,0 4.08942412,0 L4.08942412,0 C1.74646083,0 0.312087631,0.691651165 0.0591890334,0.933690776" id="path-27"></path>
        <linearGradient x1="4.97106184%" y1="42.1201115%" x2="97.2825847%" y2="58.2742701%" id="linearGradient-29">
            <stop stop-color="#D852F9" offset="0%"></stop>
            <stop stop-color="#2A67DD" offset="100%"></stop>
        </linearGradient>
        <path d="M2.70732176,0.413611993 C1.10844917,1.13743298 0,2.74669001 0,4.61024182 L0,4.61024182 C0,4.62556078 0,4.6385819 0.00153737749,4.65313492 L0.00153737749,4.65313492 C0.933956825,3.7156144 2.22919736,3.13196192 3.65895843,3.13196192 L3.65895843,3.13196192 C3.71122926,3.13196192 3.76426878,3.13196192 3.81577093,3.13655761 L3.81577093,3.13655761 C5.50150535,3.18481234 6.98199987,4.03884451 7.88290308,5.32716927 L7.88290308,5.32716927 C7.88674652,5.33176496 7.8882839,5.33636065 7.89058997,5.34019039 L7.89058997,5.34019039 C7.96822753,5.44665718 8.03971559,5.55771966 8.10505413,5.67107999 L8.10505413,5.67107999 L8.10582282,5.67337783 C8.33335469,6.0563519 8.5101531,6.47226174 8.63083723,6.91115002 L8.63083723,6.91115002 C8.69540708,6.79932159 8.75536481,6.68749316 8.8107104,6.56953715 L8.8107104,6.56953715 C9.0905131,5.97592734 9.24886298,5.31185031 9.24886298,4.61024182 L9.24886298,4.61024182 C9.24886298,2.82175293 8.22881302,1.27377175 6.73678816,0.510121457 L6.73678816,0.510121457 C6.10338864,0.183827552 5.38620204,0 4.6236628,0 L4.6236628,0 C3.93876113,0 3.28998783,0.148593938 2.70732176,0.413611993" id="path-30"></path>
        <linearGradient x1="78.7377178%" y1="87.0600084%" x2="21.2641572%" y2="12.9393016%" id="linearGradient-32">
            <stop stop-color="#D852F9" offset="0%"></stop>
            <stop stop-color="#2A52DD" offset="100%"></stop>
        </linearGradient>
        <path d="M0,2.94353868 C0.932419448,2.00601816 2.22765998,1.42236569 3.65742105,1.42236569 L3.65742105,1.42236569 C3.70969188,1.42236569 3.76273141,1.42236569 3.81423355,1.42696137 L3.81423355,1.42696137 C5.49996797,1.47521611 6.98046249,2.32924828 7.8813657,3.61757304 L7.8813657,3.61757304 C7.88520915,3.62216873 7.88674652,3.62676442 7.88905259,3.63059416 L7.88905259,3.63059416 C7.96669015,3.73706095 8.03817821,3.84812343 8.10351675,3.96148375 L8.10351675,3.96148375 L8.10428544,3.9637816 C8.33181731,4.34675566 8.50861572,4.7626655 8.62929985,5.20155378 L8.62929985,5.20155378 C8.62929985,5.20155378 8.98750881,0 4.31464993,0 L4.31464993,0 C0.852475818,0 0,2.94353868 0,2.94353868" id="path-33"></path>
        <linearGradient x1="0.000259919792%" y1="50.0011618%" x2="100.018774%" y2="50.0011618%" id="linearGradient-35">
            <stop stop-color="#D852F9" offset="0%"></stop>
            <stop stop-color="#2A67DD" offset="100%"></stop>
        </linearGradient>
        <path d="M0,0 C0.44737685,2.45945946 2.21766703,4.55049787 4.68054577,5.34938177 L4.68054577,5.34938177 C4.95343027,5.43746581 5.23477035,5.51023088 5.52456601,5.56614509 L5.52456601,5.56614509 C7.58695791,5.96060838 9.609378,5.40299814 11.1367625,4.20428931 L11.1367625,4.20428931 L11.1382999,4.20658715 C11.9177503,3.61527519 12.9178144,3.32268301 13.950932,3.45595798 L13.950932,3.45595798 C13.6803536,2.96421928 13.3244507,2.52073531 12.9016719,2.14695262 L12.9016719,2.14695262 C12.2559734,1.57478936 11.454231,1.16730496 10.5487156,0.99343473 L10.5487156,0.99343473 C9.42028057,0.777437356 8.30645058,0.961264909 7.35788867,1.44687603 L7.35788867,1.44687603 L7.35404522,1.43921654 C6.19409391,2.03589014 4.83120876,2.26261079 3.44833771,1.99835868 L3.44833771,1.99835868 C2.05086157,1.73104278 0.857087951,1.00262611 0,0 Z" id="path-36"></path>
        <linearGradient x1="0%" y1="52.3651312%" x2="99.9997592%" y2="52.3651312%" id="linearGradient-38">
            <stop stop-color="#D852F9" offset="0%"></stop>
            <stop stop-color="#2A52DD" offset="100%"></stop>
        </linearGradient>
        <path d="M0,0 C0.44737685,2.45945946 2.30299148,5.31185031 5.5253347,5.81507824 L5.5253347,5.81507824 C7.91980014,6.18962687 9.609378,5.40299814 11.1367625,4.20428931 L11.1367625,4.20428931 L11.1382999,4.20658715 C11.9177503,3.61527519 12.9178144,3.32268301 13.950932,3.45595798 L13.950932,3.45595798 C13.950932,3.45595798 11.8462623,2.03282635 9.7800269,2.53299048 L9.7800269,2.53299048 C7.58311447,3.06379254 6.97661905,4.1070139 5.27474217,4.09246088 L5.27474217,4.09246088 C1.42361156,4.06105701 0,0 0,0 Z" id="path-39"></path>
        <linearGradient x1="0%" y1="52.3800096%" x2="99.9997592%" y2="52.3800096%" id="linearGradient-41">
            <stop stop-color="#D852F9" offset="0%"></stop>
            <stop stop-color="#2A67DD" offset="100%"></stop>
        </linearGradient>
        <path d="M0.853538569,4.55815735 C0.959617616,4.69449612 1.0764583,4.82700514 1.20252326,4.95262064 L1.20252326,4.95262064 C2.12802451,5.8717584 3.38483061,6.25779626 4.58936587,6.11226611 L4.58936587,6.11226611 L4.59013456,6.12222344 C5.15127734,6.04256483 5.73855554,6.17047817 6.22206076,6.51132509 L6.22206076,6.51132509 C6.26664471,6.19422256 6.25972651,5.87482219 6.20053748,5.5615494 L6.20053748,5.5615494 C6.09522712,5.00393916 5.82541737,4.47160521 5.39187692,4.04190831 L5.39187692,4.04190831 C4.91298383,3.56548857 4.30956317,3.28974724 3.68385053,3.21468432 L3.68385053,3.21468432 L3.68538791,3.20932268 C2.92131129,3.1204727 2.18029534,2.78268957 1.59378583,2.19903709 L1.59378583,2.19903709 C0.976528768,1.58551264 0.632924899,0.803479593 0.562974223,0 L0.562974223,0 C-0.27412782,1.41853594 -0.178041727,3.23153518 0.853538569,4.55815735" id="path-42"></path>
        <linearGradient x1="0.0565601711%" y1="50.0017798%" x2="100.065126%" y2="50.0017798%" id="linearGradient-44">
            <stop stop-color="#D852F9" offset="0%"></stop>
            <stop stop-color="#2A52DD" offset="100%"></stop>
        </linearGradient>
        <path d="M0.149302124,0.976583871 C-0.187383546,2.18678192 0.0447604546,3.52106357 0.851883637,4.55815735 L0.851883637,4.55815735 C0.957962684,4.69449612 1.07480337,4.82700514 1.20086833,4.95262064 L1.20086833,4.95262064 C2.12636958,5.8717584 3.38317567,6.25779626 4.58771094,6.11226611 L4.58771094,6.11226611 L4.58847963,6.12222344 C5.14962241,6.04256483 5.73690061,6.17047817 6.22040583,6.51132509 L6.22040583,6.51132509 C6.22040583,6.51132509 5.29259852,5.30648867 4.34480529,4.82777109 L4.34480529,4.82777109 C3.23405006,4.26633111 2.12252613,4.62556078 1.01253958,3.48736186 L1.01253958,3.48736186 C-0.132806645,2.31546121 0.561319291,0 0.561319291,0 L0.561319291,0 C0.561319291,0 0.392976456,0.396761134 0.149302124,0.976583871" id="path-45"></path>
        <linearGradient x1="0.0162442428%" y1="50.0017798%" x2="99.9959059%" y2="50.0017798%" id="linearGradient-47">
            <stop stop-color="#D852F9" offset="0%"></stop>
            <stop stop-color="#2A67DD" offset="100%"></stop>
        </linearGradient>
    </defs>
    <g id="logo" stroke="none" stroke-width="1" fill="none" fill-rule="evenodd">
        <g id="编组备份-4">
            <g id="编组">
                <path d="M53.4698354,22.639129 L53.4698354,26.9276726 L55.0333483,26.9276726 C55.7789764,26.9276726 56.3793223,26.7109093 56.8328486,26.2781486 C57.286375,25.8461538 57.5131382,25.3061604 57.5131382,24.6581683 C57.5131382,23.3123974 56.706015,22.639129 55.0909999,22.639129 L53.4698354,22.639129 Z M62.6180001,35.1194879 L58.9505861,35.1194879 L56.6060855,31.2445563 C56.1233489,30.4433745 55.7282429,29.9278915 55.41923,29.6965751 C55.1102172,29.4660247 54.7819871,29.3503666 54.4345397,29.3503666 L53.4698354,29.3503666 L53.4698354,35.1194879 L50.2851579,35.1194879 L50.2851579,20.2256264 L55.5253091,20.2256264 C59.0828006,20.2256264 60.8615463,21.5721633 60.8615463,24.2644709 C60.8615463,25.2770544 60.5640638,26.1456396 59.9690987,26.8702265 C59.3741336,27.5940475 58.5554801,28.1041689 57.5131382,28.399059 L57.5131382,28.4373564 C58.2011146,28.6679068 58.9636538,29.4246635 59.7999872,30.7060948 L62.6180001,35.1194879 Z" id="Fill-1" fill="#000000"></path>
                <path d="M70.4261098,28.7352336 C70.4261098,27.1458912 69.7796426,26.3508371 68.4867081,26.3508371 C67.9524694,26.3508371 67.4797258,26.5683663 67.0677087,27.0041908 C66.6564602,27.4407813 66.3989495,28.0175402 66.2959452,28.7352336 L70.4261098,28.7352336 Z M73.3309846,30.6776781 L66.3059381,30.6776781 C66.4150919,32.3252325 67.4120812,33.1486268 69.296906,33.1486268 C70.4745372,33.1486268 71.5130357,32.8598643 72.4139389,32.2831054 L72.4139389,34.5618011 C71.4423163,35.1071561 70.1685991,35.3790677 68.5927871,35.3790677 C66.8947537,35.3790677 65.5741464,34.901882 64.631734,33.9467447 C63.6893216,32.9916074 63.2181154,31.6619214 63.2181154,29.9561549 C63.2181154,28.2580479 63.7200692,26.8778094 64.723208,25.8169712 C65.7271155,24.7561331 66.987765,24.225331 68.5059253,24.225331 C70.0179361,24.225331 71.2001794,24.682602 72.0526552,25.5956122 C72.9043623,26.5093883 73.3309846,27.7640114 73.3309846,29.3602473 L73.3309846,30.6776781 Z" id="Fill-3" fill="#000000"></path>
                <path d="M85.2067645,24.4852938 L81.2018961,35.1197177 L77.6797643,35.1197177 L73.8686055,24.4852938 L77.2070207,24.4852938 L79.1664083,31.1773826 C79.3785664,31.9080972 79.4969445,32.5208557 79.5230799,33.0141263 L79.5715073,33.0141263 C79.6230094,32.5078346 79.7483057,31.9149907 79.9473961,31.2355947 L81.9452181,24.4852938 L85.2067645,24.4852938 Z" id="Fill-5" fill="#000000"></path>
                <path d="M89.1632054,29.8121567 C89.1632054,31.933833 90.0318237,32.9946712 91.7682916,32.9946712 C93.4348088,32.9946712 94.2680674,31.9054929 94.2680674,29.7256046 C94.2680674,27.6491192 93.4286593,26.6104935 91.7490744,26.6104935 C90.9319582,26.6104935 90.2970213,26.8892986 89.843495,27.4469089 C89.3899686,28.0045191 89.1632054,28.7926797 89.1632054,29.8121567 M86.0077381,29.8504541 C86.0077381,28.1010286 86.5335212,26.7253857 87.5850874,25.7258234 C88.6374223,24.7254951 90.0510409,24.225331 91.8267119,24.225331 C93.5439626,24.225331 94.9076164,24.7178356 95.9176734,25.7013131 C96.9277304,26.6855564 97.432759,28.0075829 97.432759,29.6681584 C97.432759,31.4114564 96.9146627,32.7993544 95.879239,33.8310866 C94.8438153,34.8635846 93.4409583,35.3790677 91.6722055,35.3790677 C89.9349689,35.3790677 88.55671,34.8842652 87.5374287,33.8938943 C86.5173788,32.9035234 86.0077381,31.5554546 86.0077381,29.8504541" id="Fill-7" fill="#000000"></path>
                <mask id="mask-2" fill="white">
                    <use xlink:href="#path-1"></use>
                </mask>
                <g id="Clip-10"></g>
                <polygon id="Fill-9" fill="#000000" mask="url(#mask-2)" points="99.6635706 35.1194879 102.77061 35.1194879 102.77061 19.3792537 99.6635706 19.3792537"></polygon>
                <path d="M115.636308,35.1197943 L112.539261,35.1197943 L112.539261,33.4944523 L112.490833,33.4944523 C111.692934,34.7513732 110.602165,35.3794507 109.219294,35.3794507 C106.736429,35.3794507 105.494228,33.8858518 105.494228,30.8986541 L105.494228,24.4853704 L108.611261,24.4853704 L108.611261,30.6098917 C108.611261,32.2 109.235437,32.9950542 110.483787,32.9950542 C111.107194,32.9950542 111.606073,32.7767589 111.978887,32.3409345 C112.352469,31.90511 112.539261,31.3153299 112.539261,30.5715943 L112.539261,24.4853704 L115.636308,24.4853704 L115.636308,35.1197943 Z" id="Fill-11" fill="#000000" mask="url(#mask-2)"></path>
                <path d="M124.844584,34.9947916 C124.374915,35.2513842 123.663878,35.3792975 122.712241,35.3792975 C120.447684,35.3792975 119.315406,34.1936098 119.315406,31.8214684 L119.315406,26.8022103 L117.558952,26.8022103 L117.558952,24.4852172 L119.315406,24.4852172 L119.315406,22.1490754 L122.412453,21.2644053 L122.412453,24.4852172 L124.844584,24.4852172 L124.844584,26.8022103 L122.412453,26.8022103 L122.412453,31.2830069 C122.412453,32.418142 122.862904,32.9849436 123.763808,32.9849436 C124.111255,32.9849436 124.47177,32.8830725 124.844584,32.6777984 L124.844584,34.9947916 Z" id="Fill-12" fill="#000000" mask="url(#mask-2)"></path>
                <path d="M126.795977,35.1194879 L129.903017,35.1194879 L129.903017,24.485064 L126.795977,24.485064 L126.795977,35.1194879 Z M126.564602,21.0528504 C126.564602,20.5779626 126.733713,20.1919247 127.071168,19.8939709 C127.408622,19.5960171 127.841394,19.4466572 128.368714,19.4466572 C128.909103,19.4466572 129.346486,19.5990809 129.681635,19.9039282 C130.016014,20.2080096 130.183588,20.5909837 130.183588,21.0528504 C130.183588,21.5208447 130.01294,21.9099464 129.671642,22.2209213 C129.330344,22.5318963 128.896804,22.6873837 128.368714,22.6873837 C127.847543,22.6873837 127.417078,22.5303644 127.07578,22.2163256 C126.734482,21.9022869 126.564602,21.5139512 126.564602,21.0528504 L126.564602,21.0528504 Z" id="Fill-13" fill="#000000" mask="url(#mask-2)"></path>
                <path d="M135.309436,29.8121567 C135.309436,31.933833 136.178054,32.9946712 137.914522,32.9946712 C139.581039,32.9946712 140.414298,31.9054929 140.414298,29.7256046 C140.414298,27.6491192 139.57489,26.6104935 137.895305,26.6104935 C137.078188,26.6104935 136.443252,26.8892986 135.989725,27.4469089 C135.536199,28.0045191 135.309436,28.7926797 135.309436,29.8121567 M132.153968,29.8504541 C132.153968,28.1010286 132.679751,26.7253857 133.731318,25.7258234 C134.783653,24.7254951 136.197271,24.225331 137.972942,24.225331 C139.690193,24.225331 141.053847,24.7178356 142.063904,25.7013131 C143.073961,26.6855564 143.578989,28.0075829 143.578989,29.6681584 C143.578989,31.4114564 143.060893,32.7993544 142.025469,33.8310866 C140.990045,34.8635846 139.587189,35.3790677 137.818436,35.3790677 C136.081199,35.3790677 134.70294,34.8842652 133.683659,33.8938943 C132.663609,32.9035234 132.153968,31.5554546 132.153968,29.8504541" id="Fill-14" fill="#000000" mask="url(#mask-2)"></path>
                <path d="M156.000384,35.1197943 L152.902569,35.1197943 L152.902569,29.187526 C152.902569,27.4695043 152.281468,26.6101105 151.040036,26.6101105 C150.448146,26.6101105 149.956185,26.839895 149.564153,27.2979319 C149.171354,27.7559689 148.975338,28.3411533 148.975338,29.0527191 L148.975338,35.1197943 L145.858305,35.1197943 L145.858305,24.4853704 L148.975338,24.4853704 L148.975338,26.1773498 L149.013772,26.1773498 C149.792454,24.8760039 150.937032,24.225714 152.449042,24.225714 C154.816604,24.225714 156.000384,25.687143 156.000384,28.6100011 L156.000384,35.1197943 Z" id="Fill-15" fill="#000000" mask="url(#mask-2)"></path>
            </g>
            <g id="编组" transform="translate(24.473512, 30.951198)">
                <mask id="mask-4" fill="white">
                    <use xlink:href="#path-3"></use>
                </mask>
                <g id="Clip-17"></g>
                <path d="M0,2.5873728 C1.49125617,3.35102309 2.83184934,5.06061932 2.83184934,6.84910822 L2.83184934,6.84910822 C2.83184934,7.55071671 2.67349946,8.21479374 2.39369675,8.80840355 L2.39369675,8.80840355 C2.40292102,8.81989277 2.41445135,8.83138199 2.42367561,8.84210526 L2.42367561,8.84210526 C3.91185702,10.4659153 6.05496125,11.4838604 8.43866504,11.4838604 L8.43866504,11.4838604 C12.4443021,11.4838604 15.773493,8.60542729 16.4537826,4.81015428 L16.4537826,4.81015428 C15.2169624,6.10460663 7.98360131,8.76321261 6.51002498,4.46317978 L6.51002498,4.46317978 C6.0718724,3.18328045 6.90359362,2.13086771 7.19415797,2.13086771 L7.19415797,2.13086771 L7.19415797,2.12780392 C7.10422138,2.12780392 7.01351611,2.13086771 6.92434822,2.13086771 L6.92434822,2.13086771 C6.26020114,2.13086771 5.61065915,2.06576212 4.98110307,1.94167852 L4.98110307,1.94167852 C4.0571392,1.76091476 3.17622189,1.45070577 2.36218051,1.03402998 L2.36218051,1.03402998 C1.86945103,0.782033045 1.08077638,0.327825802 0.640317725,0 L0.640317725,0 C0.291333034,0.804245541 0.0691819871,1.67512857 0,2.5873728" id="Fill-16" fill="url(#linearGradient-5)" mask="url(#mask-4)"></path>
            </g>
            <g id="编组" transform="translate(24.220888, 30.876135)">
                <mask id="mask-7" fill="white">
                    <use xlink:href="#path-6"></use>
                </mask>
                <g id="Clip-19"></g>
                <path d="M0.0981176106,2.6839801 C1.59014246,3.44839634 3.04488683,5.33897683 2.96974705,6.90773337 C2.89460727,8.47648991 2.89460727,8.16804328 2.61480456,8.76165308 C2.62402883,8.7731423 2.45799206,9.21359011 2.46644763,9.22507933 C3.95616642,10.8481234 6.30758529,11.5589233 8.69128909,11.5589233 C12.6969261,11.5589233 16.0261171,8.68049021 16.7064066,4.8852172 C16.7064066,4.8852172 12.7084565,11.3666703 6.51282519,8.4353868 C2.09055884,6.34358245 4.02227365,1.31130321 4.02227365,1.31130321 C4.02227365,1.31130321 2.72626443,1.16653901 2.61480456,1.1090929 C2.12207508,0.857095962 1.17889399,0.327825802 0.738435335,0 C0.390219334,0.804245541 0.0699506758,1.77096993 0,2.6839801 L0.0981176106,2.6839801 Z" id="Fill-18" fill="url(#linearGradient-8)" mask="url(#mask-7)"></path>
            </g>
            <g id="编组" transform="translate(2.646595, 13.966298)">
                <mask id="mask-10" fill="white">
                    <use xlink:href="#path-9"></use>
                </mask>
                <g id="Clip-25"></g>
                <path d="M1.0515662,1.210964 C3.10012171,3.38166101 5.65216834,5.07670423 8.51783998,6.1153299 L8.51783998,6.1153299 C9.6301326,6.51821862 10.7908526,6.82153408 11.9861636,7.01455301 L11.9861636,7.01455301 C13.0062136,7.1830616 14.0531676,7.26961374 15.1201076,7.26961374 L15.1201076,7.26961374 C15.5182884,7.26961374 15.9157005,7.25812452 16.306963,7.23131634 L16.306963,7.23131634 C17.2363077,7.17923186 18.1456665,7.05591421 19.0342707,6.87285261 L19.0342707,6.87285261 C20.0481712,6.66681256 21.0351675,6.37958201 21.9852668,6.01728854 L21.9852668,6.01728854 C22.0067901,6.00809717 22.0321568,6.00120363 22.0536801,5.99124631 L22.0536801,5.99124631 C22.2404715,5.92001313 22.4249568,5.84724806 22.6086734,5.7698873 L22.6086734,5.7698873 C22.5187368,5.77295109 22.4272628,5.77448299 22.3357889,5.77448299 L22.3357889,5.77448299 C21.3580168,5.77448299 20.4132983,5.63814422 19.5154699,5.38691323 L19.5154699,5.38691323 C18.4416117,5.08512966 17.4361668,4.61636941 16.5337262,4.00897254 L16.5337262,4.00897254 C15.8495932,3.54633986 15.225418,3.00558048 14.6711934,2.40048145 L14.6711934,2.40048145 C13.5127795,2.85698654 12.2836461,3.17102528 11.0014733,3.31578947 L11.0014733,3.31578947 C11.0014733,3.31578947 11.0014733,3.31808732 10.9983986,3.31578947 L10.9983986,3.31578947 C10.9369035,3.32498085 10.8746397,3.33110844 10.8123759,3.33493818 L10.8123759,3.33493818 C10.3288707,3.38702265 9.83844725,3.41076704 9.34033694,3.41076704 L9.34033694,3.41076704 C9.15354558,3.41076704 8.9675229,3.4069373 8.7830376,3.40004377 L8.7830376,3.40004377 C8.03971559,3.37323558 7.31099865,3.28898129 6.60149894,3.15264252 L6.60149894,3.15264252 C4.68977003,2.78881716 2.91256166,2.04891126 1.34828006,1.01181749 L1.34828006,1.01181749 C0.880148613,0.702374439 0.42892832,0.36535726 0,0 L0,0 C0.332842227,0.418207681 0.684132983,0.823394244 1.0515662,1.210964" id="Fill-24" fill="url(#linearGradient-11)" mask="url(#mask-10)"></path>
            </g>
            <g id="编组" transform="translate(2.646595, 13.966298)">
                <mask id="mask-13" fill="white">
                    <use xlink:href="#path-12"></use>
                </mask>
                <g id="Clip-29"></g>
                <path d="M0.0584203446,0.0704672284 C0.587278201,0.693183062 4.79661777,5.34248824 12.67414,5.33178348 L12.67414,5.33178348 C14.2199731,5.32946712 15.8372942,5.00393916 17.3892768,4.52368968 L17.3892768,4.52368968 C17.094869,4.36513842 16.8096855,4.19433198 16.5337262,4.00897254 L16.5337262,4.00897254 C15.8495932,3.54633986 15.225418,3.00558048 14.6711934,2.40048145 L14.6711934,2.40048145 C13.5127795,2.85698654 12.2836461,3.17102528 11.0014733,3.31578947 L11.0014733,3.31578947 C11.0014733,3.31578947 11.0014733,3.31808732 10.9983986,3.31578947 L10.9983986,3.31578947 C10.9369035,3.32498085 10.8746397,3.33110844 10.8123759,3.33493818 L10.8123759,3.33493818 C10.3288707,3.38702265 9.83844725,3.41076704 9.34033694,3.41076704 L9.34033694,3.41076704 C9.15354558,3.41076704 8.9675229,3.4069373 8.7830376,3.40004377 L8.7830376,3.40004377 C8.03971559,3.37323558 7.31099865,3.28898129 6.60149894,3.15264252 L6.60149894,3.15264252 C4.68977003,2.78881716 2.91256166,2.04891126 1.34828006,1.01181749 L1.34828006,1.01181749 C0.880148613,0.702374439 0.42892832,0.36535726 3.41366377e-16,0 L3.41366377e-16,0 C0.0192172186,0.0237443922 0.039203126,0.0459568881 0.0584203446,0.0704672284" id="Fill-28" fill="url(#linearGradient-14)" mask="url(#mask-13)"></path>
            </g>
            <g id="编组" transform="translate(10.971494, 26.608272)">
                <mask id="mask-16" fill="white">
                    <use xlink:href="#path-15"></use>
                </mask>
                <g id="Clip-31"></g>
                <path d="M4.07020691,0.458802932 C2.48978285,0.965860597 1.09076933,1.87887077 0,3.07221797 C0.618025751,2.93511325 1.25988085,2.86464602 1.91787842,2.86464602 C2.58740632,2.86464602 3.23925437,2.93664515 3.86419832,3.07604771 C4.86349369,3.29817267 5.7982192,3.68804027 6.63916469,4.21271474 C7.79834732,4.93653573 8.77842547,5.91924718 9.49868682,7.07889266 C10.0805842,6.8138746 10.7301262,6.66451472 11.4150279,6.66451472 C12.1775671,6.66451472 12.7141118,6.73345005 13.3475114,7.05897801 C13.417462,6.14520188 13.6396131,5.27585075 13.9878291,4.47160521 C12.7141118,3.52259547 11.8850978,2.39894956 11.1840536,0.963562753 C9.92647885,0.346974505 8.4824803,0 6.986612,0 C6.57228877,0 6.16411505,0.0268081847 5.7643969,0.0788926578 C5.18173083,0.152423679 4.61443854,0.281102965 4.07020691,0.458802932 Z" id="Fill-30" fill="url(#linearGradient-17)" mask="url(#mask-16)"></path>
            </g>
            <g id="编组" transform="translate(14.970213, 13.047161)">
                <mask id="mask-19" fill="white">
                    <use xlink:href="#path-18"></use>
                </mask>
                <g id="Clip-33"></g>
                <path d="M2.12542438,3.54251012 C2.67811159,4.14607725 3.30382423,4.68683663 3.98949459,5.14870336 L3.98949459,5.14870336 C4.89116649,5.75610023 5.89584268,6.22562644 6.96970085,6.52741 L6.96970085,6.52741 C7.86752931,6.78017289 8.81147909,6.91497976 9.79001986,6.91497976 L9.79001986,6.91497976 C9.88149382,6.91497976 9.97296778,6.91268191 10.0629044,6.91038407 L10.0629044,6.91038407 C10.2496957,6.90578838 10.4349497,6.89736295 10.6163603,6.88127804 L10.6163603,6.88127804 C10.7747101,6.86595908 10.9353661,6.85753365 11.0944847,6.85753365 L11.0944847,6.85753365 C13.6757415,6.85753365 15.7642688,8.94091257 15.7642688,11.5129664 L15.7642688,11.5129664 C15.7642688,12.3417223 15.5482672,13.1191596 15.1669976,13.7924281 L15.1669976,13.7924281 C14.447505,15.0700295 13.1376593,15.9746143 11.6064314,16.1377612 L11.6064314,16.1377612 C11.4373198,16.1576759 11.2674396,16.1676332 11.0944847,16.1676332 L11.0944847,16.1676332 C10.8285184,16.1676332 10.5656268,16.1446548 10.3104221,16.1009957 L10.3104221,16.1009957 L10.3081161,16.1009957 C9.60553456,15.9830397 8.95445519,15.7057665 8.39638716,15.3097713 L8.39638716,15.3097713 C7.95208507,15.0661998 7.53161232,14.7843309 7.137275,14.47259 L7.137275,14.47259 C7.16725386,14.5361637 7.19569534,14.6012693 7.22874896,14.6633111 L7.22874896,14.6633111 C7.92979309,16.0986979 8.9675229,17.3387679 10.2412402,18.2870117 L10.2412402,18.2870117 C10.6816988,18.6140716 11.1505989,18.9074297 11.6440971,19.1601926 L11.6440971,19.1601926 C12.4573698,19.5768684 13.3382871,19.8863114 14.262251,20.0670752 L14.262251,20.0670752 C14.8918071,20.1911588 15.5405804,20.2562644 16.2062648,20.2562644 L16.2062648,20.2562644 C16.294664,20.2562644 16.386138,20.2539665 16.4745372,20.2539665 L16.4745372,20.2539665 C19.5623599,20.1712441 22.3011979,18.6914323 24.0768689,16.4303534 L24.0768689,16.4303534 C24.7548523,15.564832 25.2952405,14.5859503 25.6580616,13.5228143 L25.6580616,13.5228143 C26.0039716,12.5148266 26.1907629,11.4333078 26.1907629,10.30813 L26.1907629,10.30813 C26.1907629,5.86946055 23.2720518,2.11018711 19.2441227,0.831053726 L19.2441227,0.831053726 C19.2441227,0.831053726 19.2441227,0.831053726 19.243354,0.831053726 L19.243354,0.831053726 C19.2441227,0.831053726 19.243354,0.831053726 19.2441227,0.831053726 L19.2441227,0.831053726 C19.1634104,0.803479593 19.0834668,0.778969253 19.0019858,0.75522486 L19.0019858,0.75522486 C18.7221831,0.675566255 18.4369996,0.605864974 18.1487413,0.54995076 L18.1487413,0.54995076 C17.5191852,0.425101215 16.8704119,0.361527519 16.2062648,0.361527519 L16.2062648,0.361527519 C15.1716098,0.361527519 14.1730831,0.518546887 13.2383576,0.807309334 L13.2383576,0.807309334 C13.2260585,0.810373126 13.2152969,0.814968815 13.2068413,0.819564504 L13.2068413,0.819564504 C13.0623278,0.869351133 12.9178144,0.919137761 12.7740696,0.965094649 L12.7740696,0.965094649 C11.1329191,1.50125834 9.37877138,1.79155269 7.55851643,1.79155269 L7.55851643,1.79155269 C6.93818461,1.79155269 6.32707706,1.75861692 5.72673115,1.69121348 L5.72673115,1.69121348 C5.64371277,1.68278805 5.56223176,1.67436262 5.47921338,1.6628734 L5.47921338,1.6628734 C3.52751265,1.42389758 1.68265966,0.847904585 0,0 L0,0 C0.467362757,1.32355838 1.19454231,2.52456505 2.12542438,3.54251012" id="Fill-32" fill="url(#linearGradient-20)" mask="url(#mask-19)"></path>
            </g>
            <g id="编组" transform="translate(14.970213, 13.047161)">
                <mask id="mask-22" fill="white">
                    <use xlink:href="#path-21"></use>
                </mask>
                <g id="Clip-37"></g>
                <path d="M0,0 L0.00384344373,0.00612758507 C0.0476587022,0.0949775687 0.578053936,2.11018711 3.37838703,3.36098041 L3.37838703,3.36098041 C6.13874832,4.59262501 8.22804433,4.39118065 10.4472487,4.18973629 L10.4472487,4.18973629 C11.7117417,4.07484407 13.0177439,3.95995185 14.5159183,4.10931174 L14.5159183,4.10931174 C22.3373262,4.89287668 23.46653,15.2730058 16.8942412,17.3303425 L16.8942412,17.3303425 C9.94529498,19.5064011 7.22874896,14.6633111 7.22874896,14.6633111 L7.22874896,14.6633111 C7.92979309,16.0986979 8.9675229,17.3387679 10.2412402,18.2870117 L10.2412402,18.2870117 C10.6816988,18.6140716 11.1505989,18.9074297 11.6440971,19.1601926 L11.6440971,19.1601926 C12.4573698,19.5768684 13.3382871,19.8863114 14.262251,20.0670752 L14.262251,20.0670752 C14.8918071,20.1911588 15.5405804,20.2562644 16.2062648,20.2562644 L16.2062648,20.2562644 C16.294664,20.2562644 16.386138,20.2539665 16.4745372,20.2539665 L16.4745372,20.2539665 C19.5623599,20.1712441 22.3011979,18.6914323 24.0768689,16.4303534 L24.0768689,16.4303534 C24.7548523,15.564832 25.2952405,14.5859503 25.6580616,13.5228143 L25.6580616,13.5228143 C26.0039716,12.5148266 26.1907629,11.4333078 26.1907629,10.30813 L26.1907629,10.30813 C26.1907629,5.86946055 23.2720518,2.11018711 19.2441227,0.831053726 L19.2441227,0.831053726 C19.2441227,0.831053726 19.2441227,0.831053726 19.243354,0.831053726 L19.243354,0.831053726 C19.2441227,0.831053726 19.243354,0.831053726 19.2441227,0.831053726 L19.2441227,0.831053726 C19.1634104,0.803479593 19.0834668,0.778969253 19.0019858,0.75522486 L19.0019858,0.75522486 C18.7221831,0.675566255 18.4369996,0.605864974 18.1487413,0.54995076 L18.1487413,0.54995076 C17.5191852,0.425101215 16.8704119,0.361527519 16.2062648,0.361527519 L16.2062648,0.361527519 C15.1716098,0.361527519 14.1730831,0.518546887 13.2383576,0.807309334 L13.2383576,0.807309334 C13.2260585,0.810373126 13.2152969,0.814968815 13.2068413,0.819564504 L13.2068413,0.819564504 C13.0623278,0.869351133 12.9178144,0.919137761 12.7740696,0.965094649 L12.7740696,0.965094649 C11.1329191,1.50202429 9.37877138,1.79155269 7.55851643,1.79155269 L7.55851643,1.79155269 C6.93818461,1.79155269 6.32707706,1.75861692 5.72673115,1.69121348 L5.72673115,1.69121348 C5.64371277,1.68278805 5.56223176,1.67436262 5.47921338,1.6628734 L5.47921338,1.6628734 C3.52751265,1.42389758 1.68265966,0.848670533 0.000768688745,0 L0.000768688745,0 L0,0 Z" id="Fill-36" fill="url(#linearGradient-23)" mask="url(#mask-22)"></path>
            </g>
            <g id="编组" transform="translate(10.971494, 28.685524)">
                <mask id="mask-25" fill="white">
                    <use xlink:href="#path-24"></use>
                </mask>
                <g id="Clip-39"></g>
                <path d="M0.0591890334,0.933690776 C0.0399718147,0.955137324 0.0192172186,0.974286027 0,0.994966627 L0,0.994966627 C0.618025751,0.85786191 1.25988085,0.787394682 1.91787842,0.787394682 L1.91787842,0.787394682 C2.58740632,0.787394682 3.23925437,0.859393807 3.86419832,0.998796367 L3.86419832,0.998796367 C4.86349369,1.22092133 5.7982192,1.61078893 6.63916469,2.1354634 L6.63916469,2.1354634 C7.79834732,2.85928439 8.85990648,4.00897254 9.58016783,5.16861801 L9.58016783,5.16861801 C10.1628339,4.90359996 10.7301262,4.58726338 11.4150279,4.58726338 L11.4150279,4.58726338 C11.6963679,4.58726338 11.9723272,4.61330561 12.2398309,4.66232629 L12.2398309,4.66232629 L12.2559734,4.6179013 C12.2559734,4.6179013 10.2927423,0.824926141 6.12721799,0.165444797 L6.12721799,0.165444797 C5.3885081,0.0474887843 4.70744988,0 4.08942412,0 L4.08942412,0 C1.74646083,0 0.312087631,0.691651165 0.0591890334,0.933690776" id="Fill-38" fill="url(#linearGradient-26)" mask="url(#mask-25)"></path>
            </g>
            <g id="编组" transform="translate(10.971494, 28.685524)">
                <mask id="mask-28" fill="white">
                    <use xlink:href="#path-27"></use>
                </mask>
                <g id="Clip-41"></g>
                <path d="M0.0591890334,0.933690776 C0.0399718147,0.955137324 0.0192172186,0.974286027 0,0.994966627 L0,0.994966627 C0.618025751,0.85786191 1.25988085,0.787394682 1.91787842,0.787394682 L1.91787842,0.787394682 C2.58740632,0.787394682 3.23925437,0.859393807 3.86419832,0.998796367 L3.86419832,0.998796367 C4.86349369,1.22092133 5.7982192,1.61078893 6.63916469,2.1354634 L6.63916469,2.1354634 C7.79834732,2.85928439 8.85990648,4.00897254 9.58016783,5.16861801 L9.58016783,5.16861801 C10.1628339,4.90359996 10.7301262,4.58726338 11.4150279,4.58726338 L11.4150279,4.58726338 C11.6963679,4.58726338 11.9723272,4.61330561 12.2398309,4.66232629 L12.2398309,4.66232629 L12.2559734,4.6179013 C12.2559734,4.6179013 10.2927423,0.824926141 6.12721799,0.165444797 L6.12721799,0.165444797 C5.3885081,0.0474887843 4.70744988,0 4.08942412,0 L4.08942412,0 C1.74646083,0 0.312087631,0.691651165 0.0591890334,0.933690776" id="Fill-40" fill="url(#linearGradient-29)" mask="url(#mask-28)"></path>
            </g>
            <g id="编组" transform="translate(18.056499, 33.190065)">
                <mask id="mask-31" fill="white">
                    <use xlink:href="#path-30"></use>
                </mask>
                <g id="Clip-43"></g>
                <path d="M2.70732176,0.413611993 C1.10844917,1.13743298 0,2.74669001 0,4.61024182 L0,4.61024182 C0,4.62556078 0,4.6385819 0.00153737749,4.65313492 L0.00153737749,4.65313492 C0.933956825,3.7156144 2.22919736,3.13196192 3.65895843,3.13196192 L3.65895843,3.13196192 C3.71122926,3.13196192 3.76426878,3.13196192 3.81577093,3.13655761 L3.81577093,3.13655761 C5.50150535,3.18481234 6.98199987,4.03884451 7.88290308,5.32716927 L7.88290308,5.32716927 C7.88674652,5.33176496 7.8882839,5.33636065 7.89058997,5.34019039 L7.89058997,5.34019039 C7.96822753,5.44665718 8.03971559,5.55771966 8.10505413,5.67107999 L8.10505413,5.67107999 L8.10582282,5.67337783 C8.33335469,6.0563519 8.5101531,6.47226174 8.63083723,6.91115002 L8.63083723,6.91115002 C8.69540708,6.79932159 8.75536481,6.68749316 8.8107104,6.56953715 L8.8107104,6.56953715 C9.0905131,5.97592734 9.24886298,5.31185031 9.24886298,4.61024182 L9.24886298,4.61024182 C9.24886298,2.82175293 8.22881302,1.27377175 6.73678816,0.510121457 L6.73678816,0.510121457 C6.10338864,0.183827552 5.38620204,0 4.6236628,0 L4.6236628,0 C3.93876113,0 3.28998783,0.148593938 2.70732176,0.413611993" id="Fill-42" fill="url(#linearGradient-32)" mask="url(#mask-31)"></path>
            </g>
            <g id="编组" transform="translate(18.058036, 34.899661)">
                <mask id="mask-34" fill="white">
                    <use xlink:href="#path-33"></use>
                </mask>
                <g id="Clip-47"></g>
                <path d="M0,2.94353868 C0.932419448,2.00601816 2.22765998,1.42236569 3.65742105,1.42236569 L3.65742105,1.42236569 C3.70969188,1.42236569 3.76273141,1.42236569 3.81423355,1.42696137 L3.81423355,1.42696137 C5.49996797,1.47521611 6.98046249,2.32924828 7.8813657,3.61757304 L7.8813657,3.61757304 C7.88520915,3.62216873 7.88674652,3.62676442 7.88905259,3.63059416 L7.88905259,3.63059416 C7.96669015,3.73706095 8.03817821,3.84812343 8.10351675,3.96148375 L8.10351675,3.96148375 L8.10428544,3.9637816 C8.33181731,4.34675566 8.50861572,4.7626655 8.62929985,5.20155378 L8.62929985,5.20155378 C8.62929985,5.20155378 8.98750881,0 4.31464993,0 L4.31464993,0 C0.852475818,0 0,2.94353868 0,2.94353868" id="Fill-46" fill="url(#linearGradient-35)" mask="url(#mask-34)"></path>
            </g>
            <g id="编组" transform="translate(0.000000, 22.161177)">
                <mask id="mask-37" fill="white">
                    <use xlink:href="#path-36"></use>
                </mask>
                <g id="Clip-49"></g>
                <path d="M0,0 C0.44737685,2.45945946 2.21766703,4.55049787 4.68054577,5.34938177 L4.68054577,5.34938177 C4.95343027,5.43746581 5.23477035,5.51023088 5.52456601,5.56614509 L5.52456601,5.56614509 C7.58695791,5.96060838 9.609378,5.40299814 11.1367625,4.20428931 L11.1367625,4.20428931 L11.1382999,4.20658715 C11.9177503,3.61527519 12.9178144,3.32268301 13.950932,3.45595798 L13.950932,3.45595798 C13.6803536,2.96421928 13.3244507,2.52073531 12.9016719,2.14695262 L12.9016719,2.14695262 C12.2559734,1.57478936 11.454231,1.16730496 10.5487156,0.99343473 L10.5487156,0.99343473 C9.42028057,0.777437356 8.30645058,0.961264909 7.35788867,1.44687603 L7.35788867,1.44687603 L7.35404522,1.43921654 C6.19409391,2.03589014 4.83120876,2.26261079 3.44833771,1.99835868 L3.44833771,1.99835868 C2.05086157,1.73104278 0.857087951,1.00262611 0,0 Z" id="Fill-48" fill="url(#linearGradient-38)" mask="url(#mask-37)"></path>
            </g>
            <g id="编组" transform="translate(0.000000, 22.161177)">
                <mask id="mask-40" fill="white">
                    <use xlink:href="#path-39"></use>
                </mask>
                <g id="Clip-53"></g>
                <path d="M0,0 C0.44737685,2.45945946 2.30299148,5.31185031 5.5253347,5.81507824 L5.5253347,5.81507824 C7.91980014,6.18962687 9.609378,5.40299814 11.1367625,4.20428931 L11.1367625,4.20428931 L11.1382999,4.20658715 C11.9177503,3.61527519 12.9178144,3.32268301 13.950932,3.45595798 L13.950932,3.45595798 C13.950932,3.45595798 11.8462623,2.03282635 9.7800269,2.53299048 L9.7800269,2.53299048 C7.58311447,3.06379254 6.97661905,4.1070139 5.27474217,4.09246088 L5.27474217,4.09246088 C1.42361156,4.06105701 0,0 0,0 Z" id="Fill-52" fill="url(#linearGradient-41)" mask="url(#mask-40)"></path>
            </g>
            <g id="编组" transform="translate(5.089963, 7.624248)">
                <mask id="mask-43" fill="white">
                    <use xlink:href="#path-42"></use>
                </mask>
                <g id="Clip-55"></g>
                <path d="M0.853538569,4.55815735 C0.959617616,4.69449612 1.0764583,4.82700514 1.20252326,4.95262064 L1.20252326,4.95262064 C2.12802451,5.8717584 3.38483061,6.25779626 4.58936587,6.11226611 L4.58936587,6.11226611 L4.59013456,6.12222344 C5.15127734,6.04256483 5.73855554,6.17047817 6.22206076,6.51132509 L6.22206076,6.51132509 C6.26664471,6.19422256 6.25972651,5.87482219 6.20053748,5.5615494 L6.20053748,5.5615494 C6.09522712,5.00393916 5.82541737,4.47160521 5.39187692,4.04190831 L5.39187692,4.04190831 C4.91298383,3.56548857 4.30956317,3.28974724 3.68385053,3.21468432 L3.68385053,3.21468432 L3.68538791,3.20932268 C2.92131129,3.1204727 2.18029534,2.78268957 1.59378583,2.19903709 L1.59378583,2.19903709 C0.976528768,1.58551264 0.632924899,0.803479593 0.562974223,0 L0.562974223,0 C-0.27412782,1.41853594 -0.178041727,3.23153518 0.853538569,4.55815735" id="Fill-54" fill="url(#linearGradient-44)" mask="url(#mask-43)"></path>
            </g>
            <g id="编组" transform="translate(5.091618, 7.624248)">
                <mask id="mask-46" fill="white">
                    <use xlink:href="#path-45"></use>
                </mask>
                <g id="Clip-59"></g>
                <path d="M0.149302124,0.976583871 C-0.187383546,2.18678192 0.0447604546,3.52106357 0.851883637,4.55815735 L0.851883637,4.55815735 C0.957962684,4.69449612 1.07480337,4.82700514 1.20086833,4.95262064 L1.20086833,4.95262064 C2.12636958,5.8717584 3.38317567,6.25779626 4.58771094,6.11226611 L4.58771094,6.11226611 L4.58847963,6.12222344 C5.14962241,6.04256483 5.73690061,6.17047817 6.22040583,6.51132509 L6.22040583,6.51132509 C6.22040583,6.51132509 5.29259852,5.30648867 4.34480529,4.82777109 L4.34480529,4.82777109 C3.23405006,4.26633111 2.12252613,4.62556078 1.01253958,3.48736186 L1.01253958,3.48736186 C-0.132806645,2.31546121 0.561319291,0 0.561319291,0 L0.561319291,0 C0.561319291,0 0.392976456,0.396761134 0.149302124,0.976583871" id="Fill-58" fill="url(#linearGradient-47)" mask="url(#mask-46)"></path>
            </g>
        </g>
    </g>
</svg>