<?xml version="1.0" encoding="UTF-8"?>
<svg width="46px" height="39px" viewBox="0 0 46 39" version="1.1" xmlns="http://www.w3.org/2000/svg" xmlns:xlink="http://www.w3.org/1999/xlink">
    <title>logo备份 3</title>
    <defs>
        <linearGradient x1="8.09027205%" y1="38.6246016%" x2="97.5515251%" y2="69.9683688%" id="linearGradient-1">
            <stop stop-color="#1000FF" offset="0%"></stop>
            <stop stop-color="#8A2EFF" offset="100%"></stop>
        </linearGradient>
        <linearGradient x1="-0.0612494896%" y1="49.9684579%" x2="99.9808085%" y2="49.9684579%" id="linearGradient-2">
            <stop stop-color="#0009D0" offset="0%"></stop>
            <stop stop-color="#6704C8" offset="100%"></stop>
        </linearGradient>
        <linearGradient x1="-1.78050975%" y1="48.3387946%" x2="99.7025487%" y2="53.6907735%" id="linearGradient-3">
            <stop stop-color="#0031E7" offset="0.2639932%"></stop>
            <stop stop-color="#00BDFF" offset="100%"></stop>
        </linearGradient>
        <linearGradient x1="9.43547758%" y1="48.8751064%" x2="110.995322%" y2="53.9944708%" id="linearGradient-4">
            <stop stop-color="#0077E7" offset="0.2639932%"></stop>
            <stop stop-color="#00E9FF" offset="100%"></stop>
        </linearGradient>
        <linearGradient x1="-0.0285852713%" y1="50.0889101%" x2="99.9486434%" y2="50.0889101%" id="linearGradient-5">
            <stop stop-color="#FF6517" offset="0.1232813%"></stop>
            <stop stop-color="#FFF800" offset="98.8%"></stop>
        </linearGradient>
        <linearGradient x1="24.3019405%" y1="21.9246913%" x2="95.4636481%" y2="76.1702085%" id="linearGradient-6">
            <stop stop-color="#FF892E" offset="0%"></stop>
            <stop stop-color="#DF005E" offset="100%"></stop>
        </linearGradient>
        <linearGradient x1="37.8848882%" y1="25.9596273%" x2="71.3972077%" y2="93.1459627%" id="linearGradient-7">
            <stop stop-color="#FFC62E" offset="0%"></stop>
            <stop stop-color="#FF175E" offset="100%"></stop>
        </linearGradient>
        <linearGradient x1="24.3082298%" y1="21.8519517%" x2="95.488354%" y2="76.1799141%" id="linearGradient-8">
            <stop stop-color="#FFC62E" offset="0%"></stop>
            <stop stop-color="#FF175E" offset="100%"></stop>
        </linearGradient>
        <linearGradient x1="7.14325221%" y1="39.8889972%" x2="99.4579646%" y2="56.1146631%" id="linearGradient-9">
            <stop stop-color="#FF4417" offset="0.1232813%"></stop>
            <stop stop-color="#FFFD00" offset="98.8%"></stop>
        </linearGradient>
        <linearGradient x1="0.0374169226%" y1="49.9393939%" x2="100.146026%" y2="49.9393939%" id="linearGradient-10">
            <stop stop-color="#17FF72" offset="0%"></stop>
            <stop stop-color="#00FFE6" offset="100%"></stop>
        </linearGradient>
        <linearGradient x1="0.0659833259%" y1="50.0558442%" x2="100.135196%" y2="50.0558442%" id="linearGradient-11">
            <stop stop-color="#17BB72" offset="0%"></stop>
            <stop stop-color="#00DDFF" offset="100%"></stop>
        </linearGradient>
        <linearGradient x1="0.0461389024%" y1="50.0426928%" x2="100%" y2="50.0426928%" id="linearGradient-12">
            <stop stop-color="#BC28FF" offset="0%"></stop>
            <stop stop-color="#F39EEA" offset="100%"></stop>
        </linearGradient>
        <linearGradient x1="-0.00242954325%" y1="50.0102872%" x2="100%" y2="50.0102872%" id="linearGradient-13">
            <stop stop-color="#5400FF" offset="0%"></stop>
            <stop stop-color="#C845FF" offset="100%"></stop>
        </linearGradient>
        <linearGradient x1="-0.00949640907%" y1="49.9356846%" x2="99.9280672%" y2="49.9356846%" id="linearGradient-14">
            <stop stop-color="#0D4BFF" offset="0%"></stop>
            <stop stop-color="#6417FF" offset="78.81%"></stop>
        </linearGradient>
        <linearGradient x1="0.0189680624%" y1="49.9875389%" x2="99.8574668%" y2="49.9875389%" id="linearGradient-15">
            <stop stop-color="#0000E7" offset="0%"></stop>
            <stop stop-color="#5900D0" offset="100%"></stop>
        </linearGradient>
    </defs>
    <g id="页面-1" stroke="none" stroke-width="1" fill="none" fill-rule="evenodd">
        <g id="桌面端-HD备份-5" transform="translate(-387.000000, -219.000000)" fill-rule="nonzero">
            <g id="编组" transform="translate(387.000000, 219.000000)">
                <path d="M34.6249588,31.1303842 C34.1326967,29.7002328 35.0642081,28.5197905 35.3898584,28.5197905 L35.3898584,28.5197905 C35.291406,28.5197905 35.1853803,28.5197905 35.0869279,28.5197905 C34.3447481,28.5197905 33.6177149,28.4441211 32.9134014,28.3079162 C31.8834376,28.1036088 30.8989134,27.7555297 29.9901218,27.2939464 C29.4372736,27.0139697 28.5587751,26.4994179 28.066513,26.1362049 C27.6802766,27.0366705 27.4303589,28.0128056 27.3546263,29.0343423 C29.0207442,29.8894063 30.5202502,31.8038417 30.5202502,33.8090803 C30.5202502,34.5960419 30.3460652,35.3376019 30.0279881,36.0034924 C30.0355614,36.0186263 30.0507079,36.0261932 30.0582812,36.0413271 C31.7243991,37.8573923 34.1175502,39 36.7757656,39 C41.251564,39 44.9700362,35.7764843 45.7273625,31.523865 C44.3490286,32.9691502 36.2683569,35.9429569 34.6249588,31.1303842 Z" id="路径" fill="url(#linearGradient-1)"></path>
                <path d="M34.3447481,35.4965076 C29.4069806,33.1507567 31.5653606,27.5133877 31.5653606,27.5133877 C31.5653606,27.5133877 30.1188673,27.346915 29.9976951,27.2863795 C29.4448469,27.0064028 28.3921633,26.4086147 27.8999012,26.0454016 C27.5136648,26.9458673 27.2637471,27.9220023 27.1880145,28.943539 C28.8541324,29.798603 30.5278235,31.7962747 30.5278235,33.8015134 C30.5278235,34.588475 30.3536385,35.3300349 30.0355614,35.9959255 C30.0431347,36.0110594 29.82351,36.3667055 29.8310833,36.3818393 C31.4972012,38.1979045 34.1251235,39 36.7833388,39 C41.2591373,39 44.9776095,35.7764843 45.7349358,31.523865 C45.7349358,31.516298 41.2667106,38.7805588 34.3447481,35.4965076 Z" id="路径" fill="url(#linearGradient-2)"></path>
                <path d="M27.9150477,13.5675204 C26.8244979,13.5675204 25.764241,13.4161816 24.7645703,13.1362049 C23.5679947,12.7956927 22.4395785,12.2735739 21.4323345,11.5925495 C20.667435,11.0704307 19.9706948,10.4650757 19.3496872,9.79161816 C18.0546592,10.30617 16.6838986,10.6542491 15.2525519,10.8131548 C15.2525519,10.8131548 15.2525519,10.8131548 15.2525519,10.8131548 C15.1843925,10.8207218 15.1162331,10.8282887 15.0405005,10.8358556 C14.5027988,10.8963912 13.9499506,10.919092 13.3971024,10.919092 C13.185051,10.919092 12.9805729,10.911525 12.7760948,10.9039581 C11.9430359,10.8736903 11.1326967,10.7828871 10.3375041,10.6239814 C8.20184392,10.2153667 6.217649,9.39057043 4.46822522,8.22526193 C3.94567007,7.87718277 3.43826144,7.49883586 2.96114587,7.09022119 C3.33223576,7.55937136 3.72604544,8.01338766 4.13500165,8.44470314 C6.4221271,10.8736903 9.27724728,12.7729919 12.4807376,13.9383003 C13.7227527,14.3923166 15.0177807,14.7328289 16.3582483,14.9447031 C17.501811,15.1338766 18.6680935,15.2322468 19.8570958,15.2322468 C20.3039183,15.2322468 20.7431676,15.2171129 21.1824169,15.1868452 C22.2199539,15.1263097 23.2347712,14.9901048 24.2268686,14.7857974 C25.3628581,14.5587893 26.4609812,14.2334109 27.5212381,13.8247963 C27.5439579,13.8172293 27.5742509,13.8020955 27.5969707,13.7945285 C27.8090221,13.7188591 28.0135002,13.6356228 28.2179783,13.5448196 C28.1195258,13.5675204 28.0210734,13.5675204 27.9150477,13.5675204 Z" id="路径" fill="url(#linearGradient-3)"></path>
                <path d="M17.1231478,13.0756776 C18.8498518,13.0756776 20.6598617,12.7124563 22.394139,12.1676368 C22.0684886,11.9935972 21.7504116,11.7968568 21.4399078,11.5925495 C20.6750082,11.0704307 19.978268,10.4650757 19.3572605,9.79161816 C18.0622325,10.30617 16.6914718,10.6542491 15.2601251,10.8131548 C15.2601251,10.8131548 15.2601251,10.8131548 15.2601251,10.8131548 C15.1919658,10.8207218 15.1238064,10.8282887 15.0480738,10.8358556 C14.5103721,10.8963912 13.9575239,10.919092 13.4046757,10.919092 C13.1926243,10.919092 12.9881462,10.911525 12.7836681,10.9039581 C11.9506092,10.8736903 11.14027,10.7828871 10.3450774,10.6239814 C8.20941719,10.2153667 6.22522226,9.39057043 4.47579849,8.22526193 C3.95324333,7.87718277 3.44583471,7.49883586 2.96871913,7.09022119 C2.99143892,7.12048894 3.01415871,7.14318976 3.0368785,7.16589057 C3.62001976,7.87718277 8.32301613,13.0832363 17.1231478,13.0756776 Z" id="路径" fill="url(#linearGradient-4)"></path>
                <path d="M24.726704,22.3451688 C23.318077,21.6565774 21.7428383,21.2630966 20.0691472,21.2630966 C19.6071781,21.2630966 19.1527824,21.2933644 18.7059598,21.3463329 C18.0546592,21.4295693 17.4185051,21.5733411 16.8126441,21.7700815 C15.0480738,22.3376019 13.4879816,23.3591385 12.2686862,24.6984866 C12.9578531,24.5471478 13.6773131,24.4639115 14.4119197,24.4639115 C15.1616727,24.4639115 15.888706,24.5471478 16.5854462,24.6984866 C17.7062891,24.9481956 18.7438261,25.387078 19.690484,25.9697322 C20.985512,26.7793946 22.0760619,27.8841676 22.8864011,29.1781141 C23.5377017,28.8830035 24.2647349,28.7165308 25.0296345,28.7165308 C25.87784,28.7165308 26.483701,28.7922002 27.1880145,29.1554133 C27.2637471,28.1338766 27.5136648,27.1577416 27.8999012,26.2572759 C26.4685545,25.2130384 25.5143233,23.9493597 24.726704,22.3451688 Z" id="路径" fill="url(#linearGradient-5)"></path>
                <path d="M38.2298321,6.99941793 C38.2298321,6.99941793 38.2298321,6.99941793 38.2298321,6.99941793 C38.2298321,6.99941793 38.2298321,6.99941793 38.2298321,6.99941793 C38.1389529,6.96915017 38.0480738,6.93888242 37.9571946,6.91618161 C37.9571946,6.91618161 37.9571946,6.91618161 37.9571946,6.91618161 C37.6466908,6.82537835 37.3286138,6.74970896 37.0029635,6.68917346 C36.29865,6.55296857 35.5716167,6.47729919 34.8294369,6.47729919 C33.678301,6.47729919 32.557458,6.65133877 31.5123477,6.97671711 C31.4972012,6.97671711 31.4896279,6.98428405 31.4744814,6.99185099 C31.3154429,7.0523865 31.1488311,7.10535506 30.9897926,7.15832363 C29.1570629,7.75611176 27.1955878,8.0814901 25.1659532,8.0814901 C24.4767863,8.0814901 23.7876194,8.04365541 23.1211722,7.96798603 C23.0302931,7.96041909 22.9394139,7.94528522 22.8485347,7.93771828 C20.667435,7.67287544 18.6075074,7.02211874 16.7293382,6.07625146 C17.2518933,7.55937136 18.0622325,8.90628638 19.0997695,10.0413271 C19.7207771,10.7223516 20.4175173,11.3277066 21.1824169,11.8422584 C22.1896608,12.5232829 23.3105038,13.0454016 24.5146526,13.3859139 C25.5143233,13.6658906 26.5745802,13.8172293 27.6651301,13.8172293 C27.7635825,13.8172293 27.8696082,13.8172293 27.9680606,13.8096624 C28.180112,13.8020955 28.3845901,13.7945285 28.5890682,13.7793946 C28.7632532,13.7642608 28.9450115,13.7491269 29.1267698,13.7491269 C32.0121831,13.7491269 34.3447481,16.0873108 34.3447481,18.9627474 C34.3447481,19.8934808 34.1024037,20.7636787 33.678301,21.5128056 C32.8755351,22.9429569 31.4138953,23.9569267 29.7023378,24.1385332 C29.5130063,24.161234 29.3236747,24.1688009 29.1343431,24.1688009 C28.8389858,24.1688009 28.5436286,24.1461001 28.2558446,24.0931315 C28.2558446,24.0931315 28.2558446,24.0931315 28.2558446,24.0931315 C27.4682252,23.9644936 26.741192,23.6542491 26.1201844,23.2077998 C25.620349,22.93539 25.1508067,22.6175786 24.7115575,22.2694994 C24.7418505,22.3451688 24.7797168,22.4132712 24.8100099,22.4813737 C25.590056,24.0855646 26.7487652,25.4778813 28.1725387,26.5372526 C28.6648008,26.9080326 29.1873559,27.2334109 29.7402041,27.5133877 C30.6489957,27.9825378 31.6335199,28.330617 32.6634837,28.5273574 C33.3677972,28.6635623 34.0948304,28.7392317 34.8370102,28.7392317 C34.9354626,28.7392317 35.0414883,28.7392317 35.1399407,28.7392317 C38.5857754,28.6484284 41.6453737,26.9912689 43.6371419,24.4563446 C44.3944682,23.4877765 45.0003293,22.3905704 45.4017122,21.1949942 C45.7879486,20.0675204 46,18.8568102 46,17.5931315 C45.9924267,12.6443539 42.7283503,8.4371362 38.2298321,6.99941793 Z" id="路径" fill="url(#linearGradient-6)"></path>
                <g transform="translate(16.729338, 6.068685)" id="路径">
                    <path d="M1.20414883,2.43655413 L0.00757326309,0.0075669383 C0.00757326309,0 0.00757326309,0 0.00757326309,0 C0.310503787,0.870197905 0.71188673,1.6798603 1.20414883,2.43655413 Z" fill="url(#linearGradient-7)"></path>
                    <path d="M21.5004939,0.930733411 C21.5004939,0.930733411 21.5004939,0.930733411 21.5004939,0.930733411 C21.5004939,0.930733411 21.5004939,0.930733411 21.5004939,0.930733411 C21.4096148,0.900465658 21.3187356,0.870197905 21.2278564,0.84749709 C21.2278564,0.84749709 21.2278564,0.84749709 21.2278564,0.84749709 C20.9173527,0.75669383 20.5992756,0.681024447 20.2736253,0.620488941 C19.5693118,0.484284051 18.8422786,0.408614668 18.1000988,0.408614668 C16.9489628,0.408614668 15.8281199,0.582654249 14.7830095,0.908032596 C14.767863,0.908032596 14.7602898,0.915599534 14.7451432,0.923166473 C14.5861047,0.983701979 14.4194929,1.03667055 14.2604544,1.08963912 C12.4277247,1.68742724 10.4662496,2.01280559 8.43661508,2.01280559 C7.74744814,2.01280559 7.0582812,1.9749709 6.39183405,1.89930151 C6.30095489,1.89173458 6.21007573,1.8766007 6.11919658,1.86903376 C3.93809681,1.60419092 1.87816925,0.953434226 0,0.0075669383 L0,0.0151338766 C0.0454395785,0.113504075 0.643727363,2.37601863 3.77148502,3.77590221 C8.61080013,5.94004657 11.6022391,4.15424913 16.2143563,4.61583236 C24.9539019,5.49359721 26.2110635,17.1239814 18.8725716,19.4243306 C11.109977,21.8608847 8.07309845,16.43539 8.07309845,16.43539 C8.85314455,18.0395809 10.0118538,19.4318976 11.4356273,20.4912689 C11.9278894,20.8620489 12.4504445,21.1874272 13.0032927,21.467404 C13.9120843,21.9365541 14.8966085,22.2846333 15.9265723,22.4813737 C16.6308857,22.6175786 17.357919,22.693248 18.1000988,22.693248 C18.1985512,22.693248 18.3045769,22.693248 18.4030293,22.693248 C21.848864,22.6024447 24.9084623,20.9452852 26.9002305,18.4103609 C27.6575568,17.4417928 28.2634178,16.3445867 28.6648008,15.1490105 C29.0510372,14.0215367 29.2630886,12.8108265 29.2630886,11.5471478 C29.2630886,6.57566938 25.9990122,2.36845169 21.5004939,0.930733411 Z" fill="url(#linearGradient-8)"></path>
                </g>
                <path d="M32.9436944,7.6653085 C32.3151136,8.67927823 33.8600593,8.4371362 36.0487323,9.62514552 C38.744814,11.0855646 41.3727363,13.9685681 41.8574251,17.8428405 C42.1906487,20.4988359 41.3348699,22.2846333 42.8419493,22.2846333 C44.5383602,22.2846333 45.2351004,19.6589057 45.28054,17.411525 C45.3789924,12.4854482 41.6226539,8.15715949 37.0786961,7.31722934 C35.609483,7.0523865 33.2920645,7.09778813 32.9436944,7.6653085 Z" id="路径" fill="#FFEA15" opacity="0.17"></path>
                <ellipse id="椭圆形" fill="#FFFFFD" opacity="0.18" transform="translate(40.786410, 10.463826) rotate(-39.709471) translate(-40.786410, -10.463826) " cx="40.7864097" cy="10.4638256" rx="1" ry="1.41551138"></ellipse>
                <path d="M16.5778729,24.7060536 C17.6987158,24.9557625 18.7362529,25.3946449 19.6829108,25.9772992 C20.9779388,26.7869616 22.1669411,28.0733411 22.9697069,29.3748545 C23.6210076,29.0797439 24.2571617,28.7240978 25.0220612,28.7240978 C25.3401383,28.7240978 25.6430688,28.7543655 25.9459993,28.8073341 L25.9611459,28.7619325 C25.9611459,28.7619325 23.7648996,24.5093132 19.114916,23.7753201 C15.1540994,23.1472643 12.6927889,24.2974389 12.3368456,24.6379511 C12.3141258,24.6606519 12.291406,24.6833527 12.2686862,24.7060536 C12.9578531,24.5547148 13.6773131,24.4714785 14.4119197,24.4714785 C15.1540994,24.4714785 15.8811327,24.5547148 16.5778729,24.7060536 Z" id="路径" fill="url(#linearGradient-9)"></path>
                <path d="M27.7029964,29.2083818 C26.9986829,28.8451688 26.195917,28.6408615 25.3401383,28.6408615 C24.5752387,28.6408615 23.8482055,28.8073341 23.1969048,29.1024447 C21.4096148,29.9121071 20.1751729,31.7130384 20.1751729,33.8015134 C20.1751729,33.8166473 20.1751729,33.8317811 20.1751729,33.854482 C21.2127099,32.8026775 22.6667764,32.1519208 24.2571617,32.1519208 C24.3177478,32.1519208 24.3783339,32.1519208 24.4313467,32.1594878 C26.3170892,32.2124563 27.9680606,33.1734575 28.9753046,34.6111758 C28.9828778,34.6187427 28.9828778,34.6187427 28.9828778,34.6263097 C29.0661837,34.7473807 29.1494896,34.8684517 29.217649,34.9970896 L29.217649,34.9970896 C29.4675667,35.4284051 29.6720448,35.8899884 29.8007903,36.3818393 C29.8765229,36.2607683 29.937109,36.1321304 30.0052684,35.9959255 C30.3157721,35.3300349 30.4975305,34.588475 30.4975305,33.8015134 C30.512677,31.7962747 29.3691143,30.0634459 27.7029964,29.2083818 Z" id="路径" fill="url(#linearGradient-10)"></path>
                <path d="M24.9993415,30.5477299 C21.129404,30.5477299 20.1751729,33.846915 20.1751729,33.846915 C21.2127099,32.7951106 22.6667764,32.1443539 24.2571617,32.1443539 C24.3177478,32.1443539 24.3783339,32.1443539 24.4313467,32.1519208 C26.3170892,32.2048894 27.9680606,33.1658906 28.9753046,34.6036088 C28.9828778,34.6111758 28.9828778,34.6111758 28.9828778,34.6187427 C29.0661837,34.7398137 29.1494896,34.8608847 29.217649,34.9895227 L29.217649,34.9895227 C29.4675667,35.4208382 29.6720448,35.8824214 29.8007903,36.3742724 C29.82351,36.3742724 30.224893,30.5477299 24.9993415,30.5477299 Z" id="路径" fill="url(#linearGradient-11)"></path>
                <path d="M12.4504445,20.9906868 C13.3213698,20.3323632 14.4346394,19.9994179 15.5933487,20.1507567 C15.2904182,19.5983702 14.8966085,19.1065192 14.4194929,18.6827707 C13.7000329,18.0395809 12.8063879,17.5855646 11.7915706,17.3888242 C10.534409,17.1466822 9.28482055,17.3509895 8.22456371,17.8958091 L8.21699045,17.8882421 C6.92196246,18.5541327 5.39973658,18.8114086 3.85479091,18.516298 C2.29469872,18.2136205 0.961804412,17.3963912 0,16.2764843 C0.499835364,19.0308498 2.47645703,21.3766007 5.23312479,22.2694994 C5.53605532,22.3678696 5.85413237,22.4511059 6.17978268,22.5116414 C8.48205466,22.9580908 10.7388871,22.3300349 12.4504445,20.9906868 L12.4504445,20.9906868 Z" id="路径" fill="url(#linearGradient-12)"></path>
                <path d="M6.17978268,22.7991851 C8.85314455,23.2153667 10.7388871,22.3376019 12.4504445,20.9906868 L12.4504445,20.9906868 C13.3213698,20.3323632 14.4346394,19.9994179 15.5933487,20.1507567 C15.5933487,20.1507567 13.2380639,18.5541327 10.9357919,19.1140861 C8.48205466,19.7118743 7.80046098,20.8771828 5.89957195,20.8620489 C1.59795851,20.8242142 0.00757326309,16.2764843 0.00757326309,16.2764843 C0.507408627,19.0384168 2.58248271,22.2316647 6.17978268,22.7991851 Z" id="路径" fill="url(#linearGradient-13)"></path>
                <path d="M7.03556141,5.54656577 C8.07309845,6.57566938 9.47415212,7.00698487 10.822193,6.84807916 L10.822193,6.8556461 C11.4507738,6.76484284 12.1096477,6.90861467 12.6473494,7.29452852 C12.7003622,6.93888242 12.6927889,6.58323632 12.6246296,6.22759022 C12.5110306,5.59953434 12.2081001,5.00931315 11.7234113,4.5250291 C11.1857096,3.98777648 10.5116892,3.68509895 9.81494896,3.60186263 L9.81494896,3.59429569 C8.95917023,3.49592549 8.13368456,3.11757858 7.47481067,2.45925495 C6.78564373,1.77066356 6.39940731,0.892898719 6.32367468,0 C5.38459006,1.58905704 5.498189,3.61699651 6.64932499,5.10768335 C6.76292394,5.25145518 6.89924267,5.40279395 7.03556141,5.54656577 Z" id="路径" fill="url(#linearGradient-14)"></path>
                <path d="M10.5495555,5.40279395 C9.30754034,4.77473807 8.06552519,5.1757858 6.82351004,3.90454016 C5.54362858,2.5878929 6.32367468,0 6.32367468,0 C6.32367468,0 6.1343431,0.44644936 5.86170563,1.08963912 C5.48304248,2.44412107 5.74810668,3.94237485 6.64932499,5.10011641 C6.7704972,5.25145518 6.89924267,5.40279395 7.04313467,5.53899884 C8.08067172,6.56810244 9.48172539,6.99941793 10.8297662,6.84051222 L10.8297662,6.84807916 C11.4583471,6.7572759 12.1172209,6.90104773 12.6549226,7.28696158 C12.6473494,7.28696158 11.6098123,5.94004657 10.5495555,5.40279395 Z" id="路径" fill="url(#linearGradient-15)"></path>
                <ellipse id="椭圆形" fill="#FFFFFD" opacity="0.18" transform="translate(17.497529, 22.657978) rotate(-11.999912) translate(-17.497529, -22.657978) " cx="17.4975291" cy="22.6579785" rx="1.46151541" ry="1"></ellipse>
                <ellipse id="椭圆形" fill="#FFFFFD" opacity="0.11" transform="translate(33.614430, 37.098154) rotate(-69.346715) translate(-33.614430, -37.098154) " cx="33.6144296" cy="37.0981545" rx="1" ry="1.58259355"></ellipse>
            </g>
        </g>
    </g>
</svg>