<?xml version="1.0" encoding="UTF-8"?>
<svg width="32px" height="32px" viewBox="0 0 32 32" version="1.1" xmlns="http://www.w3.org/2000/svg" xmlns:xlink="http://www.w3.org/1999/xlink">
    <title>编组 14</title>
    <g id="页面-1" stroke="none" stroke-width="1" fill="none" fill-rule="evenodd">
        <g id="个人中心" transform="translate(-190.000000, -365.000000)">
            <g id="编组-14" transform="translate(190.000000, 365.000000)">
                <rect id="矩形" x="0" y="0" width="32" height="32"></rect>
                <g id="编组" transform="translate(10.000000, 9.000000)">
                    <polygon id="Fill-1" fill="#B0A9B7" points="8.66603172 13.0728901 6.93250442 12.1755678 6.93615508 10.2940787 8.66968237 11.1914009"></polygon>
                    <polygon id="Fill-2" fill="#B0A9B7" points="8.67627636 7.82321119 6.94274907 6.92588896 6.95567846 0.308978754 8.68920576 1.20637336"></polygon>
                    <polygon id="Fill-3" fill="#2D213D" points="9.26644989 0 6.95566325 0.309022176 8.68919054 1.20634441 10.9999772 0.897322239"></polygon>
                    <polygon id="Fill-4" fill="#B2A9B8" points="8.66970519 11.1913937 6.93617789 10.2940715 2.32373124 6.16612863 4.0573346 7.06345086"></polygon>
                    <polygon id="Fill-5" fill="#4C4763" points="8.68921336 1.20633718 8.67628397 7.82317501 4.06383732 3.70152841 4.06756403 1.82438153 1.75670133 2.13347608 1.73358054 14 4.04436718 13.6909055 4.05729657 7.06342915 8.66966716 11.191372 8.66601651 13.0728611 10.9768792 12.7639113 11 0.897315002"></polygon>
                    <polygon id="Fill-6" fill="#B0A9B7" points="0 13.1026416 1.7335273 13.9999638 1.75672415 2.13343989 0.0231207958 1.23611765"></polygon>
                    <polygon id="Fill-7" fill="#2D213D" points="0.0231360068 1.23610318 1.7566633 2.13342542 4.067526 1.82440324 2.3339987 0.927081002"></polygon>
                </g>
            </g>
        </g>
    </g>
</svg>