<?xml version="1.0" encoding="UTF-8"?>
<svg width="18px" height="30px" viewBox="0 0 18 30" version="1.1" xmlns="http://www.w3.org/2000/svg" xmlns:xlink="http://www.w3.org/1999/xlink">
    <title>编组@1x</title>
    <g id="页面-1" stroke="none" stroke-width="1" fill="none" fill-rule="evenodd">
        <g id="5游戏市场" transform="translate(-1338.000000, -25.000000)">
            <g id="编组-8" transform="translate(1326.000000, 19.000000)">
                <g id="编组-2" transform="translate(4.000000, 4.000000)">
                    <g id="编组" transform="translate(8.500000, 2.833333)">
                        <polygon id="矩形" fill="#4B4761" points="0 14.8141404 8.5 0 8.5 19.8368189"></polygon>
                        <polygon id="矩形备份-2" fill="#ADA9B4" transform="translate(12.750000, 9.918409) scale(-1, 1) translate(-12.750000, -9.918409) " points="8.5 14.8141404 17 0 17 19.8368189"></polygon>
                        <polygon id="矩形" fill="#282137" points="0 14.8141404 8.5 11.0155212 8.5 19.8368189"></polygon>
                        <polygon id="矩形备份-3" fill="#544F60" transform="translate(12.750000, 15.426170) scale(-1, 1) translate(-12.750000, -15.426170) " points="8.5 14.8141404 17 11.0155212 17 19.8368189"></polygon>
                        <polygon id="矩形备份" fill="#514B5C" transform="translate(4.250000, 22.488044) scale(-1, -1) translate(-4.250000, -22.488044) " points="0 23.3106548 0 16.6427549 8.5 28.3333333"></polygon>
                        <polygon id="矩形备份-4" fill="#B1ACB4" transform="translate(12.750000, 22.488044) scale(1, -1) translate(-12.750000, -22.488044) " points="8.5 23.3106548 8.5 16.6427549 17 28.3333333"></polygon>
                    </g>
                </g>
            </g>
        </g>
    </g>
</svg>