<?xml version="1.0" encoding="UTF-8"?>
<svg width="40px" height="40px" viewBox="0 0 40 40" version="1.1" xmlns="http://www.w3.org/2000/svg" xmlns:xlink="http://www.w3.org/1999/xlink">
    <title>形状结合@1x</title>
    <g id="页面-1" stroke="none" stroke-width="1" fill="none" fill-rule="evenodd">
        <g id="4购买NFT-POOL" transform="translate(-742.000000, -520.000000)" fill="#E9DAFF">
            <g id="编组-22" transform="translate(565.000000, 37.000000)">
                <g id="编组-21" transform="translate(55.000000, 311.000000)">
                    <path d="M142,172 C143.656854,172 145,173.343146 145,175 L145,189 L159,189 C160.656854,189 162,190.343146 162,192 C162,193.656854 160.656854,195 159,195 L145,195 L145,209 C145,210.656854 143.656854,212 142,212 C140.343146,212 139,210.656854 139,209 L139,195 L125,195 C123.343146,195 122,193.656854 122,192 C122,190.343146 123.343146,189 125,189 L139,189 L139,175 C139,173.343146 140.343146,172 142,172 Z" id="形状结合"></path>
                </g>
            </g>
        </g>
    </g>
</svg>