<?xml version="1.0" encoding="UTF-8"?>
<svg width="120px" height="36px" viewBox="0 0 120 36" version="1.1" xmlns="http://www.w3.org/2000/svg" xmlns:xlink="http://www.w3.org/1999/xlink">
    <title>编组 21</title>
    <g id="页面-1" stroke="none" stroke-width="1" fill="none" fill-rule="evenodd">
        <g id="编组-21" transform="translate(0.000000, -0.000000)" fill="#FFFFFF">
            <text id="Pole-Labs" font-family="Helvetica-BoldOblique, Helvetica" font-size="18" font-style="italic" font-weight="bold" letter-spacing="-0.293656819">
                <tspan x="33.6311487" y="25.3129399">P</tspan>
                <tspan x="45.3433513" y="25.3129399" letter-spacing="0.0303431814">ole</tspan>
                <tspan x="71.4412167" y="25.3129399" font-family="CorsivaHebrew-Bold, Corsiva Hebrew" letter-spacing="0.0303431814"> </tspan>
                <tspan x="75.9715599" y="25.3129399" letter-spacing="-0.0776568186">L</tspan>
                <tspan x="86.8890203" y="25.3129399" letter-spacing="0.0303431814">abs</tspan>
            </text>
            <path d="M7.50144871,23.0372 C7.50144871,23.8653787 8.17327002,24.5372 9.00144871,24.5372 C9.82962741,24.5372 10.5005896,23.8653787 10.5005896,23.0372 C10.5005896,22.2090213 9.82962741,21.5372 9.00144871,21.5372 C8.17327002,21.5372 7.50144871,22.2090213 7.50144871,23.0372" id="Fill-2"></path>
            <path d="M12.8652487,20.2696 C12.4572487,20.2696 12.1262487,20.6006 12.1262487,21.0086 C12.1262487,21.4166 12.4572487,21.7476 12.8652487,21.7476 C13.2732487,21.7476 13.6042487,21.4166 13.6042487,21.0086 C13.6042487,20.6006 13.2732487,20.2696 12.8652487,20.2696" id="Fill-3"></path>
            <path d="M18.5308487,24.3643711 C18.5308487,22.9844969 17.4113519,21.865 16.0314776,21.865 C14.6503456,21.865 13.5308487,22.9844969 13.5308487,24.3643711 C13.5308487,25.7455031 14.6503456,26.865 16.0314776,26.865 C17.4113519,26.865 18.5308487,25.7455031 18.5308487,24.3643711" id="Fill-4"></path>
            <path d="M12.5932487,29.4385 C12.1712487,29.4865 11.8672487,29.8675 11.9152487,30.2905 C11.9632487,30.7125 12.3442487,31.0165 12.7662487,30.9685 C13.1892487,30.9205 13.4922487,30.5395 13.4452487,30.1165 C13.3972487,29.6945 13.0152487,29.3905 12.5932487,29.4385" id="Fill-5"></path>
            <path d="M11.7637487,7.836 C12.0797487,7.969 12.4287487,8.045 12.7957487,8.045 C13.2037487,8.045 13.5857487,7.945 13.9297487,7.782 C13.9227487,7.792 13.9177487,7.797 13.9177487,7.797 C17.2567487,6.647 15.3197487,3.245 15.3197487,3.245 C15.1307487,2.583 15.3197487,2.142 15.3197487,2.142 C14.7057487,2.221 14.4067487,3.024 14.4067487,3.024 C14.1457487,0.503 11.8067487,0 11.8067487,0 C12.2797487,0.503 11.7677487,1.898 11.2637487,2.394 C10.6767487,2.971 10.4047487,3.938 10.4047487,3.938 C10.4527487,3.732 10.1057487,3.307 10.1057487,3.307 C8.82174871,6.526 11.0267487,7.581 11.7637487,7.836" id="Fill-6"></path>
            <path d="M19.2231487,8.835 C19.0701487,9.291 19.3651487,10.288 18.9811487,11.222 C18.5981487,12.155 17.2521487,13.239 15.3261487,13.091 C14.2851487,13.012 13.5771487,12.007 13.6051487,11.665 C14.3541487,11.262 14.9031487,10.945 15.2751487,10.705 C15.3191487,10.778 15.3671487,10.852 15.4231487,10.922 C15.8351487,11.444 16.4581487,11.641 16.4581487,11.641 C16.4581487,11.641 16.4101487,10.99 15.9981487,10.467 C15.9451487,10.4 15.8891487,10.339 15.8311487,10.283 C16.4411487,9.736 17.1801487,8.867 17.5631487,8.662 C18.1331487,8.357 18.8231487,8.253 19.6361487,8.349 C19.4621487,8.369 19.3251487,8.531 19.2231487,8.835 M10.2801487,13.091 C8.35414871,13.239 7.00814871,12.155 6.62414871,11.222 C6.24114871,10.288 6.53514871,9.291 6.38314871,8.835 C6.28114871,8.531 6.14314871,8.369 5.97114871,8.349 C6.78314871,8.253 7.47314871,8.357 8.04214871,8.662 C8.42614871,8.867 9.16414871,9.736 9.77514871,10.283 C9.71714871,10.339 9.66014871,10.4 9.60814871,10.467 C9.19514871,10.99 9.14814871,11.641 9.14814871,11.641 C9.14814871,11.641 9.77014871,11.444 10.1831487,10.922 C10.2391487,10.852 10.2871487,10.778 10.3301487,10.705 C10.7021487,10.945 11.2521487,11.262 12.0011487,11.665 C12.0281487,12.007 11.3211487,13.012 10.2801487,13.091 M20.3371487,11.194 C21.4851487,9.981 21.5071487,6.814 21.5071487,6.814 C21.5071487,6.814 18.7221487,5.182 17.6001487,6.291 C17.5251487,6.365 17.4891487,6.445 17.4801487,6.524 C16.6111487,5.96 16.1811487,8.589 12.8031487,8.589 C9.42614871,8.589 8.99514871,5.96 8.12514871,6.524 C8.11814871,6.445 8.08114871,6.365 8.00614871,6.291 C6.88414871,5.182 4.09914871,6.814 4.09914871,6.814 C4.09914871,6.814 4.12014871,9.981 5.26914871,11.194 C4.76114871,19.912 -2.01385129,25.454 0.596148711,31.371 C2.70814871,36.158 7.93914871,35.786 10.0281487,34.609 C10.6101487,34.281 11.0561487,33.759 11.3401487,33.137 C11.3401487,33.135 11.3411487,33.134 11.3421487,33.132 C11.4101487,32.982 11.4681487,32.826 11.5171487,32.665 C11.5191487,32.656 11.5221487,32.648 11.5251487,32.639 C11.5721487,32.481 11.6091487,32.318 11.6371487,32.152 C11.6391487,32.144 11.6401487,32.135 11.6421487,32.127 C11.6681487,31.963 11.6831487,31.796 11.6901487,31.628 C11.6911487,31.615 11.6921487,31.603 11.6931487,31.59 C11.6971487,31.439 11.6901487,31.286 11.6791487,31.133 C11.6311487,30.552 11.4671487,29.965 11.1541487,29.419 C10.4491487,28.189 8.40914871,26.862 6.09914871,27.909 C5.84114871,28.026 5.58414871,28.093 5.33414871,28.122 C5.08914871,27.362 4.95314871,26.553 4.95314871,25.711 C4.95314871,24.145 5.41814871,22.689 6.20914871,21.463 L4.92614871,20.18 L4.87814871,20.228 C4.64214871,20.464 4.25914871,20.464 4.02214871,20.228 C3.78614871,19.992 3.78614871,19.608 4.02214871,19.372 L6.45714871,16.937 C6.69414871,16.7 7.07714871,16.7 7.31414871,16.937 C7.55014871,17.173 7.55014871,17.556 7.31414871,17.793 L7.26614871,17.84 L8.54814871,19.122 C9.77414871,18.328 11.2331487,17.863 12.8021487,17.863 C17.1371487,17.863 20.6511487,21.377 20.6511487,25.711 C20.6511487,26.553 20.5151487,27.362 20.2701487,28.122 C20.0201487,28.093 19.7641487,28.026 19.5051487,27.909 C17.1961487,26.862 15.1551487,28.189 14.4511487,29.419 C14.1471487,29.949 13.9831487,30.516 13.9291487,31.08 C13.7991487,32.534 14.4201487,33.957 15.5771487,34.609 C17.6661487,35.786 22.8981487,36.158 25.0101487,31.371 C27.6201487,25.454 20.8451487,19.912 20.3371487,11.194" id="Fill-7"></path>
        </g>
    </g>
</svg>