<?xml version="1.0" encoding="utf-8"?>
<!-- Generator: Adobe Illustrator 26.0.1, SVG Export Plug-In . SVG Version: 6.00 Build 0)  -->
<svg version="1.1" id="图层_1" xmlns="http://www.w3.org/2000/svg" xmlns:xlink="http://www.w3.org/1999/xlink" x="0px" y="0px"
	 viewBox="0 0 24 24" style="enable-background:new 0 0 24 24;" xml:space="preserve">
<style type="text/css">
	.st0{fill:#FFFFFF;}
</style>
<path class="st0" d="M23.4,11.4c0-1.6-1.2-2.9-2.8-2.9c-0.7,0-1.3,0.2-1.8,0.7c-1.7-1-3.7-1.7-6.1-1.8l1.2-4.6l3.8,1.2
	c0,1.3,1,2.3,2.2,2.3s2.2-1,2.2-2.3s-1-2.3-2.2-2.3c-0.8,0-1.6,0.5-1.9,1.2l-4.5-1.2c-0.3-0.1-0.6,0.1-0.7,0.5l-1.3,5.3
	C9.3,7.5,7.2,8.2,5.5,9.2C5.1,8.8,4.4,8.6,3.7,8.6c-1.6,0-2.8,1.3-2.8,2.9c0,1,0.4,1.8,1.2,2.4l-0.1,1c0,4.2,4.5,7.5,10.1,7.5
	s10.1-3.3,10.1-7.5l-0.1-1C22.9,13.3,23.4,12.5,23.4,11.4 M8.8,11.8c0.8,0,1.3,0.7,1.3,1.4c0,0.7-0.6,1.4-1.3,1.4S7.4,14,7.4,13.2
	C7.4,12.4,8,11.8,8.8,11.8 M16.4,18c-2,1.3-6.5,1.3-8.5,0c-0.2-0.2-0.3-0.6-0.1-0.8C8,17,8.3,16.9,8.6,17.1c1.3,1,5.8,1,7.2,0
	c0.2-0.2,0.6-0.1,0.8,0.1C16.8,17.4,16.6,17.8,16.4,18 M15.5,14.6c-0.8,0-1.3-0.7-1.3-1.4c0-0.8,0.7-1.4,1.3-1.4
	c0.8,0,1.3,0.7,1.3,1.4C16.9,14,16.3,14.6,15.5,14.6z"/>
</svg>
