<?xml version="1.0" encoding="UTF-8"?>
<svg width="16px" height="15px" viewBox="0 0 16 15" version="1.1" xmlns="http://www.w3.org/2000/svg" xmlns:xlink="http://www.w3.org/1999/xlink">
    <title>编组 3</title>
    <g id="页面-1" stroke="none" stroke-width="1" fill="none" fill-rule="evenodd">
        <g id="编组-3" transform="translate(0.899495, 0.899495)">
            <path d="M2.05025253,2.05025253 C4.78392257,-0.683417511 9.21607743,-0.683417511 11.9497475,2.05025253 C13.0762486,3.17675367 13.7385369,4.59167972 13.9366123,6.0573202 C13.6360745,6.06553903 13.3001444,6.07429704 12.930002,6.08399644 C12.7430549,4.86647803 12.1805666,3.69528518 11.2426407,2.75735931 C8.89949494,0.414213562 5.10050506,0.414213562 2.75735931,2.75735931 C0.414213562,5.10050506 0.414213562,8.89949494 2.75735931,11.2426407 C5.01006449,13.4953459 8.60839759,13.5822956 10.9649797,11.5034899 L11.8743754,12.0240116 C9.13520828,14.6831892 4.75893954,14.6584345 2.05025253,11.9497475 C-0.683417511,9.21607743 -0.683417511,4.78392257 2.05025253,2.05025253 Z" id="形状结合" fill="#12022F" fill-rule="nonzero"></path>
            <polyline id="路径-4" stroke="#12022F" transform="translate(13.022755, 5.045074) rotate(-231.000000) translate(-13.022755, -5.045074) " points="12.0227549 4.04507426 14.0227549 4.04507426 14.0227549 6.04507426"></polyline>
        </g>
    </g>
</svg>