<?xml version="1.0" encoding="UTF-8"?>
<svg width="48px" height="48px" viewBox="0 0 48 48" version="1.1" xmlns="http://www.w3.org/2000/svg" xmlns:xlink="http://www.w3.org/1999/xlink">
    <title>Filter-2@0.5x</title>
    <g id="页面-1" stroke="none" stroke-width="1" fill="none" fill-rule="evenodd">
        <g id="画板" transform="translate(-678.000000, -333.000000)">
            <g id="Filter-2" transform="translate(678.000000, 333.000000)">
                <rect id="BG" fill-opacity="0" fill="#FFFFFF" fill-rule="nonzero" x="0" y="0" width="48" height="48"></rect>
                <path d="M16,7 C19.1710037,7 21.8495435,9.10848853 22.7101075,11.9999537 L41,12 C42.1045695,12 43,12.8954305 43,14 C43,15.1045695 42.1045695,16 41,16 L22.7098107,16.0010432 C21.8489278,18.8919961 19.1706393,21 16,21 C12.8293607,21 10.1510722,18.8919961 9.29018925,16.0010432 L5,16 C3.8954305,16 3,15.1045695 3,14 C3,12.8954305 3.8954305,12 5,12 L9.28989247,11.9999537 C10.1504565,9.10848853 12.8289963,7 16,7 Z M16,17 C17.6568542,17 19,15.6568542 19,14 C19,12.3431458 17.6568542,11 16,11 C14.3431458,11 13,12.3431458 13,14 C13,15.6568542 14.3431458,17 16,17 Z M30,27 C33.1710037,27 35.8495435,29.1084885 36.7101075,31.9999537 L41,32 C42.1045695,32 43,32.8954305 43,34 C43,35.1045695 42.1045695,36 41,36 L36.7098107,36.0010432 C35.8489278,38.8919961 33.1706393,41 30,41 C26.8293607,41 24.1510722,38.8919961 23.2901893,36.0010432 L5,36 C3.8954305,36 3,35.1045695 3,34 C3,32.8954305 3.8954305,32 5,32 L23.2898925,31.9999537 C24.1504565,29.1084885 26.8289963,27 30,27 Z M30,37 C31.6568542,37 33,35.6568542 33,34 C33,32.3431458 31.6568542,31 30,31 C28.3431458,31 27,32.3431458 27,34 C27,35.6568542 28.3431458,37 30,37 Z" id="filter-icon" fill="#0E0C15" transform="translate(23.000000, 24.000000) rotate(90.000000) translate(-23.000000, -24.000000) "></path>
            </g>
        </g>
    </g>
</svg>