<?xml version="1.0" encoding="UTF-8"?>
<svg width="30px" height="28px" viewBox="0 0 30 28" version="1.1" xmlns="http://www.w3.org/2000/svg" xmlns:xlink="http://www.w3.org/1999/xlink">
    <title>编组 16@1x</title>
    <g id="页面-1" stroke="none" stroke-width="1" fill="none" fill-rule="evenodd">
        <g id="购买详情备份" transform="translate(-880.000000, -802.000000)" fill="#242424" fill-rule="nonzero">
            <g id="编组" transform="translate(880.000000, 802.000000)">
                <path d="M10.0899024,26.1843651 C10.0899024,27.1871126 10.900972,28 11.901477,28 C12.9019821,28 13.7130516,27.1871126 13.7130516,26.1843651 C13.7130516,25.1816177 12.9019821,24.3687302 11.901477,24.3687302 C10.900972,24.3687302 10.0899024,25.1816177 10.0899024,26.1843651 L10.0899024,26.1843651 Z" id="路径"></path>
                <path d="M19.6211834,26.1843651 C19.6211834,27.1871126 20.432253,28 21.432758,28 C22.433263,28 23.2443326,27.1871126 23.2443326,26.1843651 C23.2443326,25.1816177 22.433263,24.3687302 21.432758,24.3687302 C20.432253,24.3687302 19.6211834,25.1816177 19.6211834,26.1843651 L19.6211834,26.1843651 Z" id="路径"></path>
                <path d="M28.6790564,4.39358337 C28.6064672,4.38093086 28.533878,4.37144148 28.4581327,4.36511523 L8.25939151,4.36511523 L7.93431802,1.61952101 C7.70392613,0.708540443 6.89282043,0.0284681428 5.91759995,0 L1.29398186,0 C0.580713809,0 0,0.578852237 0,1.29688206 C0,2.01174876 0.577557756,2.59376412 1.29398186,2.59376412 L4.68358311,2.59376412 C5.07493372,2.62223226 5.45997222,2.91323995 5.5294054,3.28965206 L5.53887356,3.36873023 L5.60515068,3.92860371 L7.64080506,20.9620425 C7.80491983,21.9868956 8.69177081,22.7713511 9.76167288,22.7713511 L23.859763,22.7713511 C24.5730311,22.7713511 25.1537449,22.1924989 25.1537449,21.474469 C25.1537449,20.7596023 24.5761871,20.177587 23.859763,20.177587 L10.8441992,20.177587 C10.4938773,20.1238138 10.1624917,19.8644374 10.0772782,19.5354722 L9.84688632,17.5964754 L24.4878176,16.7930411 C24.9643817,16.7614099 25.3620444,16.4704022 25.5608757,16.0718482 L25.5798121,16.0338906 L29.8467961,6.98418437 C30.2413028,5.98147311 29.8815127,4.62449164 28.6790564,4.39358337 L28.6790564,4.39358337 Z" id="路径"></path>
            </g>
        </g>
    </g>
</svg>