<?xml version="1.0" encoding="UTF-8"?>
<svg width="24px" height="24px" viewBox="0 0 24 24" version="1.1" xmlns="http://www.w3.org/2000/svg" xmlns:xlink="http://www.w3.org/1999/xlink">
    <title>编组@2x</title>
    <g id="页面-1" stroke="none" stroke-width="1" fill="none" fill-rule="evenodd">
        <g id="桌面端-HD备份" transform="translate(-490.000000, -3564.000000)" fill="#FFFFFF" fill-rule="nonzero">
            <g id="编组" transform="translate(490.000000, 3564.000000)">
                <path d="M15.9241172,17.5044609 L17.8928672,8.22321094 C17.9732109,7.83035156 17.9263359,7.54910156 17.7522422,7.37946094 C17.5781484,7.20982031 17.3482344,7.17857031 17.0625,7.28571094 L5.49107812,11.7455391 C5.23214062,11.8437578 5.05579687,11.9553672 4.96204687,12.0803672 C4.86829687,12.2053672 4.85714062,12.3236641 4.92857812,12.4352578 C5.00001562,12.5468516 5.14286719,12.6339062 5.35713281,12.6964219 L8.31696094,13.6205391 L15.1875,9.29460937 C15.375,9.16960937 15.5178594,9.14282812 15.6160781,9.21426562 C15.6785781,9.25890625 15.6607188,9.32586719 15.5625,9.41514844 L10.0044609,14.4375 L9.79017188,17.4910781 C9.99553125,17.4910781 10.1964297,17.3928594 10.3928672,17.1964219 L11.8392891,15.8035781 L14.8392891,18.0133828 C15.4107109,18.3348203 15.7723203,18.1651797 15.9241172,17.5044609 L15.9241172,17.5044609 Z M24,12 C24,13.625 23.6830391,15.1785703 23.0491172,16.6607109 C22.4151953,18.1428516 21.5625156,19.4196406 20.4910781,20.4910781 C19.4196406,21.5625156 18.1428516,22.4151953 16.6607109,23.0491172 C15.1785703,23.6830391 13.625,24 12,24 C10.375,24 8.82142969,23.6830391 7.33928906,23.0491172 C5.85714844,22.4151953 4.58035938,21.5625156 3.50892188,20.4910781 C2.43748438,19.4196406 1.58480469,18.1428516 0.950882812,16.6607109 C0.316960937,15.1785703 0,13.625 0,12 C0,10.375 0.316960937,8.82142969 0.950882812,7.33928906 C1.58480469,5.85714844 2.43748438,4.58035938 3.50892187,3.50892188 C4.58035937,2.43748438 5.85714844,1.58480469 7.33928906,0.950882812 C8.82142969,0.316960937 10.375,0 12,0 C13.625,0 15.1785703,0.316960937 16.6607109,0.950882812 C18.1428516,1.58480469 19.4196406,2.43748438 20.4910781,3.50892187 C21.5625156,4.58035937 22.4151953,5.85714844 23.0491172,7.33928906 C23.6830391,8.82142969 24,10.375 24,12 Z" id="形状"></path>
            </g>
        </g>
    </g>
</svg>