<?xml version="1.0" encoding="UTF-8"?>
<svg width="22px" height="26px" viewBox="0 0 22 26" version="1.1" xmlns="http://www.w3.org/2000/svg" xmlns:xlink="http://www.w3.org/1999/xlink">
    <title>编组 2@2x</title>
    <g id="页面-1" stroke="none" stroke-width="1" fill="none" fill-rule="evenodd">
        <g id="桌面端-HD备份" transform="translate(-589.000000, -3563.000000)" fill="#FFFFFF" fill-rule="nonzero">
            <g id="编组" transform="translate(589.000000, 3563.000000)">
                <path d="M22,26 L16.2251594,20.3477975 L16.918,22.6088101 L2.74999999,22.6088101 C1.2313623,22.6088101 6.99118702e-16,21.343038 6.99118702e-16,19.7827089 L6.99118702e-16,2.82610126 C6.99118702e-16,1.26544303 1.2313623,0 2.74999999,0 L19.25,0 C20.7686377,0 22,1.26544303 22,2.82610126 L22,26 Z M11,6.55660759 C8.052,6.55660759 5.984,7.85660759 5.984,7.85660759 C7.11684058,6.81660759 9.09715942,6.21762025 9.09715942,6.21762025 L8.91,6.0250886 C7.05115941,6.05898734 5.368,7.38169618 5.368,7.38169621 C3.476,11.44 3.59715941,14.9444051 3.59715941,14.9444051 C5.1371594,16.9905063 7.42515941,16.8433924 7.42515941,16.8433924 L8.20599999,15.8261013 C6.83115942,15.5210127 5.962,14.2661013 5.962,14.2661013 C5.962,14.2661013 8.02999999,15.7128861 11,15.7128861 C13.97,15.7128861 16.038,14.2661013 16.038,14.2661013 C16.038,14.2661012 15.1688406,15.5210127 13.794,15.8261013 L14.5751594,16.8433924 C14.5751594,16.8433924 16.8628406,16.9905063 18.4028406,14.9444051 C18.4028406,14.9444051 18.524,11.44 16.632,7.38169621 C16.632,7.38169621 14.9488406,6.05898734 13.09,6.0250886 L12.9028406,6.21729113 C12.9028406,6.21729113 14.8828406,6.81627847 16.016,7.85627847 C16.016,7.85627847 13.948,6.55627847 11,6.55627847 L11,6.55660759 Z M8.72284057,10.8410127 C9.438,10.8410127 10.0211594,11.4850886 10.01,12.2766076 C10.01,13.0566076 9.438,13.7122025 8.72284057,13.7122025 C8.01915941,13.7122025 7.44684058,13.0566076 7.44684058,12.2766076 C7.44684058,11.4850886 8.00800001,10.8410127 8.72284057,10.8410127 Z M13.31,10.8410127 C14.0248406,10.8410127 14.5971594,11.4850886 14.5971594,12.2766076 C14.5971594,13.0566076 14.0251594,13.7122025 13.31,13.7122025 C12.606,13.7122025 12.034,13.0566076 12.034,12.2766076 C12.034,11.4850886 12.5951594,10.8410127 13.31,10.8410127 L13.31,10.8410127 Z" id="形状"></path>
            </g>
        </g>
    </g>
</svg>