<?xml version="1.0" encoding="UTF-8"?>
<svg width="31px" height="22px" viewBox="0 0 31 22" version="1.1" xmlns="http://www.w3.org/2000/svg" xmlns:xlink="http://www.w3.org/1999/xlink">
    <title>编组</title>
    <defs>
        <polygon id="path-1" points="0 0 31 0 31 22 0 22"></polygon>
    </defs>
    <g id="页面-1" stroke="none" stroke-width="1" fill="none" fill-rule="evenodd">
        <g id="个人中心弹框" transform="translate(-640.000000, -3565.000000)">
            <g id="编组" transform="translate(640.000000, 3565.000000)">
                <mask id="mask-2" fill="white">
                    <use xlink:href="#path-1"></use>
                </mask>
                <g id="Clip-2"></g>
                <path d="M28.1851275,12.8161012 C27.6926044,12.8155185 27.2877066,12.4157417 27.284632,11.9271384 C27.2814392,11.4363233 27.675576,11.0375942 28.173184,11.0281644 C28.6677174,11.0187346 29.0771088,11.4110608 29.084204,11.9014102 C29.0916539,12.4125984 28.6944426,12.8166827 28.1851275,12.8161012 M13.946774,20.1286201 C13.4462097,20.1297817 13.0524276,19.7418794 13.048407,19.2434971 C13.0443864,18.7441835 13.4282352,18.3565141 13.9340027,18.3490634 C14.4342123,18.3418455 14.8431307,18.7291657 14.8498711,19.2167211 C14.856848,19.7229034 14.4563256,20.1273369 13.946774,20.1286201 M30.9436119,11.3941803 C30.6120309,9.85840386 29.1096284,8.88888098 27.5771896,9.22183433 C26.0608332,9.55141157 25.1080699,11.0491195 25.4672039,12.5675498 C25.514032,12.7659248 25.4633015,12.8418288 25.3018864,12.9263477 C22.3614108,14.4650346 19.4224726,16.0066318 16.4856628,17.5519544 C16.3208184,17.6388017 16.2262161,17.6362405 16.0934181,17.4819877 C14.8564932,16.0448167 12.6355863,16.173807 11.6020563,17.7481175 C11.4431245,17.9902654 11.3314938,17.9863072 11.0958159,17.8626721 C8.53859782,16.5213125 5.9758219,15.1898484 3.41233646,13.8598977 C2.00453619,13.1294958 1.24298779,11.2091932 1.77890974,9.72068225 C2.02002732,9.05128305 2.51077668,8.84836778 3.145085,9.17526743 C6.28694517,10.794515 9.43483623,12.4030522 12.5599045,14.0532667 C13.2457711,14.4154408 13.8339608,14.4072916 14.5023259,14.063395 C19.1251849,11.6842921 23.756085,9.3202069 28.3845019,6.95134865 C28.7244788,6.77730485 29.0690676,6.61117743 29.403132,6.42677251 C29.933023,6.13421595 29.9376349,5.62430838 29.4202786,5.31126239 C29.3702577,5.2809939 29.3151518,5.25864179 29.2620563,5.23349566 C25.773597,3.5811856 22.2345255,2.03306897 18.7790588,0.312421974 C18.0967398,-0.0272835698 17.3782354,-0.13194268 16.6768777,0.211138964 C11.6435631,2.67254894 6.59251055,5.09891732 1.58367427,7.60840762 C1.34539477,7.7277353 1.13336739,7.88303592 0.94865643,8.0738438 C0.241267838,8.80494414 0.00310658343,9.70054207 0.001805802,10.6785634 C-0.00800918516,11.0487703 0.0217905349,11.4138548 0.100901696,11.7754468 C0.3617675,12.96884 0.866470695,14.028237 1.84938844,14.8174296 C2.37230258,15.2372302 3.00389109,15.476002 3.59491887,15.7788033 C6.02619762,17.0244679 8.46528105,18.2555803 10.9019994,19.4911166 C11.0528901,19.5676027 11.1764643,19.6421098 11.2200996,19.8350132 C11.5132484,21.1329491 12.7026357,22.0450783 14.019736,21.9982786 C15.4030579,21.9491505 16.5433702,20.9576247 16.7179115,19.6121906 C16.7529143,19.342801 16.8574498,19.2118316 17.0859143,19.0905248 C20.1371928,17.4697638 23.1844507,15.8415522 26.2292253,14.2089166 C26.4014014,14.1167141 26.5129139,14.1308006 26.6758663,14.2367403 C27.613375,14.8464175 28.8465158,14.8249967 29.7595461,14.2022808 C30.6998928,13.5609382 31.1705392,12.4447296 30.9436119,11.3941803" id="Fill-1" fill="#FEFEFE" mask="url(#mask-2)"></path>
            </g>
        </g>
    </g>
</svg>