<?xml version="1.0" encoding="UTF-8"?>
<svg width="10px" height="17px" viewBox="0 0 10 17" version="1.1" xmlns="http://www.w3.org/2000/svg" xmlns:xlink="http://www.w3.org/1999/xlink">
    <title>编组 14@1x</title>
    <g id="页面-1" stroke="none" stroke-width="1" fill="none" fill-rule="evenodd">
        <g id="5游戏市场" transform="translate(-838.000000, -123.000000)">
            <g id="编组-3" transform="translate(754.000000, 108.000000)">
                <g id="编组" transform="translate(81.000000, 11.000000)">
                    <g id="编组-14" transform="translate(3.757359, 4.757359)">
                        <rect id="矩形" fill="#AD7EFF" x="3.24264069" y="5.24264069" width="2" height="10" rx="1"></rect>
                        <path d="M6.24264069,1.24264069 C6.79492544,1.24264069 7.24264069,1.69035594 7.24264069,2.24264069 L7.24264069,6.24264069 C7.24264069,6.79492544 6.79492544,7.24264069 6.24264069,7.24264069 C5.69035594,7.24264069 5.24264069,6.79492544 5.24264069,6.24264069 L5.24264069,3.24264069 L2.24264069,3.24264069 C1.69035594,3.24264069 1.24264069,2.79492544 1.24264069,2.24264069 C1.24264069,1.69035594 1.69035594,1.24264069 2.24264069,1.24264069 L6.24264069,1.24264069 L6.24264069,1.24264069 Z" id="形状结合" fill="#7324FE" transform="translate(4.242641, 4.242641) rotate(-45.000000) translate(-4.242641, -4.242641) "></path>
                    </g>
                </g>
            </g>
        </g>
    </g>
</svg>