<?xml version="1.0" encoding="UTF-8"?>
<svg width="32px" height="32px" viewBox="0 0 32 32" version="1.1" xmlns="http://www.w3.org/2000/svg" xmlns:xlink="http://www.w3.org/1999/xlink">
    <title>编组 14备份 3</title>
    <g id="页面-1" stroke="none" stroke-width="1" fill="none" fill-rule="evenodd">
        <g id="个人中心" transform="translate(-190.000000, -500.000000)">
            <g id="编组-14备份-3" transform="translate(190.000000, 500.000000)">
                <rect id="矩形" x="0" y="0" width="32" height="32"></rect>
                <g id="编组-5" transform="translate(9.000000, 10.000000)">
                    <polygon id="路径-16" fill="#4C4763" points="0 4 2.88517578 4 4 1.66514386e-17"></polygon>
                    <path d="M2.88517578,4 L4,0 L10.0088275,0 L11.1236517,4 L2.88517578,4 Z" id="形状结合" fill="#AEA9B5"></path>
                    <path d="M11.1236517,4 L7.00817578,12.379 L7.00882751,12.397922 L7.00417578,12.388 L7,12.397922 L6.99917578,12.378 L2.88517578,4 L11.1236517,4 Z" id="形状结合" fill="#524B5D" transform="translate(7.004414, 8.198961) scale(-1, 1) translate(-7.004414, -8.198961) "></path>
                    <polygon id="路径-16备份" fill="#2B213B" points="-8.69640917e-13 4 2.88517578 4 7.00882751 12.397922"></polygon>
                    <polygon id="路径-16" fill="#4C4763" transform="translate(12.008828, 2.000000) scale(-1, 1) translate(-12.008828, -2.000000) " points="10.0088275 4 12.8940033 4 14.0088275 1.66514386e-17"></polygon>
                    <polygon id="路径-16备份" fill="#2B213B" transform="translate(10.504414, 8.198961) scale(-1, 1) translate(-10.504414, -8.198961) " points="7 4 9.88517578 4 14.0088275 12.397922"></polygon>
                </g>
            </g>
        </g>
    </g>
</svg>