<?xml version="1.0" encoding="UTF-8"?>
<svg width="24px" height="24px" viewBox="0 0 24 24" version="1.1" xmlns="http://www.w3.org/2000/svg" xmlns:xlink="http://www.w3.org/1999/xlink">
    <title>Twitter@3x</title>
    <g id="页面-1" stroke="none" stroke-width="1" fill="none" fill-rule="evenodd">
        <g id="桌面端-HD备份" transform="translate(-541.000000, -3564.000000)">
            <g id="Twitter" transform="translate(541.000000, 3564.000000)">
                <rect id="Base" x="0" y="0" width="24" height="24"></rect>
                <path d="M24,4.36769231 C23.1075,4.76923077 22.1565,5.03538462 21.165,5.16461538 C22.185,4.54 22.9635,3.55846154 23.3295,2.37538462 C22.3785,2.95692308 21.3285,3.36769231 20.2095,3.59692308 C19.3065,2.61076923 18.0195,2 16.6155,2 C13.8915,2 11.6985,4.26769231 11.6985,7.04769231 C11.6985,7.44769231 11.7315,7.83230769 11.8125,8.19846154 C7.722,7.99384615 4.1025,5.98307692 1.671,2.92 C1.2465,3.67538462 0.9975,4.54 0.9975,5.47076923 C0.9975,7.21846154 1.875,8.76769231 3.183,9.66461538 C2.3925,9.64923077 1.617,9.41384615 0.96,9.04307692 C0.96,9.05846154 0.96,9.07846154 0.96,9.09846154 C0.96,11.5507692 2.6655,13.5876923 4.902,14.0569231 C4.5015,14.1692308 4.065,14.2230769 3.612,14.2230769 C3.297,14.2230769 2.979,14.2046154 2.6805,14.1369231 C3.318,16.1353846 5.127,17.6046154 7.278,17.6523077 C5.604,18.9953846 3.4785,19.8046154 1.1775,19.8046154 C0.774,19.8046154 0.387,19.7861538 0,19.7353846 C2.1795,21.1769231 4.7625,22 7.548,22 C16.602,22 21.552,14.3076923 21.552,7.64 C21.552,7.41692308 21.5445,7.20153846 21.534,6.98769231 C22.5105,6.27692308 23.331,5.38923077 24,4.36769231 Z" id="Path" fill="#FFFFFF" fill-rule="nonzero"></path>
            </g>
        </g>
    </g>
</svg>