<?xml version="1.0" encoding="UTF-8"?>
<svg width="32px" height="32px" viewBox="0 0 32 32" version="1.1" xmlns="http://www.w3.org/2000/svg" xmlns:xlink="http://www.w3.org/1999/xlink">
    <title>编组 14备份</title>
    <g id="页面-1" stroke="none" stroke-width="1" fill="none" fill-rule="evenodd">
        <g id="个人中心" transform="translate(-190.000000, -410.000000)">
            <g id="编组-14备份" transform="translate(190.000000, 410.000000)">
                <rect id="矩形" x="0" y="0" width="32" height="32"></rect>
                <g id="编组-11" transform="translate(11.000000, 7.000000)">
                    <polygon id="矩形" fill="#4D4765" points="0 4.26086957 2.5 5.47826087 2.5 14 0 12.7826087"></polygon>
                    <polygon id="矩形备份-26" fill="#4D4765" points="5.625 0.608695652 8.125 1.82608696 8.125 17 5.625 15.7826087"></polygon>
                    <polygon id="矩形备份-24" fill="#4D4765" points="1.875 3.65217391 4.375 4.86956522 4.375 13.3913043 1.875 12.173913"></polygon>
                    <polygon id="矩形备份-23" fill="#AFA9B6" transform="translate(3.437500, 9.434783) scale(-1, 1) translate(-3.437500, -9.434783) " points="2.5 4.86956522 4.375 5.47826087 4.375 14 2.5 13.3913043"></polygon>
                    <polygon id="矩形备份-28" fill="#AFA9B6" transform="translate(9.062500, 9.108696) scale(-1, 1) translate(-9.062500, -9.108696) " points="8.125 1.2173913 10 1.82608696 10 17 8.125 16.3913043"></polygon>
                    <polygon id="路径-17" fill="#2B213B" points="1.875 3.65217391 -5.20417043e-17 4.26086957 2.5 5.47826087 4.375 4.86956522"></polygon>
                    <polygon id="路径-17备份" fill="#2B213B" points="7.5 0 5.625 0.608695652 8.125 1.82608696 10 1.2173913"></polygon>
                </g>
            </g>
        </g>
    </g>
</svg>