<?xml version="1.0" encoding="UTF-8"?>
<svg width="13px" height="12px" viewBox="0 0 13 12" version="1.1" xmlns="http://www.w3.org/2000/svg" xmlns:xlink="http://www.w3.org/1999/xlink">
    <title>编组</title>
    <g id="页面-1" stroke="none" stroke-width="1" fill="none" fill-rule="evenodd">
        <g id="桌面端-HD备份" transform="translate(-1335.000000, -72.000000)" fill="#000000" fill-rule="nonzero">
            <g id="编组" transform="translate(1335.000000, 72.000000)">
                <path d="M13,10.7546901 C13,10.9282589 12.9689253,11.0899915 12.9069807,11.2405795 C12.8450601,11.3907456 12.7567242,11.523099 12.6422259,11.6374521 C12.5276795,11.7515708 12.3940499,11.8405994 12.2412651,11.9040924 C12.0886007,11.9677027 11.9215488,11.9997656 11.7400732,12 L1.34589082,12 C1.16457175,12 0.992812252,11.9681714 0.830552144,11.9040924 C0.668424474,11.8401892 0.525223338,11.7511724 0.400852416,11.6374521 C0.276505574,11.5234974 0.178694406,11.3911558 0.107202196,11.2405795 C0.0356859062,11.0897572 0,10.9278604 0,10.7546901 L0,3.92384329 C0,3.57684638 0.126417684,3.28240879 0.379253052,3.04064769 C0.632172699,2.79883971 0.940126177,2.6779826 1.30286065,2.6779826 L11.6970551,2.6779826 C12.0598618,2.6779826 12.3677671,2.79883971 12.6206266,3.04064769 C12.8735703,3.28240879 13,3.57684638 13,3.92385501 L13,5.78547408 L9.75005418,5.78547408 C9.38711503,5.78547408 9.07923379,5.90416319 8.8263623,6.1415297 C8.57344265,6.3789548 8.44706109,6.67111893 8.44706109,7.0177174 C8.4564762,7.2551425 8.50898168,7.46513364 8.60463772,7.64765565 C8.68103012,7.80273198 8.80745985,7.94414406 8.98399913,8.07209111 C9.16043006,8.20000301 9.41587806,8.26390622 9.75005418,8.26390622 L13,8.26390622 L13,10.755487 L13,10.7546667 L13,10.7546901 Z M11.0529389,2.04848966 L4.55293891,2.04848966 C5.06850634,1.79300572 5.55534687,1.54643986 6.01346047,1.30902648 C6.41058711,1.11012996 6.8067325,0.909382741 7.20188302,0.706791726 C7.59309157,0.50614056 7.8984565,0.350958762 8.1181584,0.241082268 C8.45228635,0.0675720955 8.75057189,-0.0122219584 9.01285848,0.00151260337 C9.27527752,0.0152354463 9.49712249,0.058583692 9.67853789,0.131592497 C9.88862,0.232105583 10.0700234,0.364353475 10.2227961,0.528523677 L11.0529389,2.04848966 L11.0529389,2.04848966 Z M9.10580558,7.01772912 C9.10580558,6.8442541 9.16787064,6.6981779 9.29183221,6.57972316 C9.41587806,6.46115123 9.56853042,6.40179496 9.75005418,6.40179496 C9.93145754,6.40179496 10.084134,6.46115123 10.2080474,6.57972316 C10.3320571,6.6981779 10.394062,6.8442541 10.394062,7.01772912 C10.394062,7.19119241 10.3320571,7.33954209 10.2080474,7.46273126 C10.084134,7.58597903 9.93145754,7.64765565 9.75005418,7.64765565 C9.56853042,7.64765565 9.41587806,7.58597903 9.29182017,7.46273126 C9.16787064,7.33954209 9.10580558,7.19120413 9.10580558,7.01772912 L9.10580558,7.01772912 Z" id="形状"></path>
            </g>
        </g>
    </g>
</svg>