<?xml version="1.0" encoding="utf-8"?>
<!-- Generator: Adobe Illustrator 26.0.1, SVG Export Plug-In . SVG Version: 6.00 Build 0)  -->
<svg version="1.1" id="图层_1" xmlns="http://www.w3.org/2000/svg" xmlns:xlink="http://www.w3.org/1999/xlink" x="0px" y="0px"
	 viewBox="0 0 24 24" style="enable-background:new 0 0 24 24;" xml:space="preserve">
<style type="text/css">
	.st0{fill:#FFFFFF;}
</style>
<path class="st0" d="M23.3,7.3c-0.3-1-1-1.8-2-2c-1.8-0.5-9-0.5-9-0.5s-7.2,0-9,0.5c-1,0.3-1.8,1-2,2c-0.5,1.8-0.5,5.6-0.5,5.6
	s0,3.8,0.5,5.6c0.3,1,1,1.8,2,2c1.8,0.5,9,0.5,9,0.5s7.2,0,9-0.5c1-0.3,1.8-1,2-2c0.5-1.8,0.5-5.6,0.5-5.6S23.8,9.1,23.3,7.3z
	 M9.9,16.3V9.4l6,3.4L9.9,16.3z"/>
</svg>
